<svg width="32" height="32" viewBox="0 0 32 32" fill="none" xmlns="http://www.w3.org/2000/svg">
<g id="fi_5946268">
<path id="Vector" d="M4.26689 22.9333H1.60023C1.45878 22.9333 1.32312 22.9895 1.2231 23.0895C1.12308 23.1896 1.06689 23.3252 1.06689 23.4667V27.2C1.06689 27.3414 1.12308 27.4771 1.2231 27.5771C1.32312 27.6771 1.45878 27.7333 1.60023 27.7333H3.73356C3.78879 27.7333 3.84367 27.742 3.89623 27.7589L13.5805 30.8613C13.8099 30.9349 14.0535 30.9527 14.2912 30.9131C14.5288 30.8736 14.7536 30.778 14.9469 30.6341L25.3469 22.8965C25.4703 22.8045 25.5554 22.6702 25.5859 22.5193C25.6164 22.3685 25.5902 22.2117 25.5122 22.0789C25.4242 21.9411 25.2867 21.8421 25.128 21.8024C24.9693 21.7628 24.8015 21.7854 24.6589 21.8656L15.2888 27.6587C15.0961 27.7767 14.8715 27.8319 14.646 27.8168C14.4206 27.8017 14.2053 27.717 14.0301 27.5744L11.5517 25.6H9.60023C9.45878 25.6 9.32312 25.5438 9.2231 25.4438C9.12309 25.3438 9.06689 25.2081 9.06689 25.0667C9.06689 24.9252 9.12309 24.7896 9.2231 24.6895C9.32312 24.5895 9.45878 24.5333 9.60023 24.5333H18.0872C18.2933 24.5318 18.4905 24.4493 18.6363 24.3036C18.782 24.1579 18.8647 23.9608 18.8664 23.7547C18.8602 23.5724 18.7929 23.3975 18.6753 23.2582C18.5576 23.1189 18.3965 23.0232 18.2178 22.9867L8.06423 21.1808C7.79029 21.1313 7.50765 21.178 7.26423 21.3131L4.53356 22.864C4.45228 22.9101 4.36032 22.934 4.26689 22.9333Z" fill="#EE7E04"/>
<path id="Vector_2" d="M16.5608 25.6H13.2627L14.7 26.7451L16.5608 25.6Z" fill="#EE7E04"/>
<path id="Vector_3" d="M30.4002 13.3333C30.5416 13.3333 30.6773 13.2771 30.7773 13.1771C30.8773 13.0771 30.9335 12.9415 30.9335 12.8V6.40001C30.9335 6.25856 30.8773 6.1229 30.7773 6.02288C30.6773 5.92286 30.5416 5.86667 30.4002 5.86667H27.2002C25.2449 5.80235 23.3907 4.98284 22.0269 3.58027C21.2269 2.78507 19.9122 2.66667 19.2002 2.66667H19.0535C19.0282 2.71872 18.9988 2.76865 18.9655 2.81601L18.2765 3.73334H18.6669C18.8083 3.73334 18.944 3.78953 19.044 3.88955C19.144 3.98957 19.2002 4.12522 19.2002 4.26667C19.2002 4.40812 19.144 4.54378 19.044 4.6438C18.944 4.74381 18.8083 4.80001 18.6669 4.80001H11.0098C10.8022 4.79203 10.5989 4.86033 10.4383 4.99199C10.2776 5.12366 10.1707 5.30959 10.1378 5.51467C10.1258 5.62631 10.1375 5.73922 10.172 5.84606C10.2065 5.9529 10.2632 6.05127 10.3382 6.13478C10.4133 6.21829 10.5051 6.28506 10.6077 6.33076C10.7102 6.37645 10.8212 6.40005 10.9335 6.40001C11.075 6.40001 11.2106 6.4562 11.3107 6.55622C11.4107 6.65623 11.4669 6.79189 11.4669 6.93334C11.4669 7.07479 11.4107 7.21044 11.3107 7.31046C11.2106 7.41048 11.075 7.46667 10.9335 7.46667C10.8208 7.46602 10.7093 7.48919 10.6062 7.53465C10.5031 7.58011 10.4107 7.64684 10.3352 7.73048C10.2596 7.81412 10.2026 7.91277 10.1679 8.01997C10.1331 8.12717 10.1214 8.2405 10.1335 8.35254C10.1667 8.55828 10.2742 8.74469 10.4358 8.87634C10.5973 9.008 10.8016 9.07573 11.0098 9.06667H11.4685C11.6099 9.06667 11.7456 9.12286 11.8456 9.22288C11.9456 9.3229 12.0018 9.45856 12.0018 9.60001C12.0018 9.74145 11.9456 9.87711 11.8456 9.97713C11.7456 10.0771 11.6099 10.1333 11.4685 10.1333C11.3558 10.1327 11.2442 10.1559 11.1411 10.2013C11.038 10.2468 10.9456 10.3135 10.8701 10.3971C10.7946 10.4808 10.7376 10.5794 10.7028 10.6866C10.6681 10.7938 10.6564 10.9072 10.6685 11.0192C10.7016 11.2247 10.8089 11.4108 10.9701 11.5425C11.1313 11.6741 11.3352 11.742 11.5431 11.7333H12.0018C12.1432 11.7333 12.2789 11.7895 12.3789 11.8895C12.4789 11.9896 12.5351 12.1252 12.5351 12.2667C12.5351 12.4081 12.4789 12.5438 12.3789 12.6438C12.2789 12.7438 12.1432 12.8 12.0018 12.8C11.8891 12.7994 11.7775 12.8225 11.6744 12.868C11.5713 12.9134 11.479 12.9802 11.4034 13.0638C11.3279 13.1474 11.2709 13.2461 11.2362 13.3533C11.2014 13.4605 11.1897 13.5738 11.2018 13.6859C11.2349 13.8913 11.3422 14.0775 11.5034 14.2091C11.6646 14.3407 11.8685 14.4087 12.0765 14.4H20.2722C21.0129 14.4095 21.7481 14.2729 22.4359 13.9979C23.7896 13.5033 25.2268 13.2776 26.6669 13.3333H30.4002Z" fill="#EE7E04"/>
<path id="Vector_4" d="M13.989 3.73334H16.9426L18.1218 2.16427L17.285 2.13334C17.1952 2.133 17.107 2.11 17.0284 2.06648C16.9499 2.02296 16.8837 1.96032 16.8358 1.88437C16.7879 1.80843 16.76 1.72162 16.7546 1.63201C16.7492 1.5424 16.7666 1.45287 16.805 1.37174L16.9586 1.04694L14.0098 1.06667L14.125 1.37067C14.1636 1.45185 14.1812 1.54149 14.1759 1.63125C14.1706 1.72101 14.1427 1.80799 14.0949 1.88409C14.047 1.96019 13.9806 2.02294 13.9019 2.06652C13.8233 2.1101 13.7349 2.13308 13.645 2.13334H12.8188L13.989 3.73334Z" fill="#EE7E04"/>
<path id="Vector_5" d="M12.1179 15.4667C11.0457 16.9386 10.37 18.6615 10.1558 20.4699C18.4 21.9381 18.4102 21.9397 18.4224 21.9424C18.8075 22.0165 19.1594 22.2099 19.4283 22.4953C19.6973 22.7807 19.8695 23.1435 19.9206 23.5323L21.6272 22.4821C21.7852 21.9353 21.8658 21.3691 21.8667 20.8C21.8667 19.2411 21.0848 17.1307 19.9115 15.4667H12.1179Z" fill="#EE7E04"/>
</g>
</svg>
