<svg width="19" height="19" viewBox="0 0 19 19" fill="none" xmlns="http://www.w3.org/2000/svg">
<path d="M1.70508 6.94658V6.09392C1.70591 5.41575 1.97567 4.7656 2.45521 4.28606C2.93475 3.80653 3.5849 3.53676 4.26307 3.53593H5.11573V4.38859C5.11573 4.69011 5.23551 4.97929 5.44872 5.19249C5.66192 5.4057 5.95109 5.52548 6.25261 5.52548C6.55413 5.52548 6.8433 5.4057 7.05651 5.19249C7.26972 4.97929 7.3895 4.69011 7.3895 4.38859V3.53593H10.8001V4.38859C10.8001 4.69011 10.9199 4.97929 11.1331 5.19249C11.3463 5.4057 11.6355 5.52548 11.937 5.52548C12.2386 5.52548 12.5277 5.4057 12.7409 5.19249C12.9541 4.97929 13.0739 4.69011 13.0739 4.38859V3.53593H13.9266C14.6047 3.53676 15.2549 3.80653 15.7344 4.28606C16.214 4.7656 16.4837 5.41575 16.4846 6.09392V6.94658H1.70508ZM5.68417 4.38859C5.68417 4.53935 5.74406 4.68394 5.85066 4.79054C5.95727 4.89715 6.10185 4.95704 6.25261 4.95704C6.40337 4.95704 6.54796 4.89715 6.65456 4.79054C6.76117 4.68394 6.82106 4.53935 6.82106 4.38859V2.96749C6.82106 2.81673 6.76117 2.67214 6.65456 2.56554C6.54796 2.45894 6.40337 2.39905 6.25261 2.39905C6.10185 2.39905 5.95727 2.45894 5.85066 2.56554C5.74406 2.67214 5.68417 2.81673 5.68417 2.96749V4.38859ZM11.3686 2.96749V4.38859C11.3686 4.53935 11.4285 4.68394 11.5351 4.79054C11.6417 4.89715 11.7863 4.95704 11.937 4.95704C12.0878 4.95704 12.2324 4.89715 12.339 4.79054C12.4456 4.68394 12.5055 4.53935 12.5055 4.38859V2.96749C12.5055 2.81673 12.4456 2.67214 12.339 2.56554C12.2324 2.45894 12.0878 2.39905 11.937 2.39905C11.7863 2.39905 11.6417 2.45894 11.5351 2.56554C11.4285 2.67214 11.3686 2.81673 11.3686 2.96749ZM16.4846 7.51503V13.4837C16.4837 14.1618 16.214 14.812 15.7344 15.2915C15.2549 15.7711 14.6047 16.0408 13.9266 16.0417H4.26307C3.5849 16.0408 2.93475 15.7711 2.45521 15.2915C1.97567 14.812 1.70591 14.1618 1.70508 13.4837V7.51503H16.4846ZM11.1716 10.7293H9.99808L9.63484 9.61314C9.59746 9.49942 9.52513 9.40039 9.42816 9.33019C9.33119 9.25999 9.21454 9.2222 9.09482 9.2222C8.97511 9.2222 8.85845 9.25999 8.76148 9.33019C8.66451 9.40039 8.59218 9.49942 8.5548 9.61314L8.19214 10.7293H7.01802C6.89797 10.7293 6.78099 10.7672 6.68386 10.8378C6.58673 10.9083 6.51442 11.0078 6.47731 11.122C6.4402 11.2362 6.44019 11.3592 6.47728 11.4733C6.51437 11.5875 6.58666 11.687 6.68378 11.7576L7.63336 12.4474L7.27069 13.5635C7.23358 13.6777 7.23357 13.8007 7.27067 13.9149C7.30777 14.0291 7.38007 14.1286 7.4772 14.1992C7.57434 14.2697 7.69132 14.3077 7.81138 14.3077C7.93144 14.3077 8.04841 14.2696 8.14552 14.199L9.09482 13.5092L10.0441 14.199C10.1412 14.2696 10.2582 14.3077 10.3783 14.3077C10.4983 14.3077 10.6153 14.2697 10.7124 14.1992C10.8096 14.1286 10.8819 14.0291 10.919 13.9149C10.9561 13.8007 10.9561 13.6777 10.919 13.5635L10.5563 12.4474L11.5059 11.7576C11.603 11.687 11.6753 11.5875 11.7124 11.4733C11.7495 11.3592 11.7494 11.2362 11.7123 11.122C11.6752 11.0078 11.6029 10.9083 11.5058 10.8378C11.4087 10.7672 11.2917 10.7293 11.1716 10.7293Z" fill="url(#paint0_linear_555_7045)"/>
<defs>
<linearGradient id="paint0_linear_555_7045" x1="16.0284" y1="25.8801" x2="-1.70693" y2="23.7675" gradientUnits="userSpaceOnUse">
<stop stop-color="#A92902"/>
<stop offset="0.494792" stop-color="#E25704"/>
<stop offset="1" stop-color="#F49004"/>
</linearGradient>
</defs>
</svg>
