<svg width="19" height="19" viewBox="0 0 19 19" fill="none" xmlns="http://www.w3.org/2000/svg">
<g clip-path="url(#clip0_555_7038)">
<path d="M9.09474 0.299255C7.28636 0.301654 5.55272 1.0211 4.274 2.29982C2.99528 3.57854 2.27584 5.31217 2.27344 7.12056C2.27344 12.0177 8.62862 18.1512 8.89863 18.4098C8.95115 18.4609 9.0215 18.4894 9.09474 18.4894C9.16798 18.4894 9.23833 18.4609 9.29085 18.4098C9.56086 18.1512 15.916 12.0177 15.916 7.12056C15.9136 5.31217 15.1942 3.57854 13.9155 2.29982C12.6368 1.0211 10.9031 0.301654 9.09474 0.299255ZM9.09474 10.247C8.47639 10.247 7.87193 10.0636 7.35779 9.72009C6.84365 9.37655 6.44293 8.88827 6.2063 8.31699C5.96966 7.74571 5.90775 7.11709 6.02838 6.51062C6.14902 5.90415 6.44678 5.34708 6.88402 4.90984C7.32126 4.4726 7.87834 4.17484 8.4848 4.0542C9.09127 3.93357 9.71989 3.99548 10.2912 4.23211C10.8625 4.46875 11.3507 4.86947 11.6943 5.38361C12.0378 5.89775 12.2212 6.50221 12.2212 7.12056C12.2207 7.94959 11.8911 8.74452 11.3049 9.33073C10.7187 9.91694 9.92377 10.2465 9.09474 10.247Z" fill="#FF5B00"/>
<path d="M9.09474 0.299255C7.28636 0.301654 5.55272 1.0211 4.274 2.29982C2.99528 3.57854 2.27584 5.31217 2.27344 7.12056C2.27344 12.0177 8.62862 18.1512 8.89863 18.4098C8.95115 18.4609 9.0215 18.4894 9.09474 18.4894C9.16798 18.4894 9.23833 18.4609 9.29085 18.4098C9.56086 18.1512 15.916 12.0177 15.916 7.12056C15.9136 5.31217 15.1942 3.57854 13.9155 2.29982C12.6368 1.0211 10.9031 0.301654 9.09474 0.299255ZM9.09474 10.247C8.47639 10.247 7.87193 10.0636 7.35779 9.72009C6.84365 9.37655 6.44293 8.88827 6.2063 8.31699C5.96966 7.74571 5.90775 7.11709 6.02838 6.51062C6.14902 5.90415 6.44678 5.34708 6.88402 4.90984C7.32126 4.4726 7.87834 4.17484 8.4848 4.0542C9.09127 3.93357 9.71989 3.99548 10.2912 4.23211C10.8625 4.46875 11.3507 4.86947 11.6943 5.38361C12.0378 5.89775 12.2212 6.50221 12.2212 7.12056C12.2207 7.94959 11.8911 8.74452 11.3049 9.33073C10.7187 9.91694 9.92377 10.2465 9.09474 10.247Z" fill="url(#paint0_linear_555_7038)"/>
</g>
<defs>
<linearGradient id="paint0_linear_555_7038" x1="15.495" y1="31.6073" x2="-0.996243" y2="30.2474" gradientUnits="userSpaceOnUse">
<stop stop-color="#A92902"/>
<stop offset="0.494792" stop-color="#E25704"/>
<stop offset="1" stop-color="#F49004"/>
</linearGradient>
<clipPath id="clip0_555_7038">
<rect width="18.1901" height="18.1901" fill="white" transform="translate(0 0.299255)"/>
</clipPath>
</defs>
</svg>
