<svg width="19" height="20" viewBox="0 0 19 20" fill="none" xmlns="http://www.w3.org/2000/svg">
<path d="M9.0946 2.2041C4.79584 2.2041 1.29883 5.70111 1.29883 9.99988C1.29883 14.2986 4.79584 17.7957 9.0946 17.7957C13.3934 17.7957 16.8904 14.2986 16.8904 9.99988C16.8904 5.70111 13.3934 2.2041 9.0946 2.2041ZM12.8022 14.0322C12.6755 14.1589 12.5092 14.2226 12.3429 14.2226C12.1766 14.2226 12.0102 14.1589 11.8836 14.0322L8.63532 10.784C8.51315 10.6626 8.44499 10.4975 8.44499 10.3247V6.10199C8.44499 5.74275 8.73596 5.45238 9.0946 5.45238C9.45325 5.45238 9.74421 5.74275 9.74421 6.10199V10.0558L12.8022 13.1136C13.0561 13.3677 13.0561 13.7782 12.8022 14.0322Z" fill="black"/>
<path d="M9.0946 2.2041C4.79584 2.2041 1.29883 5.70111 1.29883 9.99988C1.29883 14.2986 4.79584 17.7957 9.0946 17.7957C13.3934 17.7957 16.8904 14.2986 16.8904 9.99988C16.8904 5.70111 13.3934 2.2041 9.0946 2.2041ZM12.8022 14.0322C12.6755 14.1589 12.5092 14.2226 12.3429 14.2226C12.1766 14.2226 12.0102 14.1589 11.8836 14.0322L8.63532 10.784C8.51315 10.6626 8.44499 10.4975 8.44499 10.3247V6.10199C8.44499 5.74275 8.73596 5.45238 9.0946 5.45238C9.45325 5.45238 9.74421 5.74275 9.74421 6.10199V10.0558L12.8022 13.1136C13.0561 13.3677 13.0561 13.7782 12.8022 14.0322Z" fill="url(#paint0_linear_555_7032)"/>
<defs>
<linearGradient id="paint0_linear_555_7032" x1="16.4092" y1="29.0396" x2="-2.33945" y2="26.9781" gradientUnits="userSpaceOnUse">
<stop stop-color="#A92902"/>
<stop offset="0.494792" stop-color="#E25704"/>
<stop offset="1" stop-color="#F49004"/>
</linearGradient>
</defs>
</svg>
