<svg width="242" height="60" viewBox="0 0 242 60" fill="none" xmlns="http://www.w3.org/2000/svg">
<g clip-path="url(#clip0_1191_1104)">
<path d="M68.7541 39.0691H66.0334L58.6353 19.2711H62.3508L64.8077 26.3505C65.4288 28.1807 65.9674 29.7967 66.4181 31.1928C66.8688 32.5888 67.2096 33.6551 67.4404 34.3971C67.6548 33.6551 67.9791 32.6108 68.4188 31.2532C68.8585 29.9011 69.4082 28.2852 70.0732 26.4109L72.618 19.2766H76.1577L68.7596 39.0746L68.7541 39.0691Z" fill="#8D181B"/>
<path d="M75.9929 28.6864C76.3556 27.6915 76.8503 26.8561 77.4824 26.1855C78.1145 25.515 78.862 25.0038 79.7194 24.663C80.5768 24.3222 81.5057 24.1519 82.4951 24.1519C83.3745 24.1519 84.1165 24.2618 84.7321 24.4706C85.3477 24.685 85.8479 24.9763 86.2381 25.3501C86.6284 25.7183 86.9142 26.158 87.101 26.6637C87.2879 27.1694 87.3814 27.719 87.3814 28.3016C87.3814 29.0052 87.189 29.6702 86.7987 30.3023C86.4085 30.9344 85.8479 31.4895 85.1169 31.9677C84.3858 32.4459 83.5009 32.8251 82.4676 33.111C81.4343 33.3913 80.2746 33.5452 78.9884 33.5617C79.0489 34.0124 79.1368 34.4356 79.2687 34.8313C79.3951 35.2326 79.582 35.5843 79.8238 35.8866C80.0657 36.1889 80.3845 36.4253 80.7747 36.6012C81.165 36.777 81.6541 36.865 82.2368 36.865C82.6655 36.865 83.1217 36.8155 83.6108 36.7166C84.1 36.6176 84.5452 36.5022 84.9575 36.3648C85.4466 36.2109 85.9248 36.035 86.392 35.8372L87.2714 37.9148C86.7658 38.1676 86.2161 38.393 85.6335 38.5853C85.1278 38.7612 84.5397 38.9151 83.8802 39.0525C83.2151 39.1899 82.5171 39.2559 81.7751 39.2559C80.6428 39.2559 79.6809 39.0855 78.8785 38.7447C78.076 38.404 77.4274 37.9203 76.9218 37.2992C76.4161 36.6781 76.0423 35.9251 75.8115 35.0457C75.5751 34.1663 75.4597 33.1934 75.4597 32.1216C75.4597 30.8135 75.6411 29.6647 75.9984 28.6699L75.9929 28.6864ZM80.6428 26.8891C80.2251 27.1914 79.8843 27.5816 79.6315 28.0598C79.3786 28.538 79.1973 29.0711 79.0928 29.6702C78.9829 30.2638 78.9224 30.8629 78.9005 31.4675C79.8348 31.4291 80.6318 31.3081 81.2859 31.0993C81.9399 30.8959 82.4676 30.6431 82.8798 30.3408C83.2866 30.0385 83.5889 29.7142 83.7702 29.3624C83.9571 29.0107 84.0506 28.6589 84.0506 28.3071C84.0506 27.741 83.8857 27.2903 83.5559 26.9495C83.2261 26.6087 82.7864 26.4383 82.2423 26.4383C81.5992 26.4383 81.066 26.5922 80.6483 26.8891H80.6428Z" fill="#8D181B"/>
<path d="M100.721 39.2999C100.682 39.2779 100.595 39.19 100.457 39.0196C100.32 38.8547 100.171 38.6238 100.006 38.3325C99.8415 38.0412 99.6821 37.673 99.5227 37.2332C99.3688 36.7935 99.2699 36.2824 99.2314 35.6998C98.9016 36.8705 98.3685 37.7499 97.6375 38.3435C96.9064 38.9371 95.9171 39.2339 94.6694 39.2339C93.7515 39.2339 92.96 39.0635 92.284 38.7228C91.6079 38.382 91.0528 37.8928 90.6021 37.2607C90.1514 36.6286 89.8216 35.8647 89.6072 34.9632C89.3929 34.0673 89.283 33.0725 89.283 31.9787C89.283 30.8849 89.4533 29.8406 89.7941 28.8952C90.1349 27.9499 90.6131 27.1364 91.2287 26.4549C91.8443 25.7733 92.5808 25.2347 93.4382 24.8444C94.2957 24.4542 95.241 24.2618 96.2744 24.2618C96.6261 24.2618 96.9999 24.2838 97.4011 24.3223C97.8023 24.3607 98.1926 24.4102 98.5883 24.4707V17.864L101.925 18.4466V32.0172C101.925 33.1879 101.991 34.1553 102.128 34.9248C102.265 35.6943 102.419 36.3209 102.595 36.799C102.771 37.2772 102.93 37.6235 103.079 37.8379C103.227 38.0522 103.31 38.1896 103.326 38.2501L100.721 39.3054V39.2999ZM96.5657 36.3758C96.9724 36.046 97.3297 35.6118 97.632 35.0732C97.9343 34.5345 98.1706 33.9299 98.3355 33.2429C98.5004 32.5613 98.5828 31.8578 98.5828 31.1378V26.9275C98.385 26.8671 98.0936 26.8011 97.7034 26.7242C97.3132 26.6472 96.9614 26.6088 96.6481 26.6088C95.9061 26.6088 95.296 26.7352 94.8178 26.988C94.3396 27.2408 93.9549 27.5926 93.6636 28.0433C93.3723 28.494 93.1689 29.0272 93.048 29.6537C92.9325 30.2803 92.8721 30.9619 92.8721 31.6984C92.8721 32.3799 92.8886 33.034 92.9326 33.6551C92.971 34.2817 93.0755 34.8313 93.2403 35.3095C93.4052 35.7877 93.6471 36.167 93.9549 36.4473C94.2682 36.7276 94.6859 36.8705 95.2135 36.8705C95.7027 36.8705 96.1479 36.7056 96.5602 36.3758H96.5657Z" fill="#8D181B"/>
<path d="M117.595 32.0226C117.595 33.1933 117.666 34.1717 117.815 34.9632C117.963 35.7546 118.123 36.3922 118.298 36.8759C118.513 37.4585 118.749 37.9202 119.002 38.25L116.397 39.3053C116.144 39.0525 115.908 38.7502 115.693 38.3984C115.517 38.0851 115.352 37.7114 115.198 37.2716C115.045 36.8319 114.946 36.3098 114.907 35.7052C114.577 36.8759 114.044 37.7553 113.313 38.3489C112.582 38.9425 111.593 39.2393 110.345 39.2393C109.427 39.2393 108.636 39.069 107.96 38.7282C107.284 38.3874 106.729 37.8982 106.278 37.2661C105.827 36.6341 105.497 35.8701 105.283 34.9687C105.069 34.0728 104.959 33.0779 104.959 31.9841C104.959 30.8903 105.129 29.846 105.47 28.9007C105.811 27.9553 106.289 27.1418 106.904 26.4603C107.52 25.7787 108.257 25.2401 109.114 24.8498C109.971 24.4596 110.917 24.2672 111.95 24.2672C112.533 24.2672 113.143 24.3112 113.78 24.3991C114.413 24.4871 115.006 24.5805 115.55 24.6794C116.094 24.7784 116.562 24.8718 116.941 24.9598C117.32 25.0477 117.54 25.1027 117.6 25.1191V32.0226H117.595ZM112.241 36.4087C112.648 36.0789 113.005 35.6447 113.308 35.1061C113.61 34.5674 113.846 33.9573 114.011 33.2648C114.176 32.5722 114.259 31.8687 114.259 31.1432V26.933C114.061 26.8725 113.769 26.8065 113.379 26.7296C112.989 26.6526 112.637 26.6142 112.324 26.6142C111.582 26.6142 110.972 26.7406 110.494 26.9934C110.015 27.2462 109.631 27.598 109.339 28.0487C109.048 28.4994 108.845 29.0326 108.724 29.6592C108.608 30.2857 108.548 30.9673 108.548 31.7038C108.548 32.3854 108.564 33.0394 108.608 33.6605C108.647 34.2871 108.751 34.8422 108.916 35.3259C109.081 35.8151 109.323 36.1998 109.631 36.4802C109.944 36.7605 110.362 36.9034 110.889 36.9034C111.379 36.9034 111.824 36.7385 112.236 36.4087H112.241Z" fill="#8D181B"/>
<path d="M134.82 19.0072C135.502 19.0072 136.156 19.0732 136.777 19.1996C137.398 19.326 137.97 19.4744 138.487 19.6393C139.003 19.8042 139.443 19.9746 139.8 20.1504C140.163 20.3263 140.41 20.4637 140.548 20.5627L139.113 23.08L138.734 22.8767C138.481 22.7392 138.151 22.5853 137.739 22.4095C137.332 22.2336 136.882 22.0797 136.392 21.9423C135.903 21.8049 135.436 21.7389 134.991 21.7389C134.287 21.7389 133.683 21.9038 133.166 22.2336C132.649 22.5634 132.391 23.08 132.391 23.7836C132.391 24.663 132.671 25.3775 133.237 25.9326C133.804 26.4878 134.689 26.9989 135.898 27.4661C136.678 27.7794 137.376 28.1037 137.986 28.4445C138.602 28.7853 139.124 29.181 139.553 29.6317C139.982 30.0824 140.311 30.5991 140.531 31.1817C140.757 31.7643 140.866 32.4678 140.866 33.2868C140.866 34.0288 140.724 34.7598 140.443 35.4798C140.163 36.1999 139.74 36.8374 139.185 37.3926C138.629 37.9477 137.942 38.3984 137.123 38.7392C136.304 39.08 135.359 39.2504 134.287 39.2504C133.529 39.2504 132.803 39.1734 132.122 39.014C131.44 38.8546 130.819 38.6787 130.264 38.4754C129.709 38.272 129.231 38.0631 128.829 37.8488C128.428 37.6344 128.131 37.4695 127.939 37.3541L129.165 34.6609L129.692 34.9522C130.044 35.1446 130.473 35.3589 130.978 35.5953C131.484 35.8316 132.023 36.046 132.589 36.2383C133.155 36.4307 133.644 36.5297 134.051 36.5297C135.084 36.5297 135.854 36.2768 136.359 35.7712C136.865 35.2655 137.118 34.551 137.118 33.6386C137.118 33.2098 137.052 32.8361 136.915 32.5118C136.777 32.1875 136.585 31.9127 136.332 31.6764C136.079 31.44 135.771 31.2311 135.409 31.0498C135.046 30.8629 134.645 30.6815 134.194 30.5111C133.314 30.1429 132.528 29.7691 131.841 29.4009C131.149 29.0326 130.561 28.6094 130.072 28.1312C129.582 27.653 129.214 27.1089 128.961 26.4933C128.708 25.8777 128.582 25.1412 128.582 24.2837C128.582 23.5637 128.736 22.8876 129.049 22.2501C129.363 21.618 129.791 21.0628 130.335 20.5847C130.88 20.1065 131.534 19.7272 132.292 19.4414C133.051 19.1611 133.892 19.0182 134.809 19.0182L134.82 19.0072Z" fill="#8D181B"/>
<path d="M155.553 32.0226C155.553 33.1933 155.624 34.1717 155.773 34.9632C155.921 35.7546 156.08 36.3922 156.256 36.8759C156.471 37.4585 156.702 37.9202 156.96 38.25L154.355 39.3053C154.102 39.0525 153.865 38.7502 153.651 38.3984C153.475 38.0851 153.31 37.7114 153.156 37.2716C153.002 36.8319 152.904 36.3098 152.865 35.7052C152.535 36.8759 152.002 37.7553 151.271 38.3489C150.54 38.9425 149.551 39.2393 148.303 39.2393C147.385 39.2393 146.594 39.069 145.918 38.7282C145.247 38.3874 144.686 37.8982 144.236 37.2661C143.785 36.6341 143.455 35.8701 143.241 34.9687C143.027 34.0728 142.922 33.0779 142.922 31.9841C142.922 30.8903 143.093 29.846 143.433 28.9007C143.774 27.9553 144.252 27.1418 144.868 26.4603C145.483 25.7787 146.22 25.2401 147.077 24.8498C147.935 24.4596 148.88 24.2672 149.914 24.2672C150.496 24.2672 151.106 24.3112 151.744 24.3991C152.376 24.4871 152.964 24.5805 153.514 24.6794C154.058 24.7784 154.525 24.8718 154.904 24.9598C155.283 25.0477 155.503 25.1027 155.564 25.1191V32.0226H155.553ZM150.199 36.4087C150.606 36.0789 150.963 35.6447 151.266 35.1061C151.568 34.5674 151.799 33.9573 151.969 33.2648C152.134 32.5722 152.216 31.8687 152.216 31.1432V26.933C152.019 26.8725 151.727 26.8065 151.337 26.7296C150.947 26.6526 150.595 26.6142 150.282 26.6142C149.54 26.6142 148.93 26.7406 148.451 26.9934C147.973 27.2462 147.589 27.598 147.297 28.0487C147.006 28.4994 146.803 29.0326 146.682 29.6592C146.566 30.2857 146.506 30.9673 146.506 31.7038C146.506 32.3854 146.528 33.0394 146.566 33.6605C146.605 34.2871 146.709 34.8422 146.874 35.3259C147.039 35.8151 147.281 36.1998 147.589 36.4802C147.902 36.7605 148.32 36.9034 148.847 36.9034C149.336 36.9034 149.782 36.7385 150.194 36.4087H150.199Z" fill="#8D181B"/>
<path d="M167.953 39.069V29.6207C167.953 28.8017 167.804 28.1422 167.513 27.6475C167.222 27.1528 166.721 26.9 166.023 26.9C165.573 26.9 165.144 27.0099 164.721 27.2353C164.303 27.4606 163.924 27.7849 163.594 28.2136C163.264 28.6423 162.995 29.1645 162.792 29.7801C162.588 30.3957 162.484 31.0827 162.484 31.8412V39.0635H159.147V31.6928C159.147 30.5221 159.07 29.5437 158.911 28.7523C158.757 27.9608 158.587 27.3232 158.416 26.8395C158.202 26.2734 157.966 25.8172 157.713 25.4654L160.346 24.4101C160.538 24.6245 160.736 24.8883 160.928 25.2016C161.082 25.4764 161.242 25.8117 161.395 26.2129C161.549 26.6142 161.676 27.0649 161.775 27.5705C162.28 26.3998 163.011 25.5589 163.968 25.0422C164.924 24.5255 165.924 24.2672 166.98 24.2672C168.48 24.2672 169.569 24.7179 170.239 25.6248C170.91 26.5317 171.25 27.7574 171.25 29.2964V39.0635H167.947L167.953 39.069Z" fill="#8D181B"/>
<path d="M178.275 17.864V26.1965C178.429 26.0042 178.632 25.7898 178.874 25.5699C179.116 25.3446 179.424 25.1357 179.797 24.9433C180.166 24.751 180.594 24.5806 181.084 24.4487C181.573 24.3113 182.139 24.2453 182.782 24.2453C183.387 24.2453 183.953 24.3333 184.48 24.5091C185.008 24.685 185.459 24.9379 185.838 25.2676C186.217 25.5974 186.519 26.0041 186.745 26.4823C186.97 26.9605 187.08 27.4992 187.08 28.1038C187.08 28.9832 186.899 29.7032 186.541 30.2693C186.179 30.8355 185.777 31.2807 185.327 31.6159C184.821 32.0062 184.233 32.3195 183.573 32.5503L187.668 39.0745H183.898L179.687 31.7918L179.66 31.5005C179.814 31.4621 180.116 31.3741 180.55 31.2367C180.99 31.0993 181.441 30.9069 181.908 30.6541C182.375 30.4013 182.787 30.0825 183.15 29.7032C183.513 29.324 183.689 28.8678 183.689 28.3456C183.689 27.7795 183.524 27.3508 183.194 27.0595C182.864 26.7681 182.425 26.6197 181.881 26.6197C181.139 26.6197 180.534 26.7681 180.067 27.0595C179.6 27.3508 179.231 27.686 178.967 28.0543C178.704 28.4226 178.522 28.7743 178.429 29.1096C178.33 29.4394 178.28 29.6373 178.28 29.6922V39.08H174.944V18.4521L178.28 17.8695L178.275 17.864Z" fill="#8D181B"/>
<path d="M201.173 32.0226C201.173 33.1933 201.244 34.1717 201.393 34.9632C201.541 35.7546 201.701 36.3922 201.876 36.8759C202.091 37.4585 202.327 37.9202 202.58 38.25L199.975 39.3053C199.722 39.0525 199.486 38.7502 199.271 38.3984C199.095 38.0851 198.93 37.7114 198.776 37.2716C198.623 36.8319 198.524 36.3098 198.485 35.7052C198.155 36.8759 197.622 37.7553 196.891 38.3489C196.16 38.9425 195.171 39.2393 193.923 39.2393C193.005 39.2393 192.214 39.069 191.538 38.7282C190.867 38.3874 190.307 37.8982 189.856 37.2661C189.405 36.6341 189.075 35.8701 188.861 34.9687C188.647 34.0728 188.542 33.0779 188.542 31.9841C188.542 30.8903 188.713 29.846 189.053 28.9007C189.394 27.9553 189.872 27.1418 190.488 26.4603C191.104 25.7787 191.84 25.2401 192.697 24.8498C193.555 24.4596 194.5 24.2672 195.534 24.2672C196.116 24.2672 196.726 24.3112 197.364 24.3991C197.996 24.4871 198.59 24.5805 199.134 24.6794C199.678 24.7784 200.145 24.8718 200.524 24.9598C200.904 25.0477 201.123 25.1027 201.184 25.1191V32.0226H201.173ZM195.819 36.4087C196.232 36.0789 196.583 35.6447 196.886 35.1061C197.188 34.5674 197.424 33.9573 197.589 33.2648C197.754 32.5722 197.837 31.8687 197.837 31.1432V26.933C197.639 26.8725 197.347 26.8065 196.957 26.7296C196.567 26.6526 196.215 26.6142 195.902 26.6142C195.16 26.6142 194.55 26.7406 194.072 26.9934C193.593 27.2462 193.209 27.598 192.917 28.0487C192.626 28.4994 192.423 29.0326 192.302 29.6592C192.186 30.2857 192.126 30.9673 192.126 31.7038C192.126 32.3854 192.148 33.0394 192.186 33.6605C192.225 34.2871 192.329 34.8422 192.494 35.3259C192.659 35.8151 192.901 36.1998 193.209 36.4802C193.522 36.7605 193.94 36.9034 194.467 36.9034C194.957 36.9034 195.402 36.7385 195.814 36.4087H195.819Z" fill="#8D181B"/>
<path d="M205.735 38.2666C205.207 37.651 204.943 36.8705 204.943 35.9141V18.4576L208.28 17.842V35.5953C208.28 36.046 208.368 36.3538 208.543 36.5297C208.719 36.7056 208.972 36.7936 209.302 36.7936C209.494 36.7936 209.687 36.7826 209.874 36.7661C210.06 36.7441 210.231 36.7166 210.385 36.6781C210.561 36.6397 210.715 36.6012 210.852 36.5627L211.264 38.6678C211.011 38.7667 210.726 38.8547 210.418 38.9316C210.143 39.0086 209.824 39.0745 209.456 39.124C209.088 39.1735 208.664 39.1955 208.197 39.1955C207.087 39.1955 206.268 38.8877 205.74 38.2721L205.735 38.2666Z" fill="#8D181B"/>
<path d="M213.281 45.5327V31.6983C213.281 30.5276 213.204 29.5492 213.045 28.7577C212.891 27.9663 212.726 27.3287 212.55 26.845C212.336 26.2789 212.1 25.8227 211.847 25.4709L214.479 24.4156C214.71 24.652 214.93 24.9433 215.123 25.295C215.276 25.5863 215.436 25.9436 215.59 26.3613C215.744 26.7791 215.865 27.2737 215.941 27.8399C216.271 26.6691 216.799 25.7842 217.519 25.1796C218.239 24.575 219.245 24.2727 220.531 24.2727C221.449 24.2727 222.24 24.4431 222.916 24.7839C223.587 25.1246 224.142 25.6138 224.582 26.2459C225.022 26.878 225.346 27.6475 225.56 28.5434C225.775 29.4393 225.879 30.4341 225.879 31.5279C225.879 32.6217 225.714 33.666 225.384 34.6114C225.054 35.5568 224.582 36.3702 223.966 37.0518C223.351 37.7333 222.614 38.272 221.757 38.6622C220.899 39.0525 219.943 39.2448 218.893 39.2448C218.525 39.2448 218.146 39.2228 217.766 39.1844C217.387 39.1459 217.002 39.1074 216.612 39.069V44.9446L213.276 45.5272L213.281 45.5327ZM218.635 27.1088C218.228 27.4386 217.871 27.8783 217.568 28.4225C217.266 28.9666 217.03 29.5822 216.865 30.2638C216.7 30.9453 216.618 31.6488 216.618 32.3689V36.5791C216.81 36.6396 217.107 36.7055 217.497 36.7825C217.887 36.8594 218.228 36.8979 218.519 36.8979C219.261 36.8979 219.877 36.7715 220.361 36.5186C220.85 36.2658 221.24 35.914 221.531 35.4633C221.823 35.0126 222.026 34.4795 222.147 33.8529C222.262 33.2318 222.323 32.5448 222.323 31.8082C222.323 31.1267 222.301 30.4726 222.262 29.8515C222.224 29.2304 222.119 28.6698 221.955 28.1861C221.79 27.6969 221.548 27.3122 221.24 27.0319C220.927 26.7516 220.509 26.6087 219.981 26.6087C219.492 26.6087 219.047 26.7736 218.635 27.1033V27.1088Z" fill="#8D181B"/>
<path d="M240.593 32.0226C240.593 33.1933 240.664 34.1717 240.813 34.9632C240.961 35.7546 241.12 36.3922 241.296 36.8759C241.511 37.4585 241.747 37.9202 242 38.25L239.395 39.3053C239.142 39.0525 238.905 38.7502 238.691 38.3984C238.515 38.0851 238.35 37.7114 238.196 37.2716C238.043 36.8319 237.944 36.3098 237.905 35.7052C237.575 36.8759 237.042 37.7553 236.311 38.3489C235.58 38.9425 234.591 39.2393 233.343 39.2393C232.425 39.2393 231.634 39.069 230.958 38.7282C230.287 38.3874 229.727 37.8982 229.276 37.2661C228.825 36.6341 228.495 35.8701 228.281 34.9687C228.067 34.0728 227.962 33.0779 227.962 31.9841C227.962 30.8903 228.133 29.846 228.473 28.9007C228.814 27.9553 229.292 27.1418 229.908 26.4603C230.523 25.7787 231.26 25.2401 232.117 24.8498C232.975 24.4596 233.92 24.2672 234.954 24.2672C235.536 24.2672 236.146 24.3112 236.784 24.3991C237.416 24.4871 238.01 24.5805 238.554 24.6794C239.098 24.7784 239.565 24.8718 239.944 24.9598C240.324 25.0477 240.543 25.1027 240.604 25.1191V32.0226H240.593ZM235.239 36.4087C235.652 36.0789 236.003 35.6447 236.306 35.1061C236.608 34.5674 236.844 33.9573 237.009 33.2648C237.174 32.5722 237.257 31.8687 237.257 31.1432V26.933C237.059 26.8725 236.767 26.8065 236.377 26.7296C235.987 26.6526 235.635 26.6142 235.322 26.6142C234.58 26.6142 233.97 26.7406 233.492 26.9934C233.013 27.2462 232.629 27.598 232.337 28.0487C232.046 28.4994 231.843 29.0326 231.722 29.6592C231.606 30.2857 231.546 30.9673 231.546 31.7038C231.546 32.3854 231.568 33.0394 231.606 33.6605C231.645 34.2871 231.749 34.8422 231.914 35.3259C232.079 35.8151 232.321 36.1998 232.629 36.4802C232.942 36.7605 233.36 36.9034 233.887 36.9034C234.376 36.9034 234.822 36.7385 235.234 36.4087H235.239Z" fill="#8D181B"/>
<g opacity="0.21">
<mask id="mask0_1191_1104" style="mask-type:luminance" maskUnits="userSpaceOnUse" x="0" y="0" width="60" height="60">
<path d="M29.9553 59.9553C46.4991 59.9553 59.9105 46.5439 59.9105 30.0001C59.9105 13.4562 46.4991 0.0447998 29.9553 0.0447998C13.4114 0.0447998 0 13.4562 0 30.0001C0 46.5439 13.4114 59.9553 29.9553 59.9553Z" fill="white"/>
</mask>
<g mask="url(#mask0_1191_1104)">
<path d="M59.9105 0.0447998H0V59.9553H59.9105V0.0447998Z" fill="white"/>
<path d="M29.9553 59.9553C46.4991 59.9553 59.9105 46.5439 59.9105 30.0001C59.9105 13.4562 46.4991 0.0447998 29.9553 0.0447998C13.4114 0.0447998 0 13.4562 0 30.0001C0 46.5439 13.4114 59.9553 29.9553 59.9553Z" fill="white"/>
<path d="M29.9553 59.8288C46.4293 59.8288 59.7841 46.474 59.7841 30C59.7841 13.526 46.4293 0.171143 29.9553 0.171143C13.4813 0.171143 0.126465 13.526 0.126465 30C0.126465 46.474 13.4813 59.8288 29.9553 59.8288Z" fill="#FFFEFD"/>
<path d="M29.9554 59.7025C46.3596 59.7025 59.6578 46.4042 59.6578 30C59.6578 13.5958 46.3596 0.297607 29.9554 0.297607C13.5512 0.297607 0.25293 13.5958 0.25293 30C0.25293 46.4042 13.5512 59.7025 29.9554 59.7025Z" fill="#FFFDFB"/>
<path d="M29.9553 59.5705C46.2866 59.5705 59.5258 46.3313 59.5258 30C59.5258 13.6686 46.2866 0.429443 29.9553 0.429443C13.6239 0.429443 0.384766 13.6686 0.384766 30C0.384766 46.3313 13.6239 59.5705 29.9553 59.5705Z" fill="#FFFCF9"/>
<path d="M29.9553 59.4441C46.2168 59.4441 59.3994 46.2615 59.3994 30C59.3994 13.7385 46.2168 0.555908 29.9553 0.555908C13.6938 0.555908 0.51123 13.7385 0.51123 30C0.51123 46.2615 13.6938 59.4441 29.9553 59.4441Z" fill="#FFFCF8"/>
<path d="M29.9551 59.3177C46.1468 59.3177 59.2728 46.1918 59.2728 30C59.2728 13.8083 46.1468 0.682373 29.9551 0.682373C13.7634 0.682373 0.637451 13.8083 0.637451 30C0.637451 46.1918 13.7634 59.3177 29.9551 59.3177Z" fill="#FFFBF7"/>
<path d="M29.9552 59.1912C46.0771 59.1912 59.1464 46.1219 59.1464 30C59.1464 13.8781 46.0771 0.808716 29.9552 0.808716C13.8333 0.808716 0.763916 13.8781 0.763916 30C0.763916 46.1219 13.8333 59.1912 29.9552 59.1912Z" fill="#FFFAF5"/>
<path d="M29.9552 59.0649C46.0073 59.0649 59.0201 46.0521 59.0201 30C59.0201 13.948 46.0073 0.935181 29.9552 0.935181C13.9032 0.935181 0.890381 13.948 0.890381 30C0.890381 46.0521 13.9032 59.0649 29.9552 59.0649Z" fill="#FFFAF4"/>
<path d="M29.9551 58.9329C45.9344 58.9329 58.8881 45.9792 58.8881 29.9999C58.8881 14.0207 45.9344 1.06702 29.9551 1.06702C13.9759 1.06702 1.02222 14.0207 1.02222 29.9999C1.02222 45.9792 13.9759 58.9329 29.9551 58.9329Z" fill="#FFF9F3"/>
<path d="M29.9552 58.8065C45.8646 58.8065 58.7617 45.9094 58.7617 30C58.7617 14.0906 45.8646 1.19348 29.9552 1.19348C14.0458 1.19348 1.14868 14.0906 1.14868 30C1.14868 45.9094 14.0458 58.8065 29.9552 58.8065Z" fill="#FFF9F2"/>
<path d="M29.9552 58.68C45.7948 58.68 58.6353 45.8395 58.6353 29.9999C58.6353 14.1603 45.7948 1.31982 29.9552 1.31982C14.1157 1.31982 1.27515 14.1603 1.27515 29.9999C1.27515 45.8395 14.1157 58.68 29.9552 58.68Z" fill="#FFF8F1"/>
<path d="M29.9553 58.5536C45.7251 58.5536 58.509 45.7697 58.509 30C58.509 14.2302 45.7251 1.44629 29.9553 1.44629C14.1855 1.44629 1.40161 14.2302 1.40161 30C1.40161 45.7697 14.1855 58.5536 29.9553 58.5536Z" fill="#FFF7F0"/>
<path d="M29.9553 58.4273C45.6553 58.4273 58.3826 45.7 58.3826 30C58.3826 14.3001 45.6553 1.57275 29.9553 1.57275C14.2554 1.57275 1.52808 14.3001 1.52808 30C1.52808 45.7 14.2554 58.4273 29.9553 58.4273Z" fill="#FFF7EF"/>
<path d="M29.9553 58.2954C45.5824 58.2954 58.2506 45.6272 58.2506 30.0001C58.2506 14.373 45.5824 1.70471 29.9553 1.70471C14.3282 1.70471 1.65991 14.373 1.65991 30.0001C1.65991 45.6272 14.3282 58.2954 29.9553 58.2954Z" fill="#FFF6EE"/>
<path d="M29.9553 58.1689C45.5126 58.1689 58.1242 45.5573 58.1242 30C58.1242 14.4427 45.5126 1.83105 29.9553 1.83105C14.398 1.83105 1.78638 14.4427 1.78638 30C1.78638 45.5573 14.398 58.1689 29.9553 58.1689Z" fill="#FFF6ED"/>
<path d="M29.9554 58.0425C45.4428 58.0425 57.9979 45.4875 57.9979 30C57.9979 14.5126 45.4428 1.95752 29.9554 1.95752C14.4679 1.95752 1.91284 14.5126 1.91284 30C1.91284 45.4875 14.4679 58.0425 29.9554 58.0425Z" fill="#FFF5EC"/>
<path d="M29.9552 57.9161C45.3728 57.9161 57.8713 45.4176 57.8713 30C57.8713 14.5823 45.3728 2.08386 29.9552 2.08386C14.5375 2.08386 2.03906 14.5823 2.03906 30C2.03906 45.4176 14.5375 57.9161 29.9552 57.9161Z" fill="#FFF5EB"/>
<path d="M29.9552 57.7897C45.303 57.7897 57.7449 45.3478 57.7449 30C57.7449 14.6522 45.303 2.21033 29.9552 2.21033C14.6074 2.21033 2.16553 14.6522 2.16553 30C2.16553 45.3478 14.6074 57.7897 29.9552 57.7897Z" fill="#FFF5EA"/>
<path d="M29.9551 57.6578C45.2301 57.6578 57.6129 45.275 57.6129 30.0001C57.6129 14.7251 45.2301 2.34229 29.9551 2.34229C14.6802 2.34229 2.29736 14.7251 2.29736 30.0001C2.29736 45.275 14.6802 57.6578 29.9551 57.6578Z" fill="#FFF4E9"/>
<path d="M29.9552 57.5313C45.1603 57.5313 57.4865 45.2051 57.4865 30C57.4865 14.7948 45.1603 2.46863 29.9552 2.46863C14.75 2.46863 2.42383 14.7948 2.42383 30C2.42383 45.2051 14.75 57.5313 29.9552 57.5313Z" fill="#FFF4E8"/>
<path d="M29.9552 57.405C45.0906 57.405 57.3602 45.1354 57.3602 30C57.3602 14.8647 45.0906 2.59509 29.9552 2.59509C14.8199 2.59509 2.55029 14.8647 2.55029 30C2.55029 45.1354 14.8199 57.405 29.9552 57.405Z" fill="#FFF3E7"/>
<path d="M29.9553 57.2785C45.0208 57.2785 57.2338 45.0655 57.2338 30C57.2338 14.9344 45.0208 2.72144 29.9553 2.72144C14.8898 2.72144 2.67676 14.9344 2.67676 30C2.67676 45.0655 14.8898 57.2785 29.9553 57.2785Z" fill="#FFF3E6"/>
<path d="M29.9553 57.1521C44.951 57.1521 57.1074 44.9957 57.1074 30C57.1074 15.0043 44.951 2.8479 29.9553 2.8479C14.9596 2.8479 2.80322 15.0043 2.80322 30C2.80322 44.9957 14.9596 57.1521 29.9553 57.1521Z" fill="#FFF2E5"/>
<path d="M29.9554 57.0256C44.8812 57.0256 56.9811 44.9258 56.9811 29.9999C56.9811 15.0741 44.8812 2.97424 29.9554 2.97424C15.0295 2.97424 2.92969 15.0741 2.92969 29.9999C2.92969 44.9258 15.0295 57.0256 29.9554 57.0256Z" fill="#FFF2E4"/>
<path d="M29.9553 56.8937C44.8083 56.8937 56.8491 44.853 56.8491 30C56.8491 15.147 44.8083 3.1062 29.9553 3.1062C15.1023 3.1062 3.06152 15.147 3.06152 30C3.06152 44.853 15.1023 56.8937 29.9553 56.8937Z" fill="#FFF1E3"/>
<path d="M29.9553 56.7674C44.7385 56.7674 56.7227 44.7832 56.7227 30C56.7227 15.2168 44.7385 3.23267 29.9553 3.23267C15.1721 3.23267 3.18799 15.2168 3.18799 30C3.18799 44.7832 15.1721 56.7674 29.9553 56.7674Z" fill="#FFF1E2"/>
<path d="M29.9554 56.641C44.6688 56.641 56.5963 44.7135 56.5963 30.0001C56.5963 15.2867 44.6688 3.35913 29.9554 3.35913C15.242 3.35913 3.31445 15.2867 3.31445 30.0001C3.31445 44.7135 15.242 56.641 29.9554 56.641Z" fill="#FFF0E1"/>
<path d="M29.9552 56.5145C44.5988 56.5145 56.4697 44.6436 56.4697 30C56.4697 15.3564 44.5988 3.48547 29.9552 3.48547C15.3116 3.48547 3.44067 15.3564 3.44067 30C3.44067 44.6436 15.3116 56.5145 29.9552 56.5145Z" fill="#FFF0E0"/>
<path d="M29.9552 56.3882C44.529 56.3882 56.3434 44.5738 56.3434 30C56.3434 15.4263 44.529 3.61194 29.9552 3.61194C15.3815 3.61194 3.56714 15.4263 3.56714 30C3.56714 44.5738 15.3815 56.3882 29.9552 56.3882Z" fill="#FFF0DF"/>
<path d="M29.9552 56.2562C44.4561 56.2562 56.2114 44.5009 56.2114 30C56.2114 15.4991 44.4561 3.74377 29.9552 3.74377C15.4543 3.74377 3.69897 15.4991 3.69897 30C3.69897 44.5009 15.4543 56.2562 29.9552 56.2562Z" fill="#FFEFDE"/>
<path d="M29.9552 56.1298C44.3863 56.1298 56.085 44.4311 56.085 30C56.085 15.5689 44.3863 3.87024 29.9552 3.87024C15.5241 3.87024 3.82544 15.5689 3.82544 30C3.82544 44.4311 15.5241 56.1298 29.9552 56.1298Z" fill="#FFEFDD"/>
<path d="M29.9553 56.0033C44.3165 56.0033 55.9586 44.3612 55.9586 29.9999C55.9586 15.6387 44.3165 3.99658 29.9553 3.99658C15.594 3.99658 3.9519 15.6387 3.9519 29.9999C3.9519 44.3612 15.594 56.0033 29.9553 56.0033Z" fill="#FFEEDC"/>
<path d="M29.9553 55.8769C44.2468 55.8769 55.8323 44.2914 55.8323 30C55.8323 15.7086 44.2468 4.12305 29.9553 4.12305C15.6639 4.12305 4.07837 15.7086 4.07837 30C4.07837 44.2914 15.6639 55.8769 29.9553 55.8769Z" fill="#FFEEDB"/>
<path d="M29.9554 55.7506C44.177 55.7506 55.7059 44.2217 55.7059 30C55.7059 15.7784 44.177 4.24951 29.9554 4.24951C15.7337 4.24951 4.20483 15.7784 4.20483 30C4.20483 44.2217 15.7337 55.7506 29.9554 55.7506Z" fill="#FFEDDB"/>
<path d="M29.9553 55.6186C44.1041 55.6186 55.5739 44.1487 55.5739 30C55.5739 15.8512 44.1041 4.38135 29.9553 4.38135C15.8065 4.38135 4.33667 15.8512 4.33667 30C4.33667 44.1487 15.8065 55.6186 29.9553 55.6186Z" fill="#FFEDDA"/>
<path d="M29.9553 55.4922C44.0343 55.4922 55.4475 44.079 55.4475 30C55.4475 15.9211 44.0343 4.50781 29.9553 4.50781C15.8764 4.50781 4.46313 15.9211 4.46313 30C4.46313 44.079 15.8764 55.4922 29.9553 55.4922Z" fill="#FFECD9"/>
<path d="M29.9551 55.3657C43.9643 55.3657 55.3209 44.0091 55.3209 29.9999C55.3209 15.9908 43.9643 4.63416 29.9551 4.63416C15.946 4.63416 4.58936 15.9908 4.58936 29.9999C4.58936 44.0091 15.946 55.3657 29.9551 55.3657Z" fill="#FFECD8"/>
<path d="M29.9552 55.2393C43.8945 55.2393 55.1945 43.9393 55.1945 30C55.1945 16.0607 43.8945 4.76062 29.9552 4.76062C16.0159 4.76062 4.71582 16.0607 4.71582 30C4.71582 43.9393 16.0159 55.2393 29.9552 55.2393Z" fill="#FFECD7"/>
<path d="M29.9552 55.113C43.8247 55.113 55.0682 43.8695 55.0682 30C55.0682 16.1305 43.8247 4.88708 29.9552 4.88708C16.0857 4.88708 4.84229 16.1305 4.84229 30C4.84229 43.8695 16.0857 55.113 29.9552 55.113Z" fill="#FFEBD6"/>
<path d="M29.9552 54.9811C43.7518 54.9811 54.9362 43.7967 54.9362 30.0001C54.9362 16.2034 43.7518 5.01904 29.9552 5.01904C16.1585 5.01904 4.97412 16.2034 4.97412 30.0001C4.97412 43.7967 16.1585 54.9811 29.9552 54.9811Z" fill="#FFEBD5"/>
<path d="M29.9552 54.8546C43.682 54.8546 54.8098 43.7268 54.8098 30C54.8098 16.2732 43.682 5.14539 29.9552 5.14539C16.2284 5.14539 5.10059 16.2732 5.10059 30C5.10059 43.7268 16.2284 54.8546 29.9552 54.8546Z" fill="#FFEAD4"/>
<path d="M29.9553 54.7283C43.6123 54.7283 54.6835 43.6571 54.6835 30.0001C54.6835 16.343 43.6123 5.27185 29.9553 5.27185C16.2982 5.27185 5.22705 16.343 5.22705 30.0001C5.22705 43.6571 16.2982 54.7283 29.9553 54.7283Z" fill="#FFEAD3"/>
<path d="M29.9553 54.6018C43.5425 54.6018 54.5571 43.5872 54.5571 30C54.5571 16.4128 43.5425 5.39819 29.9553 5.39819C16.3681 5.39819 5.35352 16.4128 5.35352 30C5.35352 43.5872 16.3681 54.6018 29.9553 54.6018Z" fill="#FFE9D2"/>
<path d="M29.9553 54.4754C43.4727 54.4754 54.4307 43.5174 54.4307 30C54.4307 16.4827 43.4727 5.52466 29.9553 5.52466C16.438 5.52466 5.47998 16.4827 5.47998 30C5.47998 43.5174 16.438 54.4754 29.9553 54.4754Z" fill="#FFE9D1"/>
<path d="M29.9552 54.3489C43.4027 54.3489 54.3041 43.4475 54.3041 30C54.3041 16.5524 43.4027 5.651 29.9552 5.651C16.5076 5.651 5.6062 16.5524 5.6062 30C5.6062 43.4475 16.5076 54.3489 29.9552 54.3489Z" fill="#FFE9D1"/>
<path d="M29.9553 54.217C43.33 54.217 54.1724 43.3747 54.1724 30C54.1724 16.6253 43.33 5.78296 29.9553 5.78296C16.5806 5.78296 5.73828 16.6253 5.73828 30C5.73828 43.3747 16.5806 54.217 29.9553 54.217Z" fill="#FFE8D0"/>
<path d="M29.9554 54.0907C43.2603 54.0907 54.046 43.3049 54.046 30C54.046 16.6952 43.2603 5.90942 29.9554 5.90942C16.6505 5.90942 5.86475 16.6952 5.86475 30C5.86475 43.3049 16.6505 54.0907 29.9554 54.0907Z" fill="#FFE8CF"/>
<path d="M29.9552 53.9642C43.1902 53.9642 53.9194 43.235 53.9194 30C53.9194 16.7649 43.1902 6.03577 29.9552 6.03577C16.7201 6.03577 5.99097 16.7649 5.99097 30C5.99097 43.235 16.7201 53.9642 29.9552 53.9642Z" fill="#FFE7CE"/>
<path d="M29.9552 53.8378C43.1205 53.8378 53.793 43.1653 53.793 30C53.793 16.8348 43.1205 6.16223 29.9552 6.16223C16.79 6.16223 6.11743 16.8348 6.11743 30C6.11743 43.1653 16.79 53.8378 29.9552 53.8378Z" fill="#FFE7CD"/>
<path d="M29.9553 53.7113C43.0507 53.7113 53.6666 43.0954 53.6666 29.9999C53.6666 16.9045 43.0507 6.28857 29.9553 6.28857C16.8598 6.28857 6.2439 16.9045 6.2439 29.9999C6.2439 43.0954 16.8598 53.7113 29.9553 53.7113Z" fill="#FFE6CC"/>
<path d="M29.9552 53.5795C42.9778 53.5795 53.5347 43.0226 53.5347 30C53.5347 16.9774 42.9778 6.42053 29.9552 6.42053C16.9326 6.42053 6.37573 16.9774 6.37573 30C6.37573 43.0226 16.9326 53.5795 29.9552 53.5795Z" fill="#FFE6CB"/>
<path d="M29.9552 53.453C42.908 53.453 53.4083 42.9527 53.4083 29.9999C53.4083 17.0472 42.908 6.54688 29.9552 6.54688C17.0025 6.54688 6.5022 17.0472 6.5022 29.9999C6.5022 42.9527 17.0025 53.453 29.9552 53.453Z" fill="#FFE5CA"/>
<path d="M29.9553 53.3267C42.8382 53.3267 53.2819 42.883 53.2819 30.0001C53.2819 17.1171 42.8382 6.67346 29.9553 6.67346C17.0723 6.67346 6.62866 17.1171 6.62866 30.0001C6.62866 42.883 17.0723 53.3267 29.9553 53.3267Z" fill="#FFE5C9"/>
<path d="M29.9553 53.2002C42.7685 53.2002 53.1555 42.8131 53.1555 30C53.1555 17.1869 42.7685 6.7998 29.9553 6.7998C17.1422 6.7998 6.75513 17.1869 6.75513 30C6.75513 42.8131 17.1422 53.2002 29.9553 53.2002Z" fill="#FFE5C8"/>
<path d="M29.9554 53.0739C42.6987 53.0739 53.0292 42.7434 53.0292 30.0001C53.0292 17.2568 42.6987 6.92627 29.9554 6.92627C17.2121 6.92627 6.88159 17.2568 6.88159 30.0001C6.88159 42.7434 17.2121 53.0739 29.9554 53.0739Z" fill="#FFE4C8"/>
<path d="M29.9553 52.9419C42.6258 52.9419 52.8972 42.6704 52.8972 30C52.8972 17.3295 42.6258 7.05811 29.9553 7.05811C17.2849 7.05811 7.01343 17.3295 7.01343 30C7.01343 42.6704 17.2849 52.9419 29.9553 52.9419Z" fill="#FFE4C7"/>
<path d="M29.9554 52.8155C42.556 52.8155 52.7708 42.6007 52.7708 30C52.7708 17.3994 42.556 7.18457 29.9554 7.18457C17.3547 7.18457 7.13989 17.3994 7.13989 30C7.13989 42.6007 17.3547 52.8155 29.9554 52.8155Z" fill="#FFE3C6"/>
<path d="M29.9552 52.689C42.486 52.689 52.6442 42.5308 52.6442 30C52.6442 17.4691 42.486 7.31091 29.9552 7.31091C17.4243 7.31091 7.26611 17.4691 7.26611 30C7.26611 42.5308 17.4243 52.689 29.9552 52.689Z" fill="#FFE3C5"/>
<path d="M29.9552 52.5626C42.4162 52.5626 52.5178 42.461 52.5178 30C52.5178 17.539 42.4162 7.43738 29.9552 7.43738C17.4942 7.43738 7.39258 17.539 7.39258 30C7.39258 42.461 17.4942 52.5626 29.9552 52.5626Z" fill="#FFE2C4"/>
<path d="M29.9553 52.4363C42.3464 52.4363 52.3915 42.3912 52.3915 30.0001C52.3915 17.6089 42.3464 7.56384 29.9553 7.56384C17.5641 7.56384 7.51904 17.6089 7.51904 30.0001C7.51904 42.3912 17.5641 52.4363 29.9553 52.4363Z" fill="#FFE2C3"/>
<path d="M29.9552 52.3043C42.2735 52.3043 52.2595 42.3183 52.2595 30C52.2595 17.6817 42.2735 7.69568 29.9552 7.69568C17.6369 7.69568 7.65088 17.6817 7.65088 30C7.65088 42.3183 17.6369 52.3043 29.9552 52.3043Z" fill="#FFE2C2"/>
<path d="M29.9552 52.1779C42.2037 52.1779 52.1331 42.2485 52.1331 30C52.1331 17.7515 42.2037 7.82214 29.9552 7.82214C17.7067 7.82214 7.77734 17.7515 7.77734 30C7.77734 42.2485 17.7067 52.1779 29.9552 52.1779Z" fill="#FFE1C1"/>
<path d="M29.9553 52.0514C42.134 52.0514 52.0067 42.1786 52.0067 30C52.0067 17.8213 42.134 7.94849 29.9553 7.94849C17.7766 7.94849 7.90381 17.8213 7.90381 30C7.90381 42.1786 17.7766 52.0514 29.9553 52.0514Z" fill="#FFE1C0"/>
<path d="M29.9553 51.925C42.0642 51.925 51.8804 42.1089 51.8804 30C51.8804 17.8911 42.0642 8.07495 29.9553 8.07495C17.8465 8.07495 8.03027 17.8911 8.03027 30C8.03027 42.1089 17.8465 51.925 29.9553 51.925Z" fill="#FFE0C0"/>
<path d="M29.9554 51.7986C41.9944 51.7986 51.754 42.039 51.754 29.9999C51.754 17.9609 41.9944 8.20129 29.9554 8.20129C17.9163 8.20129 8.15674 17.9609 8.15674 29.9999C8.15674 42.039 17.9163 51.7986 29.9554 51.7986Z" fill="#FFE0BF"/>
<path d="M29.9553 51.6667C41.9215 51.6667 51.622 41.9662 51.622 30C51.622 18.0338 41.9215 8.33325 29.9553 8.33325C17.9891 8.33325 8.28857 18.0338 8.28857 30C8.28857 41.9662 17.9891 51.6667 29.9553 51.6667Z" fill="#FFDFBE"/>
<path d="M29.9553 51.5403C41.8517 51.5403 51.4956 41.8964 51.4956 30C51.4956 18.1036 41.8517 8.45972 29.9553 8.45972C18.059 8.45972 8.41504 18.1036 8.41504 30C8.41504 41.8964 18.059 51.5403 29.9553 51.5403Z" fill="#FFDFBD"/>
<path d="M29.9551 51.414C41.7817 51.414 51.369 41.8266 51.369 30.0001C51.369 18.1735 41.7817 8.58618 29.9551 8.58618C18.1286 8.58618 8.54126 18.1735 8.54126 30.0001C8.54126 41.8266 18.1286 51.414 29.9551 51.414Z" fill="#FFDFBC"/>
<path d="M29.9552 51.2875C41.7119 51.2875 51.2427 41.7567 51.2427 30C51.2427 18.2432 41.7119 8.71252 29.9552 8.71252C18.1984 8.71252 8.66772 18.2432 8.66772 30C8.66772 41.7567 18.1984 51.2875 29.9552 51.2875Z" fill="#FFDEBB"/>
<path d="M29.9552 51.1611C41.6422 51.1611 51.1163 41.687 51.1163 30C51.1163 18.3131 41.6422 8.83899 29.9552 8.83899C18.2683 8.83899 8.79419 18.3131 8.79419 30C8.79419 41.687 18.2683 51.1611 29.9552 51.1611Z" fill="#FFDEBA"/>
<path d="M29.9553 51.0346C41.5724 51.0346 50.9899 41.6171 50.9899 30C50.9899 18.3829 41.5724 8.96533 29.9553 8.96533C18.3382 8.96533 8.92065 18.3829 8.92065 30C8.92065 41.6171 18.3382 51.0346 29.9553 51.0346Z" fill="#FEDDB9"/>
<path d="M29.9552 50.9027C41.4995 50.9027 50.8579 41.5443 50.8579 30C50.8579 18.4558 41.4995 9.09729 29.9552 9.09729C18.411 9.09729 9.05249 18.4558 9.05249 30C9.05249 41.5443 18.411 50.9027 29.9552 50.9027Z" fill="#FEDDB9"/>
<path d="M29.9553 50.7762C41.4297 50.7762 50.7316 41.4744 50.7316 29.9999C50.7316 18.5255 41.4297 9.22363 29.9553 9.22363C18.4808 9.22363 9.17896 18.5255 9.17896 29.9999C9.17896 41.4744 18.4808 50.7762 29.9553 50.7762Z" fill="#FEDCB8"/>
<path d="M29.9553 50.6499C41.3599 50.6499 50.6052 41.4046 50.6052 30C50.6052 18.5954 41.3599 9.3501 29.9553 9.3501C18.5507 9.3501 9.30542 18.5954 9.30542 30C9.30542 41.4046 18.5507 50.6499 29.9553 50.6499Z" fill="#FEDCB7"/>
<path d="M29.9554 50.5235C41.2902 50.5235 50.4788 41.3348 50.4788 30C50.4788 18.6652 41.2902 9.47656 29.9554 9.47656C18.6206 9.47656 9.43188 18.6652 9.43188 30C9.43188 41.3348 18.6206 50.5235 29.9554 50.5235Z" fill="#FEDCB6"/>
<path d="M29.9552 50.397C41.2201 50.397 50.3522 41.2649 50.3522 30C50.3522 18.735 41.2201 9.60291 29.9552 9.60291C18.6902 9.60291 9.55811 18.735 9.55811 30C9.55811 41.2649 18.6902 50.397 29.9552 50.397Z" fill="#FEDBB5"/>
<path d="M29.9553 50.2652C41.1475 50.2652 50.2205 41.1921 50.2205 30C50.2205 18.8079 41.1475 9.73486 29.9553 9.73486C18.7632 9.73486 9.69019 18.8079 9.69019 30C9.69019 41.1921 18.7632 50.2652 29.9553 50.2652Z" fill="#FEDBB4"/>
<path d="M29.9551 50.1387C41.0774 50.1387 50.0939 41.1222 50.0939 29.9999C50.0939 18.8776 41.0774 9.86121 29.9551 9.86121C18.8328 9.86121 9.81641 18.8776 9.81641 29.9999C9.81641 41.1222 18.8328 50.1387 29.9551 50.1387Z" fill="#FEDAB3"/>
<path d="M29.9552 50.0123C41.0077 50.0123 49.9675 41.0525 49.9675 30C49.9675 18.9475 41.0077 9.98767 29.9552 9.98767C18.9027 9.98767 9.94287 18.9475 9.94287 30C9.94287 41.0525 18.9027 50.0123 29.9552 50.0123Z" fill="#FEDAB2"/>
<path d="M29.9552 49.8859C40.9379 49.8859 49.8411 40.9827 49.8411 30C49.8411 19.0174 40.9379 10.1141 29.9552 10.1141C18.9726 10.1141 10.0693 19.0174 10.0693 30C10.0693 40.9827 18.9726 49.8859 29.9552 49.8859Z" fill="#FEDAB2"/>
<path d="M29.9553 49.7595C40.8681 49.7595 49.7147 40.9129 49.7147 30.0001C49.7147 19.0872 40.8681 10.2406 29.9553 10.2406C19.0424 10.2406 10.1958 19.0872 10.1958 30.0001C10.1958 40.9129 19.0424 49.7595 29.9553 49.7595Z" fill="#FED9B1"/>
<path d="M29.9552 49.6276C40.7952 49.6276 49.5828 40.84 49.5828 30C49.5828 19.16 40.7952 10.3724 29.9552 10.3724C19.1152 10.3724 10.3276 19.16 10.3276 30C10.3276 40.84 19.1152 49.6276 29.9552 49.6276Z" fill="#FED9B0"/>
<path d="M29.9552 49.5012C40.7254 49.5012 49.4564 40.7702 49.4564 30C49.4564 19.2299 40.7254 10.4989 29.9552 10.4989C19.1851 10.4989 10.4541 19.2299 10.4541 30C10.4541 40.7702 19.1851 49.5012 29.9552 49.5012Z" fill="#FED8AF"/>
<path d="M29.9553 49.3747C40.6557 49.3747 49.33 40.7003 49.33 30C49.33 19.2996 40.6557 10.6252 29.9553 10.6252C19.2549 10.6252 10.5806 19.2996 10.5806 30C10.5806 40.7003 19.2549 49.3747 29.9553 49.3747Z" fill="#FED8AE"/>
<path d="M29.9553 49.2483C40.5859 49.2483 49.2037 40.6306 49.2037 30C49.2037 19.3695 40.5859 10.7517 29.9553 10.7517C19.3248 10.7517 10.707 19.3695 10.707 30C10.707 40.6306 19.3248 49.2483 29.9553 49.2483Z" fill="#FED7AD"/>
<path d="M29.9551 49.1218C40.5159 49.1218 49.077 40.5607 49.077 29.9999C49.077 19.4392 40.5159 10.8781 29.9551 10.8781C19.3944 10.8781 10.8333 19.4392 10.8333 29.9999C10.8333 40.5607 19.3944 49.1218 29.9551 49.1218Z" fill="#FED7AC"/>
<path d="M29.9553 48.99C40.4432 48.99 48.9453 40.4879 48.9453 30C48.9453 19.5121 40.4432 11.01 29.9553 11.01C19.4674 11.01 10.9653 19.5121 10.9653 30C10.9653 40.4879 19.4674 48.99 29.9553 48.99Z" fill="#FED7AC"/>
<path d="M29.9554 48.8636C40.3734 48.8636 48.8189 40.4181 48.8189 30C48.8189 19.582 40.3734 11.1365 29.9554 11.1365C19.5373 11.1365 11.0918 19.582 11.0918 30C11.0918 40.4181 19.5373 48.8636 29.9554 48.8636Z" fill="#FED6AB"/>
<path d="M29.9552 48.7371C40.3034 48.7371 48.6923 40.3482 48.6923 30C48.6923 19.6517 40.3034 11.2628 29.9552 11.2628C19.6069 11.2628 11.218 19.6517 11.218 30C11.218 40.3482 19.6069 48.7371 29.9552 48.7371Z" fill="#FED6AA"/>
<path d="M29.9552 48.6108C40.2336 48.6108 48.566 40.2784 48.566 30C48.566 19.7216 40.2336 11.3893 29.9552 11.3893C19.6768 11.3893 11.3445 19.7216 11.3445 30C11.3445 40.2784 19.6768 48.6108 29.9552 48.6108Z" fill="#FED5A9"/>
<path d="M29.9553 48.4843C40.1639 48.4843 48.4396 40.2085 48.4396 29.9999C48.4396 19.7913 40.1639 11.5156 29.9553 11.5156C19.7467 11.5156 11.4709 19.7913 11.4709 29.9999C11.4709 40.2085 19.7467 48.4843 29.9553 48.4843Z" fill="#FED5A8"/>
<path d="M29.9553 48.3579C40.0941 48.3579 48.3132 40.1388 48.3132 30C48.3132 19.8612 40.0941 11.6421 29.9553 11.6421C19.8165 11.6421 11.5974 19.8612 11.5974 30C11.5974 40.1388 19.8165 48.3579 29.9553 48.3579Z" fill="#FED4A7"/>
<path d="M29.9552 48.226C40.0212 48.226 48.1812 40.066 48.1812 30C48.1812 19.9341 40.0212 11.774 29.9552 11.774C19.8893 11.774 11.7292 19.9341 11.7292 30C11.7292 40.066 19.8893 48.226 29.9552 48.226Z" fill="#FED4A6"/>
<path d="M29.9553 48.0995C39.9514 48.0995 48.0549 39.9961 48.0549 30C48.0549 20.0038 39.9514 11.9004 29.9553 11.9004C19.9592 11.9004 11.8557 20.0038 11.8557 30C11.8557 39.9961 19.9592 48.0995 29.9553 48.0995Z" fill="#FED4A5"/>
<path d="M29.9553 47.9732C39.8816 47.9732 47.9285 39.9263 47.9285 30C47.9285 20.0737 39.8816 12.0269 29.9553 12.0269C20.029 12.0269 11.9822 20.0737 11.9822 30C11.9822 39.9263 20.029 47.9732 29.9553 47.9732Z" fill="#FED3A5"/>
<path d="M29.9554 47.8468C39.8119 47.8468 47.8021 39.8565 47.8021 30.0001C47.8021 20.1436 39.8119 12.1533 29.9554 12.1533C20.0989 12.1533 12.1086 20.1436 12.1086 30.0001C12.1086 39.8565 20.0989 47.8468 29.9554 47.8468Z" fill="#FED3A4"/>
<path d="M29.9552 47.7203C39.7418 47.7203 47.6755 39.7866 47.6755 30C47.6755 20.2133 39.7418 12.2797 29.9552 12.2797C20.1685 12.2797 12.2349 20.2133 12.2349 30C12.2349 39.7866 20.1685 47.7203 29.9552 47.7203Z" fill="#FED2A3"/>
<path d="M29.9554 47.5884C39.6692 47.5884 47.5438 39.7138 47.5438 30C47.5438 20.2862 39.6692 12.4116 29.9554 12.4116C20.2415 12.4116 12.3669 20.2862 12.3669 30C12.3669 39.7138 20.2415 47.5884 29.9554 47.5884Z" fill="#FED2A2"/>
<path d="M29.9552 47.4619C39.5991 47.4619 47.4171 39.6439 47.4171 30C47.4171 20.356 39.5991 12.538 29.9552 12.538C20.3112 12.538 12.4932 20.356 12.4932 30C12.4932 39.6439 20.3112 47.4619 29.9552 47.4619Z" fill="#FED2A1"/>
<path d="M29.9552 47.3356C39.5294 47.3356 47.2908 39.5742 47.2908 30C47.2908 20.4258 39.5294 12.6644 29.9552 12.6644C20.381 12.6644 12.6196 20.4258 12.6196 30C12.6196 39.5742 20.381 47.3356 29.9552 47.3356Z" fill="#FED1A0"/>
<path d="M29.9553 47.2091C39.4596 47.2091 47.1644 39.5043 47.1644 29.9999C47.1644 20.4956 39.4596 12.7908 29.9553 12.7908C20.4509 12.7908 12.7461 20.4956 12.7461 29.9999C12.7461 39.5043 20.4509 47.2091 29.9553 47.2091Z" fill="#FED19F"/>
<path d="M29.9553 47.0827C39.3898 47.0827 47.038 39.4345 47.038 30C47.038 20.5654 39.3898 12.9172 29.9553 12.9172C20.5208 12.9172 12.8726 20.5654 12.8726 30C12.8726 39.4345 20.5208 47.0827 29.9553 47.0827Z" fill="#FED09F"/>
<path d="M29.9552 46.9508C39.3169 46.9508 46.906 39.3617 46.906 30C46.906 20.6383 39.3169 13.0492 29.9552 13.0492C20.5935 13.0492 13.0044 20.6383 13.0044 30C13.0044 39.3617 20.5935 46.9508 29.9552 46.9508Z" fill="#FED09E"/>
<path d="M29.9553 46.8244C39.2471 46.8244 46.7797 39.2918 46.7797 29.9999C46.7797 20.7081 39.2471 13.1755 29.9553 13.1755C20.6634 13.1755 13.1309 20.7081 13.1309 29.9999C13.1309 39.2918 20.6634 46.8244 29.9553 46.8244Z" fill="#FECF9D"/>
<path d="M29.9553 46.698C39.1774 46.698 46.6533 39.222 46.6533 30C46.6533 20.7779 39.1774 13.302 29.9553 13.302C20.7333 13.302 13.2573 20.7779 13.2573 30C13.2573 39.222 20.7333 46.698 29.9553 46.698Z" fill="#FECF9C"/>
<path d="M29.9551 46.5716C39.1074 46.5716 46.5267 39.1523 46.5267 30C46.5267 20.8478 39.1074 13.4285 29.9551 13.4285C20.8029 13.4285 13.3835 20.8478 13.3835 30C13.3835 39.1523 20.8029 46.5716 29.9551 46.5716Z" fill="#FECF9B"/>
<path d="M29.9552 46.4451C39.0376 46.4451 46.4003 39.0824 46.4003 30C46.4003 20.9176 39.0376 13.5548 29.9552 13.5548C20.8728 13.5548 13.51 20.9176 13.51 30C13.51 39.0824 20.8728 46.4451 29.9552 46.4451Z" fill="#FECE9A"/>
<path d="M29.9553 46.3133C38.9649 46.3133 46.2686 39.0096 46.2686 30C46.2686 20.9905 38.9649 13.6868 29.9553 13.6868C20.9458 13.6868 13.6421 20.9905 13.6421 30C13.6421 39.0096 20.9458 46.3133 29.9553 46.3133Z" fill="#FECE9A"/>
<path d="M29.9551 46.1869C38.8949 46.1869 46.142 38.9398 46.142 30.0001C46.142 21.0603 38.8949 13.8132 29.9551 13.8132C21.0154 13.8132 13.7683 21.0603 13.7683 30.0001C13.7683 38.9398 21.0154 46.1869 29.9551 46.1869Z" fill="#FECD99"/>
<path d="M29.9552 46.0604C38.8251 46.0604 46.0156 38.8699 46.0156 30C46.0156 21.1301 38.8251 13.9396 29.9552 13.9396C21.0853 13.9396 13.8948 21.1301 13.8948 30C13.8948 38.8699 21.0853 46.0604 29.9552 46.0604Z" fill="#FECD98"/>
<path d="M29.9552 45.934C38.7553 45.934 45.8892 38.8001 45.8892 30C45.8892 21.1999 38.7553 14.066 29.9552 14.066C21.1551 14.066 14.0212 21.1999 14.0212 30C14.0212 38.8001 21.1551 45.934 29.9552 45.934Z" fill="#FECC97"/>
<path d="M29.9553 45.8075C38.6856 45.8075 45.7629 38.7302 45.7629 30C45.7629 21.2697 38.6856 14.1924 29.9553 14.1924C21.225 14.1924 14.1477 21.2697 14.1477 30C14.1477 38.7302 21.225 45.8075 29.9553 45.8075Z" fill="#FECC96"/>
<path d="M29.9553 45.6812C38.6158 45.6812 45.6365 38.6605 45.6365 30C45.6365 21.3395 38.6158 14.3188 29.9553 14.3188C21.2949 14.3188 14.2742 21.3395 14.2742 30C14.2742 38.6605 21.2949 45.6812 29.9553 45.6812Z" fill="#FDCC95"/>
<path d="M29.9553 45.5492C38.5429 45.5492 45.5045 38.5876 45.5045 29.9999C45.5045 21.4123 38.5429 14.4507 29.9553 14.4507C21.3676 14.4507 14.406 21.4123 14.406 29.9999C14.406 38.5876 21.3676 45.5492 29.9553 45.5492Z" fill="#FDCB95"/>
<path d="M29.9553 45.4228C38.4731 45.4228 45.3781 38.5178 45.3781 30C45.3781 21.4822 38.4731 14.5771 29.9553 14.5771C21.4375 14.5771 14.5325 21.4822 14.5325 30C14.5325 38.5178 21.4375 45.4228 29.9553 45.4228Z" fill="#FDCB94"/>
<path d="M29.9554 45.2965C38.4033 45.2965 45.2518 38.448 45.2518 30C45.2518 21.5521 38.4033 14.7036 29.9554 14.7036C21.5074 14.7036 14.6589 21.5521 14.6589 30C14.6589 38.448 21.5074 45.2965 29.9554 45.2965Z" fill="#FDCA93"/>
<path d="M29.9552 45.17C38.3333 45.17 45.1252 38.3781 45.1252 30C45.1252 21.6218 38.3333 14.83 29.9552 14.83C21.577 14.83 14.7852 21.6218 14.7852 30C14.7852 38.3781 21.577 45.17 29.9552 45.17Z" fill="#FDCA92"/>
<path d="M29.9552 45.0436C38.2635 45.0436 44.9988 38.3083 44.9988 30C44.9988 21.6917 38.2635 14.9564 29.9552 14.9564C21.6469 14.9564 14.9116 21.6917 14.9116 30C14.9116 38.3083 21.6469 45.0436 29.9552 45.0436Z" fill="#FDCA91"/>
<path d="M29.9554 44.9117C38.1909 44.9117 44.867 38.2355 44.867 30.0001C44.867 21.7646 38.1909 15.0884 29.9554 15.0884C21.7199 15.0884 15.0437 21.7646 15.0437 30.0001C15.0437 38.2355 21.7199 44.9117 29.9554 44.9117Z" fill="#FDC991"/>
<path d="M29.9552 44.7852C38.1208 44.7852 44.7404 38.1656 44.7404 30C44.7404 21.8343 38.1208 15.2147 29.9552 15.2147C21.7895 15.2147 15.1699 21.8343 15.1699 30C15.1699 38.1656 21.7895 44.7852 29.9552 44.7852Z" fill="#FDC990"/>
<path d="M29.9552 44.6589C38.0511 44.6589 44.6141 38.0959 44.6141 30C44.6141 21.9042 38.0511 15.3412 29.9552 15.3412C21.8594 15.3412 15.2964 21.9042 15.2964 30C15.2964 38.0959 21.8594 44.6589 29.9552 44.6589Z" fill="#FDC88F"/>
<path d="M29.9553 44.5325C37.9813 44.5325 44.4877 38.0261 44.4877 30.0001C44.4877 21.974 37.9813 15.4677 29.9553 15.4677C21.9292 15.4677 15.4229 21.974 15.4229 30.0001C15.4229 38.0261 21.9292 44.5325 29.9553 44.5325Z" fill="#FDC88E"/>
<path d="M29.9553 44.406C37.9115 44.406 44.3613 37.9562 44.3613 30C44.3613 22.0438 37.9115 15.594 29.9553 15.594C21.9991 15.594 15.5493 22.0438 15.5493 30C15.5493 37.9562 21.9991 44.406 29.9553 44.406Z" fill="#FDC78D"/>
<path d="M29.9552 44.2741C37.8386 44.2741 44.2293 37.8834 44.2293 30C44.2293 22.1167 37.8386 15.726 29.9552 15.726C22.0719 15.726 15.6812 22.1167 15.6812 30C15.6812 37.8834 22.0719 44.2741 29.9552 44.2741Z" fill="#FDC78C"/>
<path d="M29.9553 44.1476C37.7688 44.1476 44.103 37.8135 44.103 30C44.103 22.1864 37.7688 15.8523 29.9553 15.8523C22.1417 15.8523 15.8076 22.1864 15.8076 30C15.8076 37.8135 22.1417 44.1476 29.9553 44.1476Z" fill="#FDC78C"/>
<path d="M29.9553 44.0213C37.6991 44.0213 43.9766 37.7437 43.9766 30C43.9766 22.2563 37.6991 15.9788 29.9553 15.9788C22.2116 15.9788 15.9341 22.2563 15.9341 30C15.9341 37.7437 22.2116 44.0213 29.9553 44.0213Z" fill="#FDC68B"/>
<path d="M29.9551 43.8948C37.6291 43.8948 43.85 37.6739 43.85 29.9999C43.85 22.326 37.6291 16.1051 29.9551 16.1051C22.2812 16.1051 16.0603 22.326 16.0603 29.9999C16.0603 37.6739 22.2812 43.8948 29.9551 43.8948Z" fill="#FDC68A"/>
<path d="M29.9552 43.7684C37.5593 43.7684 43.7236 37.6041 43.7236 30C43.7236 22.3959 37.5593 16.2316 29.9552 16.2316C22.3511 16.2316 16.1868 22.3959 16.1868 30C16.1868 37.6041 22.3511 43.7684 29.9552 43.7684Z" fill="#FDC589"/>
<path d="M29.9554 43.6364C37.4866 43.6364 43.5919 37.5312 43.5919 29.9999C43.5919 22.4687 37.4866 16.3634 29.9554 16.3634C22.4241 16.3634 16.3188 22.4687 16.3188 29.9999C16.3188 37.5312 22.4241 43.6364 29.9554 43.6364Z" fill="#FDC588"/>
<path d="M29.9552 43.5102C37.4166 43.5102 43.4653 37.4615 43.4653 30.0001C43.4653 22.5387 37.4166 16.49 29.9552 16.49C22.4937 16.49 16.4451 22.5387 16.4451 30.0001C16.4451 37.4615 22.4937 43.5102 29.9552 43.5102Z" fill="#FDC588"/>
<path d="M29.9552 43.3837C37.3468 43.3837 43.3389 37.3916 43.3389 30C43.3389 22.6084 37.3468 16.6163 29.9552 16.6163C22.5636 16.6163 16.5715 22.6084 16.5715 30C16.5715 37.3916 22.5636 43.3837 29.9552 43.3837Z" fill="#FDC487"/>
<path d="M29.9553 43.2573C37.277 43.2573 43.2125 37.3218 43.2125 30.0001C43.2125 22.6783 37.277 16.7428 29.9553 16.7428C22.6335 16.7428 16.698 22.6783 16.698 30.0001C16.698 37.3218 22.6335 43.2573 29.9553 43.2573Z" fill="#FDC486"/>
<path d="M29.9553 43.1308C37.2073 43.1308 43.0862 37.252 43.0862 30C43.0862 22.748 37.2073 16.8691 29.9553 16.8691C22.7033 16.8691 16.8245 22.748 16.8245 30C16.8245 37.252 22.7033 43.1308 29.9553 43.1308Z" fill="#FDC385"/>
<path d="M29.9552 42.999C37.1343 42.999 42.9542 37.1791 42.9542 30C42.9542 22.8209 37.1343 17.0011 29.9552 17.0011C22.7761 17.0011 16.9563 22.8209 16.9563 30C16.9563 37.1791 22.7761 42.999 29.9552 42.999Z" fill="#FDC384"/>
<path d="M29.9553 42.8725C37.0646 42.8725 42.8278 37.1093 42.8278 30C42.8278 22.8907 37.0646 17.1274 29.9553 17.1274C22.846 17.1274 17.0828 22.8907 17.0828 30C17.0828 37.1093 22.846 42.8725 29.9553 42.8725Z" fill="#FDC284"/>
<path d="M29.9553 42.7461C36.9948 42.7461 42.7014 37.0395 42.7014 30C42.7014 22.9605 36.9948 17.2539 29.9553 17.2539C22.9159 17.2539 17.2092 22.9605 17.2092 30C17.2092 37.0395 22.9159 42.7461 29.9553 42.7461Z" fill="#FDC283"/>
<path d="M29.9551 42.6197C36.9248 42.6197 42.5748 36.9697 42.5748 30.0001C42.5748 23.0304 36.9248 17.3804 29.9551 17.3804C22.9855 17.3804 17.3354 23.0304 17.3354 30.0001C17.3354 36.9697 22.9855 42.6197 29.9551 42.6197Z" fill="#FDC282"/>
<path d="M29.9552 42.4932C36.855 42.4932 42.4484 36.8998 42.4484 30C42.4484 23.1001 36.855 17.5067 29.9552 17.5067C23.0553 17.5067 17.4619 23.1001 17.4619 30C17.4619 36.8998 23.0553 42.4932 29.9552 42.4932Z" fill="#FDC181"/>
<path d="M29.9552 42.3669C36.7852 42.3669 42.3221 36.83 42.3221 30C42.3221 23.17 36.7852 17.6332 29.9552 17.6332C23.1252 17.6332 17.5884 23.17 17.5884 30C17.5884 36.83 23.1252 42.3669 29.9552 42.3669Z" fill="#FDC181"/>
<path d="M29.9551 42.2349C36.7123 42.2349 42.1901 36.7571 42.1901 29.9999C42.1901 23.2428 36.7123 17.765 29.9551 17.765C23.198 17.765 17.7202 23.2428 17.7202 29.9999C17.7202 36.7571 23.198 42.2349 29.9551 42.2349Z" fill="#FDC080"/>
<path d="M29.9552 42.1085C36.6425 42.1085 42.0637 36.6873 42.0637 30C42.0637 23.3126 36.6425 17.8915 29.9552 17.8915C23.2678 17.8915 17.8467 23.3126 17.8467 30C17.8467 36.6873 23.2678 42.1085 29.9552 42.1085Z" fill="#FDC07F"/>
<path d="M29.9552 41.982C36.5728 41.982 41.9374 36.6175 41.9374 29.9999C41.9374 23.3824 36.5728 18.0178 29.9552 18.0178C23.3377 18.0178 17.9731 23.3824 17.9731 29.9999C17.9731 36.6175 23.3377 41.982 29.9552 41.982Z" fill="#FCC07E"/>
<path d="M29.9553 41.8557C36.503 41.8557 41.811 36.5477 41.811 30C41.811 23.4523 36.503 18.1443 29.9553 18.1443C23.4076 18.1443 18.0996 23.4523 18.0996 30C18.0996 36.5477 23.4076 41.8557 29.9553 41.8557Z" fill="#FCBF7D"/>
<path d="M29.9553 41.7293C36.4332 41.7293 41.6846 36.4779 41.6846 30C41.6846 23.5221 36.4332 18.2708 29.9553 18.2708C23.4774 18.2708 18.2261 23.5221 18.2261 30C18.2261 36.4779 23.4774 41.7293 29.9553 41.7293Z" fill="#FCBF7D"/>
<path d="M29.9553 41.5974C36.3603 41.5974 41.5526 36.4051 41.5526 30.0001C41.5526 23.595 36.3603 18.4027 29.9553 18.4027C23.5502 18.4027 18.3579 23.595 18.3579 30.0001C18.3579 36.4051 23.5502 41.5974 29.9553 41.5974Z" fill="#FCBE7C"/>
<path d="M29.9553 41.4709C36.2905 41.4709 41.4263 36.3352 41.4263 30C41.4263 23.6648 36.2905 18.5291 29.9553 18.5291C23.6201 18.5291 18.4844 23.6648 18.4844 30C18.4844 36.3352 23.6201 41.4709 29.9553 41.4709Z" fill="#FCBE7B"/>
<path d="M29.9554 41.3446C36.2208 41.3446 41.2999 36.2654 41.2999 30C41.2999 23.7346 36.2208 18.6555 29.9554 18.6555C23.69 18.6555 18.6108 23.7346 18.6108 30C18.6108 36.2654 23.69 41.3446 29.9554 41.3446Z" fill="#FCBD7A"/>
<path d="M29.9552 41.2181C36.1508 41.2181 41.1733 36.1956 41.1733 30C41.1733 23.8044 36.1508 18.7819 29.9552 18.7819C23.7596 18.7819 18.7371 23.8044 18.7371 30C18.7371 36.1956 23.7596 41.2181 29.9552 41.2181Z" fill="#FCBD7A"/>
<path d="M29.9552 41.0917C36.081 41.0917 41.0469 36.1258 41.0469 30C41.0469 23.8742 36.081 18.9083 29.9552 18.9083C23.8294 18.9083 18.8635 23.8742 18.8635 30C18.8635 36.1258 23.8294 41.0917 29.9552 41.0917Z" fill="#FCBD79"/>
<path d="M29.9551 40.9598C36.0081 40.9598 40.9149 36.053 40.9149 30.0001C40.9149 23.9471 36.0081 19.0403 29.9551 19.0403C23.9022 19.0403 18.9954 23.9471 18.9954 30.0001C18.9954 36.053 23.9022 40.9598 29.9551 40.9598Z" fill="#FCBC78"/>
<path d="M29.9552 40.8333C35.9383 40.8333 40.7885 35.9831 40.7885 30C40.7885 24.0169 35.9383 19.1666 29.9552 19.1666C23.9721 19.1666 19.1218 24.0169 19.1218 30C19.1218 35.9831 23.9721 40.8333 29.9552 40.8333Z" fill="#FCBC77"/>
<path d="M29.9552 40.707C35.8685 40.707 40.6622 35.9133 40.6622 30C40.6622 24.0868 35.8685 19.2931 29.9552 19.2931C24.042 19.2931 19.2483 24.0868 19.2483 30C19.2483 35.9133 24.042 40.707 29.9552 40.707Z" fill="#FCBB76"/>
<path d="M29.9553 40.5805C35.7987 40.5805 40.5358 35.8434 40.5358 30C40.5358 24.1565 35.7987 19.4194 29.9553 19.4194C24.1118 19.4194 19.3748 24.1565 19.3748 30C19.3748 35.8434 24.1118 40.5805 29.9553 40.5805Z" fill="#FCBB76"/>
<path d="M29.9553 40.4541C35.729 40.4541 40.4094 35.7737 40.4094 30C40.4094 24.2264 35.729 19.5459 29.9553 19.5459C24.1817 19.5459 19.5012 24.2264 19.5012 30C19.5012 35.7737 24.1817 40.4541 29.9553 40.4541Z" fill="#FCBB75"/>
<path d="M29.9553 40.3221C35.656 40.3221 40.2774 35.7007 40.2774 29.9999C40.2774 24.2991 35.656 19.6777 29.9553 19.6777C24.2545 19.6777 19.6331 24.2991 19.6331 29.9999C19.6331 35.7007 24.2545 40.3221 29.9553 40.3221Z" fill="#FCBA74"/>
<path d="M29.9553 40.1958C35.5863 40.1958 40.1511 35.631 40.1511 30C40.1511 24.369 35.5863 19.8042 29.9553 19.8042C24.3243 19.8042 19.7595 24.369 19.7595 30C19.7595 35.631 24.3243 40.1958 29.9553 40.1958Z" fill="#FCBA73"/>
<path d="M29.9553 40.0694C35.5165 40.0694 40.0247 35.5612 40.0247 30C40.0247 24.4389 35.5165 19.9307 29.9553 19.9307C24.3942 19.9307 19.886 24.4389 19.886 30C19.886 35.5612 24.3942 40.0694 29.9553 40.0694Z" fill="#FCB973"/>
<path d="M29.9552 39.943C35.4465 39.943 39.8981 35.4914 39.8981 30.0001C39.8981 24.5087 35.4465 20.0571 29.9552 20.0571C24.4638 20.0571 20.0122 24.5087 20.0122 30.0001C20.0122 35.4914 24.4638 39.943 29.9552 39.943Z" fill="#FCB972"/>
<path d="M29.9552 39.8165C35.3767 39.8165 39.7717 35.4215 39.7717 30C39.7717 24.5785 35.3767 20.1835 29.9552 20.1835C24.5337 20.1835 20.1387 24.5785 20.1387 30C20.1387 35.4215 24.5337 39.8165 29.9552 39.8165Z" fill="#FCB871"/>
<path d="M29.9553 39.6902C35.307 39.6902 39.6454 35.3518 39.6454 30.0001C39.6454 24.6483 35.307 20.3099 29.9553 20.3099C24.6035 20.3099 20.2651 24.6483 20.2651 30.0001C20.2651 35.3518 24.6035 39.6902 29.9553 39.6902Z" fill="#FCB870"/>
<path d="M29.9552 39.5582C35.234 39.5582 39.5134 35.2788 39.5134 30C39.5134 24.7211 35.234 20.4418 29.9552 20.4418C24.6763 20.4418 20.397 24.7211 20.397 30C20.397 35.2788 24.6763 39.5582 29.9552 39.5582Z" fill="#FCB86F"/>
<path d="M29.9552 39.4318C35.1643 39.4318 39.387 35.2091 39.387 30C39.387 24.791 35.1643 20.5682 29.9552 20.5682C24.7462 20.5682 20.5234 24.791 20.5234 30C20.5234 35.2091 24.7462 39.4318 29.9552 39.4318Z" fill="#FCB76F"/>
<path d="M29.9553 39.3053C35.0945 39.3053 39.2606 35.1392 39.2606 29.9999C39.2606 24.8607 35.0945 20.6946 29.9553 20.6946C24.8161 20.6946 20.6499 24.8607 20.6499 29.9999C20.6499 35.1392 24.8161 39.3053 29.9553 39.3053Z" fill="#FCB76E"/>
<path d="M29.9553 39.1789C35.0247 39.1789 39.1343 35.0694 39.1343 30C39.1343 24.9306 35.0247 20.821 29.9553 20.821C24.8859 20.821 20.7764 24.9306 20.7764 30C20.7764 35.0694 24.8859 39.1789 29.9553 39.1789Z" fill="#FCB66D"/>
<path d="M29.9554 39.0526C34.9549 39.0526 39.0079 34.9996 39.0079 30C39.0079 25.0005 34.9549 20.9475 29.9554 20.9475C24.9558 20.9475 20.9028 25.0005 20.9028 30C20.9028 34.9996 24.9558 39.0526 29.9554 39.0526Z" fill="#FCB66C"/>
<path d="M29.9553 38.9206C34.882 38.9206 38.8759 34.9267 38.8759 30C38.8759 25.0732 34.882 21.0793 29.9553 21.0793C25.0286 21.0793 21.0347 25.0732 21.0347 30C21.0347 34.9267 25.0286 38.9206 29.9553 38.9206Z" fill="#FBB66B"/>
<path d="M29.9553 38.7942C34.8122 38.7942 38.7495 34.8569 38.7495 30C38.7495 25.1431 34.8122 21.2058 29.9553 21.2058C25.0984 21.2058 21.1611 25.1431 21.1611 30C21.1611 34.8569 25.0984 38.7942 29.9553 38.7942Z" fill="#FBB56B"/>
<path d="M29.9551 38.6677C34.7422 38.6677 38.6229 34.787 38.6229 29.9999C38.6229 25.2129 34.7422 21.3322 29.9551 21.3322C25.1681 21.3322 21.2874 25.2129 21.2874 29.9999C21.2874 34.787 25.1681 38.6677 29.9551 38.6677Z" fill="#FBB56A"/>
<path d="M29.9552 38.5414C34.6725 38.5414 38.4966 34.7173 38.4966 30C38.4966 25.2827 34.6725 21.4586 29.9552 21.4586C25.2379 21.4586 21.4138 25.2827 21.4138 30C21.4138 34.7173 25.2379 38.5414 29.9552 38.5414Z" fill="#FBB469"/>
<path d="M29.9552 38.4149C34.6027 38.4149 38.3702 34.6474 38.3702 29.9999C38.3702 25.3525 34.6027 21.585 29.9552 21.585C25.3078 21.585 21.5403 25.3525 21.5403 29.9999C21.5403 34.6474 25.3078 38.4149 29.9552 38.4149Z" fill="#FBB468"/>
<path d="M29.9552 38.2831C34.5298 38.2831 38.2382 34.5747 38.2382 30.0001C38.2382 25.4255 34.5298 21.717 29.9552 21.717C25.3806 21.717 21.6721 25.4255 21.6721 30.0001C21.6721 34.5747 25.3806 38.2831 29.9552 38.2831Z" fill="#FBB467"/>
<path d="M29.9552 38.1566C34.46 38.1566 38.1118 34.5048 38.1118 30C38.1118 25.4952 34.46 21.8434 29.9552 21.8434C25.4504 21.8434 21.7986 25.4952 21.7986 30C21.7986 34.5048 25.4504 38.1566 29.9552 38.1566Z" fill="#FBB366"/>
<path d="M29.9553 38.0303C34.3902 38.0303 37.9855 34.435 37.9855 30.0001C37.9855 25.5651 34.3902 21.9698 29.9553 21.9698C25.5203 21.9698 21.925 25.5651 21.925 30.0001C21.925 34.435 25.5203 38.0303 29.9553 38.0303Z" fill="#FBB366"/>
<path d="M29.9553 37.9038C34.3204 37.9038 37.8591 34.3651 37.8591 30C37.8591 25.6348 34.3204 22.0962 29.9553 22.0962C25.5902 22.0962 22.0515 25.6348 22.0515 30C22.0515 34.3651 25.5902 37.9038 29.9553 37.9038Z" fill="#FBB265"/>
<path d="M29.9554 37.7774C34.2507 37.7774 37.7327 34.2954 37.7327 30C37.7327 25.7047 34.2507 22.2227 29.9554 22.2227C25.66 22.2227 22.178 25.7047 22.178 30C22.178 34.2954 25.66 37.7774 29.9554 37.7774Z" fill="#FBB264"/>
<path d="M29.9553 37.6454C34.1777 37.6454 37.6007 34.2224 37.6007 30C37.6007 25.7775 34.1777 22.3545 29.9553 22.3545C25.7328 22.3545 22.3098 25.7775 22.3098 30C22.3098 34.2224 25.7328 37.6454 29.9553 37.6454Z" fill="#FBB263"/>
<path d="M29.9553 37.519C34.108 37.519 37.4744 34.1527 37.4744 30C37.4744 25.8473 34.108 22.481 29.9553 22.481C25.8027 22.481 22.4363 25.8473 22.4363 30C22.4363 34.1527 25.8027 37.519 29.9553 37.519Z" fill="#FBB162"/>
<path d="M29.9551 37.3927C34.038 37.3927 37.3478 34.0829 37.3478 30C37.3478 25.9172 34.038 22.6074 29.9551 22.6074C25.8723 22.6074 22.5625 25.9172 22.5625 30C22.5625 34.0829 25.8723 37.3927 29.9551 37.3927Z" fill="#FBB161"/>
<path d="M29.9552 37.2662C33.9682 37.2662 37.2214 34.013 37.2214 30C37.2214 25.987 33.9682 22.7338 29.9552 22.7338C25.9422 22.7338 22.689 25.987 22.689 30C22.689 34.013 25.9422 37.2662 29.9552 37.2662Z" fill="#FBB061"/>
<path d="M29.9552 37.1398C33.8984 37.1398 37.095 33.9432 37.095 30C37.095 26.0568 33.8984 22.8602 29.9552 22.8602C26.012 22.8602 22.8154 26.0568 22.8154 30C22.8154 33.9432 26.012 37.1398 29.9552 37.1398Z" fill="#FBB060"/>
<path d="M29.9553 37.0133C33.8287 37.0133 36.9686 33.8733 36.9686 29.9999C36.9686 26.1266 33.8287 22.9866 29.9553 22.9866C26.0819 22.9866 22.9419 26.1266 22.9419 29.9999C22.9419 33.8733 26.0819 37.0133 29.9553 37.0133Z" fill="#FBAF5F"/>
<path d="M29.9552 36.8815C33.7557 36.8815 36.8367 33.8005 36.8367 30C36.8367 26.1995 33.7557 23.1185 29.9552 23.1185C26.1547 23.1185 23.0737 26.1995 23.0737 30C23.0737 33.8005 26.1547 36.8815 29.9552 36.8815Z" fill="#FBAF5E"/>
<path d="M29.9552 36.755C33.686 36.755 36.7103 33.7306 36.7103 29.9999C36.7103 26.2692 33.686 23.2449 29.9552 23.2449C26.2245 23.2449 23.2002 26.2692 23.2002 29.9999C23.2002 33.7306 26.2245 36.755 29.9552 36.755Z" fill="#FBAF5D"/>
<path d="M29.9553 36.6286C33.6162 36.6286 36.5839 33.6609 36.5839 30C36.5839 26.3391 33.6162 23.3713 29.9553 23.3713C26.2944 23.3713 23.3267 26.3391 23.3267 30C23.3267 33.6609 26.2944 36.6286 29.9553 36.6286Z" fill="#FBAE5C"/>
<path d="M29.9553 36.5022C33.5464 36.5022 36.4576 33.5911 36.4576 30C36.4576 26.4089 33.5464 23.4978 29.9553 23.4978C26.3643 23.4978 23.4531 26.4089 23.4531 30C23.4531 33.5911 26.3643 36.5022 29.9553 36.5022Z" fill="#FBAE5B"/>
<path d="M29.9554 36.3759C33.4766 36.3759 36.3312 33.5213 36.3312 30.0001C36.3312 26.4788 33.4766 23.6243 29.9554 23.6243C26.4341 23.6243 23.5796 26.4788 23.5796 30.0001C23.5796 33.5213 26.4341 36.3759 29.9554 36.3759Z" fill="#FBAD5B"/>
<path d="M29.9553 36.2439C33.4037 36.2439 36.1992 33.4484 36.1992 30C36.1992 26.5516 33.4037 23.7561 29.9553 23.7561C26.5069 23.7561 23.7114 26.5516 23.7114 30C23.7114 33.4484 26.5069 36.2439 29.9553 36.2439Z" fill="#FAAD5A"/>
<path d="M29.9554 36.1175C33.3339 36.1175 36.0728 33.3786 36.0728 30C36.0728 26.6215 33.3339 23.8826 29.9554 23.8826C26.5768 23.8826 23.8379 26.6215 23.8379 30C23.8379 33.3786 26.5768 36.1175 29.9554 36.1175Z" fill="#FAAD59"/>
<path d="M29.9552 35.991C33.2639 35.991 35.9462 33.3087 35.9462 30C35.9462 26.6912 33.2639 24.0089 29.9552 24.0089C26.6464 24.0089 23.9641 26.6912 23.9641 30C23.9641 33.3087 26.6464 35.991 29.9552 35.991Z" fill="#FAAC58"/>
<path d="M29.9552 35.8646C33.1942 35.8646 35.8198 33.239 35.8198 30C35.8198 26.7611 33.1942 24.1354 29.9552 24.1354C26.7163 24.1354 24.0906 26.7611 24.0906 30C24.0906 33.239 26.7163 35.8646 29.9552 35.8646Z" fill="#FAAC57"/>
<path d="M29.9553 35.7383C33.1244 35.7383 35.6935 33.1692 35.6935 30.0001C35.6935 26.8309 33.1244 24.2618 29.9553 24.2618C26.7861 24.2618 24.217 26.8309 24.217 30.0001C24.217 33.1692 26.7861 35.7383 29.9553 35.7383Z" fill="#FAAB56"/>
<path d="M29.9552 35.6063C33.0515 35.6063 35.5615 33.0963 35.5615 30C35.5615 26.9037 33.0515 24.3937 29.9552 24.3937C26.8589 24.3937 24.3489 26.9037 24.3489 30C24.3489 33.0963 26.8589 35.6063 29.9552 35.6063Z" fill="#FAAB55"/>
<path d="M29.9552 35.4799C32.9817 35.4799 35.4351 33.0265 35.4351 30C35.4351 26.9736 32.9817 24.5201 29.9552 24.5201C26.9288 24.5201 24.4753 26.9736 24.4753 30C24.4753 33.0265 26.9288 35.4799 29.9552 35.4799Z" fill="#FAAB54"/>
<path d="M29.9553 35.3534C32.9119 35.3534 35.3087 32.9566 35.3087 30C35.3087 27.0433 32.9119 24.6465 29.9553 24.6465C26.9986 24.6465 24.6018 27.0433 24.6018 30C24.6018 32.9566 26.9986 35.3534 29.9553 35.3534Z" fill="#FAAA53"/>
<path d="M29.9553 35.2271C32.8421 35.2271 35.1824 32.8868 35.1824 30C35.1824 27.1132 32.8421 24.7729 29.9553 24.7729C27.0685 24.7729 24.7283 27.1132 24.7283 30C24.7283 32.8868 27.0685 35.2271 29.9553 35.2271Z" fill="#FAAA53"/>
<path d="M29.9551 35.1006C32.7721 35.1006 35.0558 32.8169 35.0558 29.9999C35.0558 27.1829 32.7721 24.8993 29.9551 24.8993C27.1381 24.8993 24.8545 27.1829 24.8545 29.9999C24.8545 32.8169 27.1381 35.1006 29.9551 35.1006Z" fill="#FAA952"/>
<path d="M29.9553 34.9687C32.6994 34.9687 34.924 32.7441 34.924 30C34.924 27.2558 32.6994 25.0312 29.9553 25.0312C27.2111 25.0312 24.9866 27.2558 24.9866 30C24.9866 32.7441 27.2111 34.9687 29.9553 34.9687Z" fill="#FAA951"/>
<path d="M29.9553 34.8423C32.6297 34.8423 34.7977 32.6744 34.7977 30C34.7977 27.3257 32.6297 25.1577 29.9553 25.1577C27.281 25.1577 25.113 27.3257 25.113 30C25.113 32.6744 27.281 34.8423 29.9553 34.8423Z" fill="#FAA950"/>
<path d="M29.9552 34.716C32.5597 34.716 34.671 32.6046 34.671 30.0001C34.671 27.3956 32.5597 25.2842 29.9552 25.2842C27.3506 25.2842 25.2393 27.3956 25.2393 30.0001C25.2393 32.6046 27.3506 34.716 29.9552 34.716Z" fill="#FAA84F"/>
<path d="M29.9552 34.5895C32.4899 34.5895 34.5447 32.5347 34.5447 30C34.5447 27.4653 32.4899 25.4105 29.9552 25.4105C27.4205 25.4105 25.3657 27.4653 25.3657 30C25.3657 32.5347 27.4205 34.5895 29.9552 34.5895Z" fill="#FAA84E"/>
<path d="M29.9552 34.4631C32.4201 34.4631 34.4183 32.4649 34.4183 30C34.4183 27.5352 32.4201 25.537 29.9552 25.537C27.4904 25.537 25.4922 27.5352 25.4922 30C25.4922 32.4649 27.4904 34.4631 29.9552 34.4631Z" fill="#FAA74D"/>
<path d="M29.9552 34.3311C32.3472 34.3311 34.2863 32.392 34.2863 30C34.2863 27.6079 32.3472 25.6688 29.9552 25.6688C27.5631 25.6688 25.624 27.6079 25.624 30C25.624 32.392 27.5631 34.3311 29.9552 34.3311Z" fill="#FAA74C"/>
<path d="M29.9552 34.2047C32.2774 34.2047 34.1599 32.3222 34.1599 30C34.1599 27.6778 32.2774 25.7953 29.9552 25.7953C27.633 25.7953 25.7505 27.6778 25.7505 30C25.7505 32.3222 27.633 34.2047 29.9552 34.2047Z" fill="#FAA74B"/>
<path d="M29.9553 34.0783C32.2077 34.0783 34.0336 32.2523 34.0336 29.9999C34.0336 27.7476 32.2077 25.9216 29.9553 25.9216C27.7029 25.9216 25.877 27.7476 25.877 29.9999C25.877 32.2523 27.7029 34.0783 29.9553 34.0783Z" fill="#FAA64A"/>
<path d="M29.9553 33.9519C32.1379 33.9519 33.9072 32.1826 33.9072 30C33.9072 27.8174 32.1379 26.0481 29.9553 26.0481C27.7727 26.0481 26.0034 27.8174 26.0034 30C26.0034 32.1826 27.7727 33.9519 29.9553 33.9519Z" fill="#FAA649"/>
<path d="M29.9554 33.8255C32.0681 33.8255 33.7808 32.1128 33.7808 30C33.7808 27.8873 32.0681 26.1746 29.9554 26.1746C27.8426 26.1746 26.1299 27.8873 26.1299 30C26.1299 32.1128 27.8426 33.8255 29.9554 33.8255Z" fill="#FAA549"/>
<path d="M29.9552 33.699C31.9981 33.699 33.6542 32.0429 33.6542 30C33.6542 27.957 31.9981 26.3009 29.9552 26.3009C27.9122 26.3009 26.2561 27.957 26.2561 30C26.2561 32.0429 27.9122 33.699 29.9552 33.699Z" fill="#FAA548"/>
<path d="M29.9553 33.5672C31.9254 33.5672 33.5225 31.9701 33.5225 30C33.5225 28.0299 31.9254 26.4329 29.9553 26.4329C27.9853 26.4329 26.3882 28.0299 26.3882 30C26.3882 31.9701 27.9853 33.5672 29.9553 33.5672Z" fill="#FAA547"/>
<path d="M29.9551 33.4407C31.8554 33.4407 33.3959 31.9002 33.3959 29.9999C33.3959 28.0997 31.8554 26.5592 29.9551 26.5592C28.0549 26.5592 26.5144 28.0997 26.5144 29.9999C26.5144 31.9002 28.0549 33.4407 29.9551 33.4407Z" fill="#FAA446"/>
<path d="M29.9552 33.3143C31.7856 33.3143 33.2695 31.8304 33.2695 30C33.2695 28.1695 31.7856 26.6857 29.9552 26.6857C28.1247 26.6857 26.6409 28.1695 26.6409 30C26.6409 31.8304 28.1247 33.3143 29.9552 33.3143Z" fill="#FAA445"/>
<path d="M29.9552 33.1879C31.7159 33.1879 33.1431 31.7607 33.1431 30C33.1431 28.2394 31.7159 26.8121 29.9552 26.8121C28.1946 26.8121 26.7673 28.2394 26.7673 30C26.7673 31.7607 28.1946 33.1879 29.9552 33.1879Z" fill="#FAA444"/>
<path d="M29.9553 33.0616C31.6461 33.0616 33.0168 31.6909 33.0168 30.0001C33.0168 28.3093 31.6461 26.9386 29.9553 26.9386C28.2645 26.9386 26.8938 28.3093 26.8938 30.0001C26.8938 31.6909 28.2645 33.0616 29.9553 33.0616Z" fill="#F9A343"/>
<path d="M29.9552 32.9296C31.5732 32.9296 32.8848 31.618 32.8848 30C32.8848 28.382 31.5732 27.0704 29.9552 27.0704C28.3372 27.0704 27.0256 28.382 27.0256 30C27.0256 31.618 28.3372 32.9296 29.9552 32.9296Z" fill="#F9A342"/>
<path d="M29.9553 32.8032C31.5034 32.8032 32.7584 31.5482 32.7584 30.0001C32.7584 28.4519 31.5034 27.1969 29.9553 27.1969C28.4071 27.1969 27.1521 28.4519 27.1521 30.0001C27.1521 31.5482 28.4071 32.8032 29.9553 32.8032Z" fill="#F9A241"/>
<path d="M29.9553 32.6767C31.4336 32.6767 32.632 31.4783 32.632 30C32.632 28.5217 31.4336 27.3232 29.9553 27.3232C28.477 27.3232 27.2786 28.5217 27.2786 30C27.2786 31.4783 28.477 32.6767 29.9553 32.6767Z" fill="#F9A240"/>
<path d="M29.9553 32.5503C31.3639 32.5503 32.5057 31.4085 32.5057 30C32.5057 28.5915 31.3639 27.4497 29.9553 27.4497C28.5468 27.4497 27.405 28.5915 27.405 30C27.405 31.4085 28.5468 32.5503 29.9553 32.5503Z" fill="#F9A23F"/>
<path d="M29.9552 32.4239C31.2938 32.4239 32.3791 31.3386 32.3791 30C32.3791 28.6613 31.2938 27.576 29.9552 27.576C28.6165 27.576 27.5312 28.6613 27.5312 30C27.5312 31.3386 28.6165 32.4239 29.9552 32.4239Z" fill="#F9A13F"/>
<path d="M29.9553 32.292C31.2211 32.292 32.2473 31.2658 32.2473 30C32.2473 28.7342 31.2211 27.708 29.9553 27.708C28.6895 27.708 27.6633 28.7342 27.6633 30C27.6633 31.2658 28.6895 32.292 29.9553 32.292Z" fill="#F9A13E"/>
<path d="M29.9554 32.1656C31.1514 32.1656 32.1209 31.1961 32.1209 30C32.1209 28.804 31.1514 27.8345 29.9554 27.8345C28.7594 27.8345 27.7898 28.804 27.7898 30C27.7898 31.1961 28.7594 32.1656 29.9554 32.1656Z" fill="#F9A03D"/>
<path d="M29.9552 32.0391C31.0814 32.0391 31.9943 31.1262 31.9943 30C31.9943 28.8738 31.0814 27.9608 29.9552 27.9608C28.829 27.9608 27.916 28.8738 27.916 30C27.916 31.1262 28.829 32.0391 29.9552 32.0391Z" fill="#F9A03C"/>
<path d="M29.9552 31.9128C31.0116 31.9128 31.868 31.0564 31.868 30C31.868 28.9436 31.0116 28.0873 29.9552 28.0873C28.8988 28.0873 28.0425 28.9436 28.0425 30C28.0425 31.0564 28.8988 31.9128 29.9552 31.9128Z" fill="#F9A03B"/>
<path d="M29.9553 31.7863C30.9418 31.7863 31.7416 30.9865 31.7416 29.9999C31.7416 29.0134 30.9418 28.2136 29.9553 28.2136C28.9687 28.2136 28.1689 29.0134 28.1689 29.9999C28.1689 30.9865 28.9687 31.7863 29.9553 31.7863Z" fill="#F99F3A"/>
<path d="M29.9552 31.6544C30.8689 31.6544 31.6096 30.9137 31.6096 30C31.6096 29.0863 30.8689 28.3456 29.9552 28.3456C29.0415 28.3456 28.3008 29.0863 28.3008 30C28.3008 30.9137 29.0415 31.6544 29.9552 31.6544Z" fill="#F99F39"/>
<path d="M29.9552 31.528C30.7991 31.528 31.4832 30.8439 31.4832 30C31.4832 29.1562 30.7991 28.472 29.9552 28.472C29.1114 28.472 28.4272 29.1562 28.4272 30C28.4272 30.8439 29.1114 31.528 29.9552 31.528Z" fill="#F99E38"/>
<path d="M29.9553 31.4015C30.7294 31.4015 31.3569 30.774 31.3569 30C31.3569 29.2259 30.7294 28.5984 29.9553 28.5984C29.1812 28.5984 28.5537 29.2259 28.5537 30C28.5537 30.774 29.1812 31.4015 29.9553 31.4015Z" fill="#F99E37"/>
<path d="M29.9553 31.2752C30.6596 31.2752 31.2305 30.7043 31.2305 30C31.2305 29.2958 30.6596 28.7249 29.9553 28.7249C29.2511 28.7249 28.6802 29.2958 28.6802 30C28.6802 30.7043 29.2511 31.2752 29.9553 31.2752Z" fill="#F99E36"/>
<path d="M29.9551 31.1488C30.5896 31.1488 31.1039 30.6345 31.1039 30.0001C31.1039 29.3656 30.5896 28.8513 29.9551 28.8513C29.3207 28.8513 28.8064 29.3656 28.8064 30.0001C28.8064 30.6345 29.3207 31.1488 29.9551 31.1488Z" fill="#F99D36"/>
<path d="M29.9552 31.0223C30.5198 31.0223 30.9775 30.5646 30.9775 30C30.9775 29.4354 30.5198 28.9777 29.9552 28.9777C29.3906 28.9777 28.9329 29.4354 28.9329 30C28.9329 30.5646 29.3906 31.0223 29.9552 31.0223Z" fill="#F99D35"/>
<path d="M29.9554 30.8904C30.4471 30.8904 30.8458 30.4918 30.8458 30C30.8458 29.5083 30.4471 29.1096 29.9554 29.1096C29.4636 29.1096 29.0649 29.5083 29.0649 30C29.0649 30.4918 29.4636 30.8904 29.9554 30.8904Z" fill="#F99D34"/>
<path d="M29.9552 30.764C30.3771 30.764 30.7192 30.4219 30.7192 30C30.7192 29.578 30.3771 29.236 29.9552 29.236C29.5332 29.236 29.1912 29.578 29.1912 30C29.1912 30.4219 29.5332 30.764 29.9552 30.764Z" fill="#F99C33"/>
<path d="M29.9552 30.6376C30.3073 30.6376 30.5928 30.3521 30.5928 30C30.5928 29.6479 30.3073 29.3624 29.9552 29.3624C29.6031 29.3624 29.3176 29.6479 29.3176 30C29.3176 30.3521 29.6031 30.6376 29.9552 30.6376Z" fill="#F99C32"/>
<path d="M29.9553 30.5111C30.2376 30.5111 30.4664 30.2822 30.4664 29.9999C30.4664 29.7176 30.2376 29.4888 29.9553 29.4888C29.6729 29.4888 29.4441 29.7176 29.4441 29.9999C29.4441 30.2822 29.6729 30.5111 29.9553 30.5111Z" fill="#F99B31"/>
<path d="M29.9553 30.3847C30.1678 30.3847 30.3401 30.2125 30.3401 30C30.3401 29.7875 30.1678 29.6152 29.9553 29.6152C29.7428 29.6152 29.5706 29.7875 29.5706 30C29.5706 30.2125 29.7428 30.3847 29.9553 30.3847Z" fill="#F89B30"/>
<path d="M29.9552 30.2529C30.0949 30.2529 30.2081 30.1397 30.2081 30C30.2081 29.8604 30.0949 29.7472 29.9552 29.7472C29.8156 29.7472 29.7024 29.8604 29.7024 30C29.7024 30.1397 29.8156 30.2529 29.9552 30.2529Z" fill="#F89B2F"/>
<path d="M29.9553 30.1264C30.0251 30.1264 30.0817 30.0698 30.0817 30C30.0817 29.9301 30.0251 29.8735 29.9553 29.8735C29.8855 29.8735 29.8289 29.9301 29.8289 30C29.8289 30.0698 29.8855 30.1264 29.9553 30.1264Z" fill="#F89A2E"/>
</g>
</g>
<path d="M30.6973 46.4011C33.5224 46.4011 36.0178 45.7526 37.7106 44.2466C38.9968 43.1033 39.6179 41.8776 39.5684 40.6025C39.5244 39.5527 39.0133 38.5633 38.0569 37.6619C36.2816 35.9965 33.9896 36.2768 31.7746 36.5516C29.8288 36.788 27.8227 37.0353 25.6461 36.2823C21.0951 34.7049 18.6657 29.6867 18.2205 28.6973C18.0501 28.3126 17.8962 27.9168 17.7588 27.5156C21.1171 26.7626 24.0466 27.4606 25.4482 28.7578C25.5636 31.7643 26.3716 34.3641 27.0257 35.0951C27.4379 35.5568 27.9216 35.5953 28.1634 35.5733C29.3561 35.4798 29.4661 34.2596 29.532 33.5286C29.543 33.4022 29.7904 30.4562 28.004 27.8509C27.993 27.8344 27.9766 27.8124 27.9656 27.7959C27.9766 27.0319 28.048 26.2294 28.2019 25.4215C28.9714 21.3761 31.5712 18.6994 33.3795 17.2758C34.6876 19.9086 35.4736 22.6018 35.7155 25.2951C35.8254 26.5098 35.8089 27.5541 35.6605 28.5324C34.8031 29.1535 33.5829 30.2143 32.6924 31.8247C31.4668 34.0343 31.3458 35.4798 32.3352 36.1174C33.4015 36.8045 34.4238 35.8096 35.0339 35.216C36.6608 33.6331 37.4083 31.8247 37.7106 30.8904C37.7986 30.621 37.8755 30.3462 37.9415 30.0714C40.5193 28.5324 43.7182 28.4775 45.6804 28.6369C45.4605 29.2579 45.2077 29.857 44.9164 30.4452C44.9164 30.4452 44.4382 31.4015 43.8611 32.237C42.0583 34.8587 39.7828 35.3534 39.9092 36.6616C39.9642 37.2167 40.4259 37.6839 40.8546 37.8323C41.7835 38.1566 42.8882 37.1178 43.8941 36.1779C44.8614 35.271 45.4605 34.3971 45.9552 33.666C47.1589 31.9017 48.0328 29.9505 48.5605 27.8674L48.8958 26.5317L47.5382 26.3064C45.8563 26.0261 41.9483 25.6193 38.3207 27.0594C38.3317 26.4218 38.3097 25.7622 38.2438 25.0587C37.9305 21.574 36.8147 18.1113 34.9295 14.764L34.2644 13.5878L33.1322 14.3188C31.2799 15.517 26.8498 18.9467 25.712 24.9268C25.6571 25.2071 25.6131 25.4874 25.5746 25.7677C23.0298 24.4541 19.3747 24.2617 15.7856 25.4105L14.6533 25.7732L14.9391 26.9275C15.1755 27.8838 15.4998 28.8237 15.8955 29.7196C16.4122 30.8794 19.2648 36.755 24.8106 38.6732C27.5368 39.6186 30.0542 39.3108 32.0769 39.0635C34.204 38.8051 35.4516 38.6952 36.3146 39.5087C36.4849 39.6681 37.0071 40.1573 37.0291 40.7069C37.0511 41.1851 36.7103 41.7347 36.0233 42.3448C34.4403 43.7519 26.6409 44.4334 17.3905 39.789C15.1755 38.6787 11.8887 36.7605 8.36548 33.5451C7.59599 32.902 6.8265 32.2535 6.0625 31.6104C8.65129 35.9965 12.0206 39.4757 16.0659 41.9491C20.3751 44.5873 25.9924 46.3901 30.6973 46.3901V46.4011Z" fill="#F7B319"/>
</g>
<defs>
<clipPath id="clip0_1191_1104">
<rect width="242" height="59.9105" fill="white" transform="translate(0 0.0447998)"/>
</clipPath>
</defs>
</svg>
