<svg width="22" height="22" viewBox="0 0 22 22" fill="none" xmlns="http://www.w3.org/2000/svg">
<g id="arrow-right 1" clip-path="url(#clip0_345_8773)">
<g id="Vector">
<path d="M15.0094 19.7064C15.5086 20.1382 16.2667 20.0878 16.7031 19.5942C17.139 19.1002 17.088 18.35 16.5893 17.9182L8.02168 10.5002L16.5897 3.08175C17.0889 2.64992 17.1395 1.89977 16.7035 1.40619C16.2671 0.91218 15.5091 0.861738 15.0099 1.29356L5.41001 9.6061C5.14942 9.83137 5 10.1575 5 10.5002C5 10.8429 5.14942 11.1686 5.41001 11.3943L15.0094 19.7064Z" fill="white"/>
<path d="M15.0094 19.7064C15.5086 20.1382 16.2667 20.0878 16.7031 19.5942C17.139 19.1002 17.088 18.35 16.5893 17.9182L8.02168 10.5002L16.5897 3.08175C17.0889 2.64992 17.1395 1.89977 16.7035 1.40619C16.2671 0.91218 15.5091 0.861738 15.0099 1.29356L5.41001 9.6061C5.14942 9.83137 5 10.1575 5 10.5002C5 10.8429 5.14942 11.1686 5.41001 11.3943L15.0094 19.7064Z" fill="url(#paint0_linear_345_8773)"/>
</g>
</g>
<defs>
<linearGradient id="paint0_linear_345_8773" x1="5.37037" y1="-12.7019" x2="19.9046" y2="-11.6926" gradientUnits="userSpaceOnUse">
<stop stop-color="#A92902"/>
<stop offset="0.494792" stop-color="#E25704"/>
<stop offset="1" stop-color="#F49004"/>
</linearGradient>
<clipPath id="clip0_345_8773">
<rect width="22" height="22" fill="white" transform="translate(22 22) rotate(-180)"/>
</clipPath>
</defs>
</svg>
