<svg width="25" height="24" viewBox="0 0 25 24" fill="none" xmlns="http://www.w3.org/2000/svg">
<g id="insurance (1) 1">
<g id="Layer 2">
<path id="Vector" d="M20.5732 4.18137C19.2326 4.03934 17.9131 3.7411 16.6416 3.29273C15.4752 2.88052 14.3562 2.34476 13.3037 1.69458C13.0292 1.52647 12.7135 1.4375 12.3916 1.4375C12.0697 1.4375 11.754 1.52647 11.4795 1.69458C10.427 2.34477 9.30803 2.88054 8.1416 3.29273C6.87015 3.74111 5.55065 4.03936 4.20996 4.1814C3.77965 4.22557 3.38103 4.42785 3.0913 4.74906C2.80156 5.07027 2.64132 5.48756 2.6416 5.92014V11.1154C2.64229 13.0324 3.15525 14.9144 4.12738 16.5666C5.09952 18.2189 6.49551 19.5813 8.1709 20.5129L11.541 22.385C11.8007 22.5306 12.0934 22.6071 12.391 22.6071C12.6887 22.6072 12.9815 22.5309 13.2412 22.3855L16.6123 20.5129C18.2877 19.5813 19.6837 18.2189 20.6558 16.5666C21.628 14.9144 22.1409 13.0324 22.1416 11.1154V5.92014C22.1419 5.48756 21.9817 5.07026 21.6919 4.74904C21.4022 4.42782 21.0036 4.22554 20.5732 4.18137Z" fill="white"/>
<path id="Vector_2" d="M11.6913 15.2339C11.3974 15.2343 11.1136 15.1261 10.8945 14.9302L8.04485 12.3975C7.9266 12.293 7.83013 12.1662 7.76098 12.0243C7.69182 11.8825 7.65133 11.7284 7.64183 11.5708C7.63232 11.4133 7.654 11.2554 7.7056 11.1063C7.75721 10.9572 7.83773 10.8197 7.94256 10.7017C8.04739 10.5838 8.17447 10.4876 8.31651 10.4189C8.45855 10.3501 8.61276 10.31 8.77031 10.3009C8.92786 10.2919 9.08566 10.314 9.23465 10.366C9.38365 10.418 9.52092 10.4989 9.6386 10.604L11.6152 12.3604L15.5663 8.146C15.7841 7.91432 16.0849 7.77846 16.4027 7.7682C16.7205 7.75795 17.0294 7.87415 17.2617 8.09131C17.4938 8.30905 17.6301 8.61004 17.6405 8.92818C17.651 9.24632 17.5347 9.55559 17.3173 9.78809L12.5673 14.855C12.4552 14.975 12.3196 15.0707 12.1689 15.1359C12.0181 15.2011 11.8556 15.2344 11.6913 15.2339Z" fill="#0DB561"/>
</g>
</g>
</svg>
