<svg width="173" height="128" viewBox="0 0 173 128" fill="none" xmlns="http://www.w3.org/2000/svg">
<path fill-rule="evenodd" clip-rule="evenodd" d="M82.6582 17.3375C82.6582 17.3375 65.9646 56.9447 66.308 58.0912C66.6514 59.2377 86.4965 87.3909 86.4965 87.3909L103.262 59.3042L90.7059 17.0771L82.6582 17.3375Z" fill="#C49E7A"/>
<path fill-rule="evenodd" clip-rule="evenodd" d="M158.865 99.9683C157.829 100.201 123.174 91.9095 116.727 89.4891C110.28 87.0687 110.28 83.0421 111.083 76.3624C111.891 69.6827 112.235 57.0213 110.966 54.4901C109.698 51.9589 101.412 29.1617 99.3352 22.9417C97.2638 16.7273 95.2255 11.2218 94.7658 10.1307C94.3061 9.03958 92.3011 1.64542 90.357 0.897695C88.0086 -0.00511205 85.0842 8.44694 87.0836 11.316C87.0836 11.316 87.0227 11.5431 86.5021 14.9992C85.9814 18.4554 86.9341 24.1934 86.8399 24.3928C86.7458 24.5978 86.2695 25.9326 85.9814 29.6768C85.6934 33.4209 87.1335 37.3312 87.1335 37.8519C87.1335 38.3725 87.5378 41.2471 88.2855 43.8392C89.0333 46.4313 91.3374 53.8532 91.3374 53.8532C91.3374 53.8532 89.2659 57.8853 87.8812 69.3947C86.5021 80.9097 86.1531 94.1472 89.493 99.4421C92.8328 104.737 112.058 111.417 112.75 111.533C113.442 111.649 168.015 128 168.015 128L172.85 102.898L158.865 99.9628V99.9683Z" fill="#FFDA9E"/>
<path fill-rule="evenodd" clip-rule="evenodd" d="M158.866 99.9684C157.83 100.201 123.174 91.9096 116.727 89.4892C110.28 87.0688 110.28 83.0422 111.083 76.3625C111.892 69.6828 112.235 57.0214 110.967 54.4902C109.699 51.959 101.468 29.6214 99.3965 23.4015C97.3251 17.1871 94.6997 11.1887 94.2345 10.092C94.0185 9.57691 92.5729 7.17311 91.7919 5.18472C91.371 4.10467 91.094 3.12433 90.8282 2.4043C89.7592 6.17061 89.0503 10.0809 89.15 10.5185C89.3493 11.4379 90.5679 22.8864 90.5679 22.8864C90.5679 22.8864 90.0306 28.0152 91.8805 34.9275C93.736 41.8398 99.1362 50.4691 100.227 54.1523C101.318 57.8356 101.667 68.8299 100.859 75.6258C100.05 82.4163 97.6352 95.6593 112.833 101.414C124.67 105.895 156.678 113.239 170.264 116.274L172.84 102.893L158.854 99.9573L158.866 99.9684Z" fill="#FFE8B4"/>
<path fill-rule="evenodd" clip-rule="evenodd" d="M86.8233 24.4377C86.9064 24.0777 87.6264 23.69 88.28 23.3909C88.5902 23.2469 88.9225 23.1361 89.2437 23.0752C89.5539 23.0143 89.8419 23.0032 90.0801 23.053C90.2961 23.1029 90.4678 23.2081 90.5509 23.3909C91.5423 25.551 92.7996 29.8213 93.5528 32.3913C93.7301 33.0005 93.8796 33.5156 93.9959 33.8867C94.6606 36.0523 95.4194 38.3897 96.7764 41.3916C98.1333 44.3936 99.4405 46.67 102.492 51.4998L103.434 52.7127C100.393 47.8941 98.449 44.2385 97.0976 41.2476C95.7461 38.2567 94.9929 35.936 94.3282 33.7815C94.2175 33.4215 94.0624 32.9008 93.8852 32.286C93.1264 29.705 91.8691 25.4236 90.8666 23.2358C90.7336 22.9422 90.4789 22.7761 90.1521 22.7041C89.8696 22.6432 89.5262 22.6542 89.1773 22.7207C88.8339 22.7872 88.4738 22.909 88.136 23.0641C87.1169 23.5293 86.8178 23.8783 86.8233 24.4266V24.4377Z" fill="#F6BE88"/>
<path fill-rule="evenodd" clip-rule="evenodd" d="M106.974 48.4641C106.957 48.4309 100.361 36.9658 98.0621 30.5299C96.9156 27.3119 96.1734 25.3069 95.6306 23.9443C95.0878 22.5818 94.7555 21.8895 94.4231 21.2913C93.7807 20.1448 92.9997 18.0789 92.9665 17.9958C92.9332 17.8905 91.0168 11.8755 90.4519 11.1223C89.6045 9.99237 88.2586 10.657 87.7656 11.3715C88.4413 11.0558 89.4992 10.4133 90.1029 11.2164C90.6347 11.9254 92.6341 18.0844 92.6397 18.101C92.6397 18.101 93.4539 20.2722 94.1185 21.463C94.4453 22.0501 94.7776 22.7314 95.3093 24.0717C95.841 25.4066 96.5832 27.4171 97.7353 30.6462C100.039 37.1043 105.429 46.2099 105.451 46.2431L106.974 48.4586V48.4641Z" fill="#F6BE88"/>
<path fill-rule="evenodd" clip-rule="evenodd" d="M92.6612 17.1321C92.6612 17.1321 90.5288 10.5133 90.0968 10.1976C87.7871 8.5028 88.0308 18.7882 92.6612 17.1321Z" fill="#FF6213"/>
<path fill-rule="evenodd" clip-rule="evenodd" d="M94.7718 10.131C94.7718 10.131 91.8086 0.92018 91.2048 0.477085C87.9869 -1.8824 88.3303 12.4296 94.7718 10.131Z" fill="#FF6213"/>
<path fill-rule="evenodd" clip-rule="evenodd" d="M92.7831 28.7463C92.7831 28.7463 91.0717 22.5485 90.6396 22.2328C88.33 20.5379 88.1528 30.4024 92.7831 28.7463Z" fill="#FF6213"/>
<path fill-rule="evenodd" clip-rule="evenodd" d="M90.2573 95.3597C91.7528 99.7353 95.6686 101.923 104.536 106.299C113.404 110.674 168.646 124.715 168.646 124.715L168.015 127.999C168.015 127.999 113.442 111.649 112.75 111.533C112.058 111.416 93.5584 105.706 89.493 99.4418C85.4331 93.183 86.5021 80.9038 87.8812 69.3943C89.2604 57.8794 91.3374 53.8528 91.3374 53.8528C91.3374 53.8528 89.0333 46.4254 88.2855 43.8388C87.5378 41.2467 87.1335 38.3721 87.1335 37.8515C87.1335 37.3308 85.6934 33.4205 85.9814 29.6764C86.2528 26.1205 86.6959 24.7358 86.8233 24.4312C86.8289 24.4146 86.8344 24.4035 86.8399 24.3924C86.8399 24.3869 86.8399 24.3758 86.8399 24.3648C86.923 24.1764 87.1667 23.9826 87.4714 23.7998C87.2443 25.2842 86.5076 30.3022 86.6516 32.1799C86.8233 34.3953 88.5514 36.6994 88.5514 36.6994C88.5514 36.6994 87.8591 37.4748 87.7483 38.9426C87.632 40.4103 90.8832 49.7098 91.7472 51.953C92.6113 54.1962 94.799 53.7365 94.799 53.7365L92.0962 54.4288C92.0962 54.4288 90.7724 60.5324 89.5041 67.3229C88.2357 74.1133 88.7563 90.9842 90.2518 95.3597H90.2573Z" fill="#F6BE88"/>
<path fill-rule="evenodd" clip-rule="evenodd" d="M87.5432 23.3797C87.1001 23.6455 86.9007 23.8948 86.8398 24.1994C86.7678 23.1415 86.0311 18.129 86.5019 14.9941C87.0225 11.538 87.7703 11.3662 87.7703 11.3662C87.9143 11.2998 88.0694 11.2167 88.2355 11.1392C88.1081 11.2776 87.9586 11.4715 87.8589 11.6986C87.6484 12.1749 86.801 15.6864 86.9173 18.3616C87.0336 21.0368 87.5432 23.3741 87.5432 23.3741V23.3797Z" fill="#F6BE88"/>
<path fill-rule="evenodd" clip-rule="evenodd" d="M14.1281 99.4649C15.1638 99.6975 49.8195 91.4061 56.2665 88.9857C62.7135 86.5653 62.7135 82.5387 61.9104 75.859C61.1018 69.1793 60.7584 56.5179 62.0267 53.9867C63.2951 51.4555 71.5256 29.118 73.5971 22.898C75.6685 16.6836 78.2939 10.6852 78.7591 9.58852C78.9751 9.07342 80.4207 6.66963 81.2017 4.68124C82.0713 2.4713 82.3094 0.676758 83.1569 0.676758C86.3748 0.676758 87.1226 8.36447 86.2364 11.095C86.2364 11.095 85.9761 11.0397 86.4967 14.4903C87.0173 17.9464 86.0647 23.6845 86.1588 23.8839C86.253 24.0888 86.7293 25.4236 87.0173 29.1678C87.3053 32.912 85.8653 36.8223 85.8653 37.3429C85.8653 37.8636 85.461 40.7381 84.7132 43.3302C83.9655 45.9224 81.6614 53.3442 81.6614 53.3442C81.6614 53.3442 83.7329 57.3764 85.1175 68.8858C86.4967 80.4007 86.8456 93.6382 83.5058 98.9332C80.166 104.228 60.9412 110.908 60.2488 111.024C59.5565 111.14 4.98372 127.491 4.98372 127.491L0.148438 102.389L14.1336 99.4538L14.1281 99.4649Z" fill="#FFDA9E"/>
<path fill-rule="evenodd" clip-rule="evenodd" d="M14.1274 99.465C15.1632 99.6976 49.8188 91.4062 56.2658 88.9858C62.7129 86.5654 62.7129 82.5387 61.9098 75.8591C61.1011 69.1794 60.7577 56.5179 62.0261 53.9868C63.2944 51.4556 71.5249 29.118 73.5964 22.8981C75.6679 16.6837 78.2932 10.6852 78.7585 9.58859C78.9745 9.07349 80.4201 6.6697 81.201 4.68131C81.622 3.60126 81.8989 2.62091 82.1648 1.90088C83.2337 5.66719 83.9427 9.57751 83.843 10.0151C83.6436 10.9345 82.4251 22.383 82.4251 22.383C82.4251 22.383 82.9624 27.5118 81.1124 34.4241C79.257 41.3364 73.8567 49.9657 72.7656 53.6489C71.6745 57.3321 71.3255 68.3265 72.1342 75.1224C72.9373 81.9129 75.3577 95.1559 60.1595 100.911C48.3234 105.391 16.3152 112.736 2.72881 115.771L0.15332 102.389L14.1385 99.4539L14.1274 99.465Z" fill="#FFE8B4"/>
<path fill-rule="evenodd" clip-rule="evenodd" d="M86.1691 23.9333C86.0861 23.5733 85.366 23.1856 84.7125 22.8865C84.4023 22.7425 84.07 22.6317 83.7487 22.5708C83.4386 22.5099 83.1506 22.4988 82.9124 22.5486C82.6964 22.5985 82.5247 22.7037 82.4416 22.8865C81.4502 25.0466 80.1929 29.3169 79.4396 31.8869C79.2624 32.4961 79.1128 33.0057 78.9965 33.3823C78.3319 35.5479 77.5731 37.8853 76.2161 40.8873C74.8591 43.8892 73.552 46.1656 70.5002 50.9954L69.5586 52.2083C72.5993 47.3897 74.5434 43.7341 75.8949 40.7432C77.2463 37.7523 77.9996 35.4316 78.6642 33.2771C78.775 32.9171 78.9301 32.3964 79.1073 31.7816C79.8661 29.2006 81.1234 24.9192 82.1259 22.7314C82.2588 22.4379 82.5136 22.2717 82.8404 22.1997C83.1229 22.1388 83.4663 22.1498 83.8152 22.2163C84.1586 22.2828 84.5186 22.4046 84.8565 22.5597C85.8756 23.025 86.1747 23.3739 86.1691 23.9222V23.9333Z" fill="#F6BE88"/>
<path fill-rule="evenodd" clip-rule="evenodd" d="M66.0195 47.9607C66.0361 47.9275 72.6327 36.4624 74.9313 30.0264C76.0778 26.8085 76.82 24.8034 77.3628 23.4409C77.9056 22.0784 78.2379 21.3861 78.5702 20.7879C79.2127 19.6414 79.9937 17.5754 80.0269 17.4924C80.0601 17.3871 81.9765 11.3721 82.5415 10.6188C83.3889 9.48895 84.7348 10.1536 85.2277 10.8681C84.552 10.5524 83.4941 9.90989 82.8904 10.713C82.3587 11.4219 80.3592 17.581 80.3537 17.5976C80.3537 17.5976 79.545 19.7688 78.8748 20.9596C78.5481 21.5467 78.2157 22.2279 77.684 23.5683C77.1523 24.9031 76.4101 26.9137 75.2581 30.1427C72.954 36.6009 67.5648 45.7065 67.5427 45.7397L66.0195 47.9552V47.9607Z" fill="#F6BE88"/>
<path fill-rule="evenodd" clip-rule="evenodd" d="M80.332 16.6277C80.332 16.6277 82.4644 10.009 82.8964 9.69325C85.2061 7.99841 84.9624 18.2838 80.332 16.6277Z" fill="#FF6213"/>
<path fill-rule="evenodd" clip-rule="evenodd" d="M78.7529 9.59435C78.7529 9.59435 82.3531 0.616119 82.9845 0.217333C86.3576 -1.90953 85.0172 12.3415 78.7529 9.59435Z" fill="#FF6213"/>
<path fill-rule="evenodd" clip-rule="evenodd" d="M80.21 28.2429C80.21 28.2429 81.9214 22.0451 82.3534 21.7294C84.6631 20.0345 84.8403 29.8989 80.21 28.2429Z" fill="#FF6213"/>
<path fill-rule="evenodd" clip-rule="evenodd" d="M82.7358 94.8617C81.2404 99.2373 77.3245 101.425 68.4571 105.801C59.5896 110.176 4.34668 124.217 4.34668 124.217L4.97809 127.501C4.97809 127.501 59.5509 111.151 60.2432 111.035C60.9355 110.918 78.9529 105.507 83.5002 98.9437C88.0474 92.3804 86.4911 80.4057 85.1119 68.8963C83.7328 57.3813 81.6558 53.3547 81.6558 53.3547C81.6558 53.3547 83.9599 45.9273 84.7076 43.3408C85.4553 40.7486 85.8597 37.8741 85.8597 37.3534C85.8597 36.8328 87.2997 32.9225 87.0117 29.1783C86.7403 25.6225 86.2972 24.2378 86.1698 23.9332C86.1643 23.9166 86.1587 23.9055 86.1532 23.8944C86.1532 23.8889 86.1532 23.8778 86.1532 23.8667C86.0701 23.6784 85.8264 23.4845 85.5218 23.3018C85.7489 24.7861 86.4855 29.8042 86.3415 31.6818C86.1698 33.8973 84.4418 36.2014 84.4418 36.2014C84.4418 36.2014 85.1341 36.9768 85.2504 38.4445C85.3667 39.9123 82.1155 49.2118 81.2515 51.4549C80.3874 53.6981 78.1996 53.2384 78.1996 53.2384L80.9025 53.9307C80.9025 53.9307 82.2263 60.0344 83.4946 66.8248C84.763 73.6153 84.2424 90.4861 82.7469 94.8617H82.7358Z" fill="#F6BE88"/>
<path fill-rule="evenodd" clip-rule="evenodd" d="M85.4501 22.8811C85.8932 23.147 86.0926 23.3962 86.1536 23.7009C86.2256 22.643 86.9622 17.6305 86.4914 14.4956C85.9708 11.0394 85.2231 10.8677 85.2231 10.8677C85.0791 10.8012 84.924 10.7182 84.7578 10.6406C84.8852 10.7791 85.0347 10.9729 85.1344 11.2C85.3449 11.6764 86.1923 15.1879 86.076 17.8631C85.9597 20.5383 85.4501 22.8756 85.4501 22.8756V22.8811Z" fill="#F6BE88"/>
<path fill-rule="evenodd" clip-rule="evenodd" d="M84.6746 1.37988C84.8574 2.28823 84.8186 3.54551 84.5527 4.81387C84.8961 5.61144 85.1841 6.3924 85.2838 6.91858C85.5442 8.26448 85.1343 10.131 85.0124 10.635C85.09 10.7126 85.1565 10.7957 85.2118 10.8787C85.2118 10.8787 85.9596 11.0504 86.4802 14.5066C85.9596 11.0504 86.2199 11.1114 86.2199 11.1114C86.3417 10.7347 86.4359 10.2639 86.4913 9.72669C86.5744 8.9402 86.591 8.02077 86.5245 7.0792C86.3694 4.8748 85.7768 2.52639 84.6691 1.38542L84.6746 1.37988Z" fill="#F6BE88"/>
<path fill-rule="evenodd" clip-rule="evenodd" d="M89.6814 0.881516C89.4654 1.30246 89.3214 1.90063 89.2549 2.59297C88.834 3.19669 88.413 3.95549 88.1804 4.81952C87.5878 7.00731 88.3466 10.829 88.3466 10.829C88.1084 10.9841 87.9035 11.178 87.765 11.3773C87.765 11.3773 87.045 11.5435 86.5299 14.8113C86.5188 14.7061 86.5022 14.6009 86.4856 14.4956C85.9649 11.0395 86.2252 11.1004 86.2252 11.1004C86.3471 10.7238 86.4412 10.253 86.4966 9.71574C86.5797 8.92924 86.5963 8.00982 86.5299 7.06824C86.9287 4.26566 88.3133 1.29692 89.6758 0.875977L89.6814 0.881516Z" fill="#F6BE88"/>
<path d="M41.0908 87.6284C43.1568 87.6284 44.835 89.3066 44.835 91.3726V116.358C44.835 118.424 43.1568 120.102 41.0908 120.102C39.0249 120.102 37.3467 118.424 37.3467 116.358V91.3726C37.3467 89.3066 39.0249 87.6284 41.0908 87.6284Z" fill="#BD2790"/>
<mask id="mask0_416_8595" style="mask-type:luminance" maskUnits="userSpaceOnUse" x="37" y="87" width="8" height="34">
<path d="M41.0908 87.6284C43.1568 87.6284 44.835 89.3066 44.835 91.3726V116.358C44.835 118.424 43.1568 120.102 41.0908 120.102C39.0249 120.102 37.3467 118.424 37.3467 116.358V91.3726C37.3467 89.3066 39.0249 87.6284 41.0908 87.6284Z" fill="white"/>
</mask>
<g mask="url(#mask0_416_8595)">
<path fill-rule="evenodd" clip-rule="evenodd" d="M37.0644 89.0797C38.6817 89.0797 39.9999 88.5868 39.9999 87.9886C39.9999 87.3904 38.6817 86.8975 37.0644 86.8975C35.4471 86.8975 34.1289 87.3904 34.1289 87.9886C34.1289 88.5868 35.4471 89.0797 37.0644 89.0797Z" fill="#C8E317"/>
<path fill-rule="evenodd" clip-rule="evenodd" d="M37.0644 92.879C38.6817 92.879 39.9999 92.3861 39.9999 91.7879C39.9999 91.1897 38.6817 90.6968 37.0644 90.6968C35.4471 90.6968 34.1289 91.1897 34.1289 91.7879C34.1289 92.3861 35.4471 92.879 37.0644 92.879Z" fill="#C8E317"/>
<path fill-rule="evenodd" clip-rule="evenodd" d="M37.0644 96.6788C38.6817 96.6788 39.9999 96.1859 39.9999 95.5877C39.9999 94.9895 38.6817 94.4966 37.0644 94.4966C35.4471 94.4966 34.1289 94.9895 34.1289 95.5877C34.1289 96.1859 35.4471 96.6788 37.0644 96.6788Z" fill="#C8E317"/>
<path fill-rule="evenodd" clip-rule="evenodd" d="M37.0644 100.478C38.6817 100.478 39.9999 99.9852 39.9999 99.387C39.9999 98.7888 38.6817 98.2959 37.0644 98.2959C35.4471 98.2959 34.1289 98.7888 34.1289 99.387C34.1289 99.9852 35.4471 100.478 37.0644 100.478Z" fill="#C8E317"/>
<path fill-rule="evenodd" clip-rule="evenodd" d="M37.0644 104.278C38.6817 104.278 39.9999 103.785 39.9999 103.187C39.9999 102.589 38.6817 102.096 37.0644 102.096C35.4471 102.096 34.1289 102.589 34.1289 103.187C34.1289 103.785 35.4471 104.278 37.0644 104.278Z" fill="#C8E317"/>
<path fill-rule="evenodd" clip-rule="evenodd" d="M37.0644 108.077C38.6817 108.077 39.9999 107.584 39.9999 106.986C39.9999 106.387 38.6817 105.895 37.0644 105.895C35.4471 105.895 34.1289 106.387 34.1289 106.986C34.1289 107.584 35.4471 108.077 37.0644 108.077Z" fill="#C8E317"/>
<path fill-rule="evenodd" clip-rule="evenodd" d="M37.0644 111.877C38.6817 111.877 39.9999 111.384 39.9999 110.785C39.9999 110.187 38.6817 109.694 37.0644 109.694C35.4471 109.694 34.1289 110.187 34.1289 110.785C34.1289 111.384 35.4471 111.877 37.0644 111.877Z" fill="#C8E317"/>
<path fill-rule="evenodd" clip-rule="evenodd" d="M37.0644 115.676C38.6817 115.676 39.9999 115.183 39.9999 114.585C39.9999 113.987 38.6817 113.494 37.0644 113.494C35.4471 113.494 34.1289 113.987 34.1289 114.585C34.1289 115.183 35.4471 115.676 37.0644 115.676Z" fill="#C8E317"/>
<path fill-rule="evenodd" clip-rule="evenodd" d="M37.0644 119.476C38.6817 119.476 39.9999 118.983 39.9999 118.385C39.9999 117.787 38.6817 117.294 37.0644 117.294C35.4471 117.294 34.1289 117.787 34.1289 118.385C34.1289 118.983 35.4471 119.476 37.0644 119.476Z" fill="#C8E317"/>
<path fill-rule="evenodd" clip-rule="evenodd" d="M44.8349 90.8634C46.4522 90.8634 47.7704 90.3705 47.7704 89.7723C47.7704 89.1741 46.4522 88.6812 44.8349 88.6812C43.2176 88.6812 41.8994 89.1741 41.8994 89.7723C41.8994 90.3705 43.2176 90.8634 44.8349 90.8634Z" fill="#C8E317"/>
<path fill-rule="evenodd" clip-rule="evenodd" d="M44.8349 94.6627C46.4522 94.6627 47.7704 94.1698 47.7704 93.5716C47.7704 92.9734 46.4522 92.4805 44.8349 92.4805C43.2176 92.4805 41.8994 92.9734 41.8994 93.5716C41.8994 94.1698 43.2176 94.6627 44.8349 94.6627Z" fill="#C8E317"/>
<path fill-rule="evenodd" clip-rule="evenodd" d="M44.8349 98.462C46.4522 98.462 47.7704 97.9691 47.7704 97.3709C47.7704 96.7727 46.4522 96.2798 44.8349 96.2798C43.2176 96.2798 41.8994 96.7727 41.8994 97.3709C41.8994 97.9691 43.2176 98.462 44.8349 98.462Z" fill="#C8E317"/>
<path fill-rule="evenodd" clip-rule="evenodd" d="M44.8349 102.262C46.4522 102.262 47.7704 101.769 47.7704 101.171C47.7704 100.573 46.4522 100.08 44.8349 100.08C43.2176 100.08 41.8994 100.573 41.8994 101.171C41.8994 101.769 43.2176 102.262 44.8349 102.262Z" fill="#C8E317"/>
<path fill-rule="evenodd" clip-rule="evenodd" d="M44.8349 106.061C46.4522 106.061 47.7704 105.568 47.7704 104.97C47.7704 104.372 46.4522 103.879 44.8349 103.879C43.2176 103.879 41.8994 104.372 41.8994 104.97C41.8994 105.568 43.2176 106.061 44.8349 106.061Z" fill="#C8E317"/>
<path fill-rule="evenodd" clip-rule="evenodd" d="M44.8349 109.861C46.4522 109.861 47.7704 109.368 47.7704 108.77C47.7704 108.172 46.4522 107.679 44.8349 107.679C43.2176 107.679 41.8994 108.172 41.8994 108.77C41.8994 109.368 43.2176 109.861 44.8349 109.861Z" fill="#C8E317"/>
<path fill-rule="evenodd" clip-rule="evenodd" d="M44.8349 113.66C46.4522 113.66 47.7704 113.167 47.7704 112.569C47.7704 111.971 46.4522 111.478 44.8349 111.478C43.2176 111.478 41.8994 111.971 41.8994 112.569C41.8994 113.167 43.2176 113.66 44.8349 113.66Z" fill="#C8E317"/>
<path fill-rule="evenodd" clip-rule="evenodd" d="M44.8349 117.46C46.4522 117.46 47.7704 116.967 47.7704 116.368C47.7704 115.77 46.4522 115.277 44.8349 115.277C43.2176 115.277 41.8994 115.77 41.8994 116.368C41.8994 116.967 43.2176 117.46 44.8349 117.46Z" fill="#C8E317"/>
<path fill-rule="evenodd" clip-rule="evenodd" d="M44.8349 121.259C46.4522 121.259 47.7704 120.766 47.7704 120.168C47.7704 119.57 46.4522 119.077 44.8349 119.077C43.2176 119.077 41.8994 119.57 41.8994 120.168C41.8994 120.766 43.2176 121.259 44.8349 121.259Z" fill="#C8E317"/>
<path fill-rule="evenodd" clip-rule="evenodd" d="M37.1211 88.8463C38.7384 88.8463 40.0566 88.3534 40.0566 87.7552C40.0566 87.157 38.7384 86.6641 37.1211 86.6641C35.5038 86.6641 34.1855 87.157 34.1855 87.7552C34.1855 88.3534 35.5038 88.8463 37.1211 88.8463Z" fill="#C8E317"/>
<path fill-rule="evenodd" clip-rule="evenodd" d="M37.1211 92.6466C38.7384 92.6466 40.0566 92.1537 40.0566 91.5555C40.0566 90.9573 38.7384 90.4644 37.1211 90.4644C35.5038 90.4644 34.1855 90.9573 34.1855 91.5555C34.1855 92.1537 35.5038 92.6466 37.1211 92.6466Z" fill="#C8E317"/>
<path fill-rule="evenodd" clip-rule="evenodd" d="M37.1211 96.4464C38.7384 96.4464 40.0566 95.9534 40.0566 95.3553C40.0566 94.7571 38.7384 94.2642 37.1211 94.2642C35.5038 94.2642 34.1855 94.7571 34.1855 95.3553C34.1855 95.9534 35.5038 96.4464 37.1211 96.4464Z" fill="#C8E317"/>
<path fill-rule="evenodd" clip-rule="evenodd" d="M37.1211 100.246C38.7384 100.246 40.0566 99.7528 40.0566 99.1546C40.0566 98.5564 38.7384 98.0635 37.1211 98.0635C35.5038 98.0635 34.1855 98.5564 34.1855 99.1546C34.1855 99.7528 35.5038 100.246 37.1211 100.246Z" fill="#C8E317"/>
<path fill-rule="evenodd" clip-rule="evenodd" d="M37.1211 104.046C38.7384 104.046 40.0566 103.553 40.0566 102.954C40.0566 102.356 38.7384 101.863 37.1211 101.863C35.5038 101.863 34.1855 102.356 34.1855 102.954C34.1855 103.553 35.5038 104.046 37.1211 104.046Z" fill="#C8E317"/>
<path fill-rule="evenodd" clip-rule="evenodd" d="M37.1211 107.844C38.7384 107.844 40.0566 107.351 40.0566 106.753C40.0566 106.155 38.7384 105.662 37.1211 105.662C35.5038 105.662 34.1855 106.155 34.1855 106.753C34.1855 107.351 35.5038 107.844 37.1211 107.844Z" fill="#C8E317"/>
<path fill-rule="evenodd" clip-rule="evenodd" d="M37.1211 111.644C38.7384 111.644 40.0566 111.151 40.0566 110.553C40.0566 109.955 38.7384 109.462 37.1211 109.462C35.5038 109.462 34.1855 109.955 34.1855 110.553C34.1855 111.151 35.5038 111.644 37.1211 111.644Z" fill="#C8E317"/>
<path fill-rule="evenodd" clip-rule="evenodd" d="M37.1211 115.443C38.7384 115.443 40.0566 114.951 40.0566 114.352C40.0566 113.754 38.7384 113.261 37.1211 113.261C35.5038 113.261 34.1855 113.754 34.1855 114.352C34.1855 114.951 35.5038 115.443 37.1211 115.443Z" fill="#C8E317"/>
<path fill-rule="evenodd" clip-rule="evenodd" d="M37.1211 119.244C38.7384 119.244 40.0566 118.751 40.0566 118.153C40.0566 117.554 38.7384 117.062 37.1211 117.062C35.5038 117.062 34.1855 117.554 34.1855 118.153C34.1855 118.751 35.5038 119.244 37.1211 119.244Z" fill="#C8E317"/>
<path fill-rule="evenodd" clip-rule="evenodd" d="M40.992 91.2673C41.3022 91.2673 41.5514 91.0402 41.5514 90.7633C41.5514 90.4864 41.2967 90.2593 40.992 90.2593C40.6874 90.2593 40.4326 90.4864 40.4326 90.7633C40.4326 91.0402 40.6874 91.2673 40.992 91.2673Z" fill="#FF6200"/>
<path fill-rule="evenodd" clip-rule="evenodd" d="M41.0633 94.9338C41.3735 94.9338 41.6227 94.7067 41.6227 94.4298C41.6227 94.1529 41.3679 93.9258 41.0633 93.9258C40.7587 93.9258 40.5039 94.1529 40.5039 94.4298C40.5039 94.7067 40.7587 94.9338 41.0633 94.9338Z" fill="#FF6200"/>
<path fill-rule="evenodd" clip-rule="evenodd" d="M40.9471 98.7942C41.2573 98.7942 41.5065 98.5671 41.5065 98.2902C41.5065 98.0132 41.2517 97.7861 40.9471 97.7861C40.6425 97.7861 40.3877 98.0132 40.3877 98.2902C40.3877 98.5671 40.6425 98.7942 40.9471 98.7942Z" fill="#FF6200"/>
<path fill-rule="evenodd" clip-rule="evenodd" d="M41.0633 102.666C41.3735 102.666 41.6227 102.439 41.6227 102.162C41.6227 101.885 41.3679 101.658 41.0633 101.658C40.7587 101.658 40.5039 101.885 40.5039 102.162C40.5039 102.439 40.7587 102.666 41.0633 102.666Z" fill="#FF6200"/>
<path fill-rule="evenodd" clip-rule="evenodd" d="M41.0086 106.593C41.3188 106.593 41.568 106.366 41.568 106.089C41.568 105.812 41.3133 105.585 41.0086 105.585C40.704 105.585 40.4492 105.812 40.4492 106.089C40.4492 106.366 40.704 106.593 41.0086 106.593Z" fill="#FF6200"/>
<path fill-rule="evenodd" clip-rule="evenodd" d="M40.9745 110.365C41.2846 110.365 41.5339 110.138 41.5339 109.861C41.5339 109.584 41.2791 109.357 40.9745 109.357C40.6698 109.357 40.415 109.584 40.415 109.861C40.415 110.138 40.6698 110.365 40.9745 110.365Z" fill="#FF6200"/>
<path fill-rule="evenodd" clip-rule="evenodd" d="M40.8036 114.02C41.1137 114.02 41.363 113.793 41.363 113.516C41.363 113.239 41.1082 113.012 40.8036 113.012C40.4989 113.012 40.2441 113.239 40.2441 113.516C40.2441 113.793 40.4989 114.02 40.8036 114.02Z" fill="#FF6200"/>
<path fill-rule="evenodd" clip-rule="evenodd" d="M41.0633 117.82C41.3735 117.82 41.6227 117.592 41.6227 117.316C41.6227 117.039 41.3679 116.812 41.0633 116.812C40.7587 116.812 40.5039 117.039 40.5039 117.316C40.5039 117.592 40.7587 117.82 41.0633 117.82Z" fill="#FF6200"/>
</g>
<path d="M55.9453 84C58.0113 84 59.6895 85.6782 59.6895 87.7442V112.729C59.6895 114.795 58.0113 116.473 55.9453 116.473C53.8794 116.473 52.2012 114.795 52.2012 112.729V87.7442C52.2012 85.6782 53.8794 84 55.9453 84Z" fill="#FF6200"/>
<mask id="mask1_416_8595" style="mask-type:luminance" maskUnits="userSpaceOnUse" x="52" y="84" width="8" height="33">
<path d="M55.9453 84C58.0113 84 59.6895 85.6782 59.6895 87.7442V112.729C59.6895 114.795 58.0113 116.473 55.9453 116.473C53.8794 116.473 52.2012 114.795 52.2012 112.729V87.7442C52.2012 85.6782 53.8794 84 55.9453 84Z" fill="white"/>
</mask>
<g mask="url(#mask1_416_8595)">
<path fill-rule="evenodd" clip-rule="evenodd" d="M52.4723 94.0648C54.1229 94.0648 55.4632 92.7189 55.4632 91.0739C55.4632 89.4289 54.1173 88.083 52.4723 88.083C50.8273 88.083 49.4814 89.4289 49.4814 91.0739C49.4814 92.7189 50.8273 94.0648 52.4723 94.0648Z" fill="#FF001A"/>
<path fill-rule="evenodd" clip-rule="evenodd" d="M52.4729 93.5326C53.8298 93.5326 54.932 92.4249 54.932 91.0734C54.932 89.722 53.8243 88.6143 52.4729 88.6143C51.1214 88.6143 50.0137 89.722 50.0137 91.0734C50.0137 92.4249 51.1214 93.5326 52.4729 93.5326Z" fill="#FFFA7E"/>
<path fill-rule="evenodd" clip-rule="evenodd" d="M52.4723 92.9183C53.4859 92.9183 54.3167 92.093 54.3167 91.0739C54.3167 90.0548 53.4914 89.2295 52.4723 89.2295C51.4532 89.2295 50.6279 90.0548 50.6279 91.0739C50.6279 92.093 51.4532 92.9183 52.4723 92.9183Z" fill="#FF6213"/>
<path fill-rule="evenodd" clip-rule="evenodd" d="M59.9011 96.8006C61.5516 96.8006 62.8919 95.4547 62.8919 93.8097C62.8919 92.1647 61.546 90.8188 59.9011 90.8188C58.2561 90.8188 56.9102 92.1647 56.9102 93.8097C56.9102 95.4547 58.2561 96.8006 59.9011 96.8006Z" fill="#FF001A"/>
<path fill-rule="evenodd" clip-rule="evenodd" d="M59.9006 96.2689C61.2576 96.2689 62.3598 95.1612 62.3598 93.8098C62.3598 92.4583 61.252 91.3506 59.9006 91.3506C58.5491 91.3506 57.4414 92.4583 57.4414 93.8098C57.4414 95.1612 58.5491 96.2689 59.9006 96.2689Z" fill="#FFFA7E"/>
<path fill-rule="evenodd" clip-rule="evenodd" d="M59.901 95.6482C60.9146 95.6482 61.7454 94.823 61.7454 93.8039C61.7454 92.7847 60.9201 91.9595 59.901 91.9595C58.8819 91.9595 58.0566 92.7847 58.0566 93.8039C58.0566 94.823 58.8819 95.6482 59.901 95.6482Z" fill="#FF6213"/>
<path fill-rule="evenodd" clip-rule="evenodd" d="M52.2565 101.171C53.907 101.171 55.2474 99.8253 55.2474 98.1803C55.2474 96.5354 53.9015 95.1895 52.2565 95.1895C50.6115 95.1895 49.2656 96.5354 49.2656 98.1803C49.2656 99.8253 50.6115 101.171 52.2565 101.171Z" fill="#FF001A"/>
<path fill-rule="evenodd" clip-rule="evenodd" d="M52.257 100.633C53.614 100.633 54.7162 99.5255 54.7162 98.174C54.7162 96.8226 53.6085 95.7148 52.257 95.7148C50.9056 95.7148 49.7979 96.8226 49.7979 98.174C49.7979 99.5255 50.9056 100.633 52.257 100.633Z" fill="#FFFA7E"/>
<path fill-rule="evenodd" clip-rule="evenodd" d="M52.2565 100.019C53.2701 100.019 54.1009 99.1936 54.1009 98.1745C54.1009 97.1554 53.2756 96.3301 52.2565 96.3301C51.2374 96.3301 50.4121 97.1554 50.4121 98.1745C50.4121 99.1936 51.2374 100.019 52.2565 100.019Z" fill="#FF6213"/>
<path fill-rule="evenodd" clip-rule="evenodd" d="M59.6901 103.901C61.3406 103.901 62.681 102.555 62.681 100.91C62.681 99.2653 61.3351 97.9194 59.6901 97.9194C58.0451 97.9194 56.6992 99.2653 56.6992 100.91C56.6992 102.555 58.0451 103.901 59.6901 103.901Z" fill="#FF001A"/>
<path fill-rule="evenodd" clip-rule="evenodd" d="M59.6906 103.37C61.0476 103.37 62.1498 102.262 62.1498 100.91C62.1498 99.5589 61.0421 98.4512 59.6906 98.4512C58.3392 98.4512 57.2314 99.5589 57.2314 100.91C57.2314 102.262 58.3392 103.37 59.6906 103.37Z" fill="#FFFA7E"/>
<path fill-rule="evenodd" clip-rule="evenodd" d="M59.6901 102.749C60.7037 102.749 61.5345 101.924 61.5345 100.905C61.5345 99.8858 60.7092 99.0605 59.6901 99.0605C58.671 99.0605 57.8457 99.8858 57.8457 100.905C57.8457 101.924 58.671 102.749 59.6901 102.749Z" fill="#FF6213"/>
<path fill-rule="evenodd" clip-rule="evenodd" d="M52.0407 108.271C53.6912 108.271 55.0316 106.925 55.0316 105.28C55.0316 103.635 53.6857 102.289 52.0407 102.289C50.3957 102.289 49.0498 103.635 49.0498 105.28C49.0498 106.925 50.3957 108.271 52.0407 108.271Z" fill="#FF001A"/>
<path fill-rule="evenodd" clip-rule="evenodd" d="M52.0412 107.74C53.3982 107.74 54.5004 106.632 54.5004 105.28C54.5004 103.929 53.3927 102.821 52.0412 102.821C50.6898 102.821 49.582 103.929 49.582 105.28C49.582 106.632 50.6898 107.74 52.0412 107.74Z" fill="#FFFA7E"/>
<path fill-rule="evenodd" clip-rule="evenodd" d="M52.0407 107.119C53.0543 107.119 53.8851 106.294 53.8851 105.275C53.8851 104.256 53.0598 103.431 52.0407 103.431C51.0216 103.431 50.1963 104.256 50.1963 105.275C50.1963 106.294 51.0216 107.119 52.0407 107.119Z" fill="#FF6213"/>
<path fill-rule="evenodd" clip-rule="evenodd" d="M59.4743 111.008C61.1248 111.008 62.4652 109.662 62.4652 108.017C62.4652 106.372 61.1193 105.026 59.4743 105.026C57.8293 105.026 56.4834 106.372 56.4834 108.017C56.4834 109.662 57.8293 111.008 59.4743 111.008Z" fill="#FF001A"/>
<path fill-rule="evenodd" clip-rule="evenodd" d="M59.4738 110.47C60.8308 110.47 61.933 109.362 61.933 108.011C61.933 106.659 60.8253 105.552 59.4738 105.552C58.1224 105.552 57.0146 106.659 57.0146 108.011C57.0146 109.362 58.1224 110.47 59.4738 110.47Z" fill="#FFFA7E"/>
<path fill-rule="evenodd" clip-rule="evenodd" d="M59.4733 109.855C60.4869 109.855 61.3177 109.03 61.3177 108.011C61.3177 106.992 60.4924 106.167 59.4733 106.167C58.4542 106.167 57.6289 106.992 57.6289 108.011C57.6289 109.03 58.4542 109.855 59.4733 109.855Z" fill="#FF6213"/>
<path fill-rule="evenodd" clip-rule="evenodd" d="M51.8249 115.372C53.4754 115.372 54.8158 114.026 54.8158 112.381C54.8158 110.736 53.4699 109.39 51.8249 109.39C50.1799 109.39 48.834 110.736 48.834 112.381C48.834 114.026 50.1799 115.372 51.8249 115.372Z" fill="#FF001A"/>
<path fill-rule="evenodd" clip-rule="evenodd" d="M51.8244 114.84C53.1814 114.84 54.2836 113.732 54.2836 112.381C54.2836 111.03 53.1759 109.922 51.8244 109.922C50.473 109.922 49.3652 111.03 49.3652 112.381C49.3652 113.732 50.473 114.84 51.8244 114.84Z" fill="#FFFA7E"/>
<path fill-rule="evenodd" clip-rule="evenodd" d="M51.8249 114.22C52.8384 114.22 53.6692 113.395 53.6692 112.376C53.6692 111.357 52.844 110.531 51.8249 110.531C50.8057 110.531 49.9805 111.357 49.9805 112.376C49.9805 113.395 50.8057 114.22 51.8249 114.22Z" fill="#FF6213"/>
<path fill-rule="evenodd" clip-rule="evenodd" d="M59.2575 118.108C60.908 118.108 62.2484 116.762 62.2484 115.117C62.2484 113.472 60.9025 112.126 59.2575 112.126C57.6125 112.126 56.2666 113.472 56.2666 115.117C56.2666 116.762 57.6125 118.108 59.2575 118.108Z" fill="#FF001A"/>
<path fill-rule="evenodd" clip-rule="evenodd" d="M59.257 117.577C60.614 117.577 61.7162 116.469 61.7162 115.117C61.7162 113.766 60.6085 112.658 59.257 112.658C57.9056 112.658 56.7979 113.766 56.7979 115.117C56.7979 116.469 57.9056 117.577 59.257 117.577Z" fill="#FFFA7E"/>
<path fill-rule="evenodd" clip-rule="evenodd" d="M59.2575 116.956C60.2711 116.956 61.1019 116.131 61.1019 115.112C61.1019 114.093 60.2766 113.268 59.2575 113.268C58.2384 113.268 57.4131 114.093 57.4131 115.112C57.4131 116.131 58.2384 116.956 59.2575 116.956Z" fill="#FF6213"/>
<path fill-rule="evenodd" clip-rule="evenodd" d="M52.4831 86.3768C54.1336 86.3768 55.474 85.0309 55.474 83.3859C55.474 81.7409 54.1281 80.395 52.4831 80.395C50.8381 80.395 49.4922 81.7409 49.4922 83.3859C49.4922 85.0309 50.8381 86.3768 52.4831 86.3768Z" fill="#FF001A"/>
<path fill-rule="evenodd" clip-rule="evenodd" d="M52.4836 85.8393C53.8406 85.8393 54.9428 84.7315 54.9428 83.3801C54.9428 82.0286 53.835 80.9209 52.4836 80.9209C51.1322 80.9209 50.0244 82.0286 50.0244 83.3801C50.0244 84.7315 51.1322 85.8393 52.4836 85.8393Z" fill="#FFFA7E"/>
<path fill-rule="evenodd" clip-rule="evenodd" d="M52.4831 85.2249C53.4966 85.2249 54.3274 84.3996 54.3274 83.3805C54.3274 82.3614 53.5022 81.5361 52.4831 81.5361C51.4639 81.5361 50.6387 82.3614 50.6387 83.3805C50.6387 84.3996 51.4639 85.2249 52.4831 85.2249Z" fill="#FF6213"/>
<path fill-rule="evenodd" clip-rule="evenodd" d="M59.9167 89.1078C61.5672 89.1078 62.9076 87.7619 62.9076 86.1169C62.9076 84.4719 61.5617 83.126 59.9167 83.126C58.2717 83.126 56.9258 84.4719 56.9258 86.1169C56.9258 87.7619 58.2717 89.1078 59.9167 89.1078Z" fill="#FF001A"/>
<path fill-rule="evenodd" clip-rule="evenodd" d="M59.9162 88.5761C61.2732 88.5761 62.3754 87.4683 62.3754 86.1169C62.3754 84.7655 61.2677 83.6577 59.9162 83.6577C58.5648 83.6577 57.457 84.7655 57.457 86.1169C57.457 87.4683 58.5648 88.5761 59.9162 88.5761Z" fill="#FFFA7E"/>
<path fill-rule="evenodd" clip-rule="evenodd" d="M59.9167 87.9559C60.9302 87.9559 61.761 87.1306 61.761 86.1115C61.761 85.0924 60.9358 84.2671 59.9167 84.2671C58.8975 84.2671 58.0723 85.0924 58.0723 86.1115C58.0723 87.1306 58.8975 87.9559 59.9167 87.9559Z" fill="#FF6213"/>
</g>
<path d="M52.3187 89.645C52.3187 87.5772 50.6436 85.9009 48.5773 85.9009C46.511 85.9009 44.8359 87.5772 44.8359 89.645V114.625C44.8359 116.692 46.511 118.369 48.5773 118.369C50.6436 118.369 52.3187 116.692 52.3187 114.625V89.645Z" fill="#00A828"/>
<mask id="mask2_416_8595" style="mask-type:luminance" maskUnits="userSpaceOnUse" x="44" y="85" width="9" height="34">
<path d="M52.3187 89.645C52.3187 87.5772 50.6436 85.9009 48.5773 85.9009C46.511 85.9009 44.8359 87.5772 44.8359 89.645V114.625C44.8359 116.692 46.511 118.369 48.5773 118.369C50.6436 118.369 52.3187 116.692 52.3187 114.625V89.645Z" fill="white"/>
</mask>
<g mask="url(#mask2_416_8595)">
<path fill-rule="evenodd" clip-rule="evenodd" d="M44.9577 79.7026L47.1953 81.9403L49.4329 84.1779L47.1953 86.4155L44.9577 88.6532L42.7201 86.4155L40.4824 84.1779L42.7201 81.9403L44.9577 79.7026Z" fill="#FF6213"/>
<path fill-rule="evenodd" clip-rule="evenodd" d="M44.9576 81.6582L46.2149 82.9155L47.4777 84.1783L46.2149 85.4356L44.9576 86.6929L43.7003 85.4356L42.4375 84.1783L43.7003 82.9155L44.9576 81.6582Z" fill="#FCFE73"/>
<path fill-rule="evenodd" clip-rule="evenodd" d="M44.8962 89.7725L47.1338 92.0101L49.3714 94.2477L47.1338 96.4854L44.8962 98.723L42.6585 96.4854L40.4209 94.2477L42.6585 92.0101L44.8962 89.7725Z" fill="#FF6213"/>
<path fill-rule="evenodd" clip-rule="evenodd" d="M44.8971 91.7329L46.1543 92.9902L47.4172 94.2475L46.1543 95.5103L44.8971 96.7676L43.6398 95.5103L42.377 94.2475L43.6398 92.9902L44.8971 91.7329Z" fill="#FCFE73"/>
<path fill-rule="evenodd" clip-rule="evenodd" d="M44.8356 99.8472L47.0732 102.085L49.3109 104.322L47.0732 106.56L44.8356 108.798L42.598 106.56L40.3604 104.322L42.598 102.085L44.8356 99.8472Z" fill="#FF6213"/>
<path fill-rule="evenodd" clip-rule="evenodd" d="M44.8355 101.802L46.0928 103.06L47.3556 104.322L46.0928 105.58L44.8355 106.842L43.5783 105.58L42.3154 104.322L43.5783 103.06L44.8355 101.802Z" fill="#FCFE73"/>
<path fill-rule="evenodd" clip-rule="evenodd" d="M44.7751 109.917L47.0127 112.154L49.2503 114.392L47.0127 116.629L44.7751 118.867L42.5374 116.629L40.2998 114.392L42.5374 112.154L44.7751 109.917Z" fill="#FF6213"/>
<path fill-rule="evenodd" clip-rule="evenodd" d="M44.775 111.877L46.0323 113.134L47.2951 114.392L46.0323 115.654L44.775 116.912L43.5122 115.654L42.2549 114.392L43.5122 113.134L44.775 111.877Z" fill="#FCFE73"/>
<path fill-rule="evenodd" clip-rule="evenodd" d="M52.3796 85.396L54.6172 87.6336L56.8548 89.8713L54.6172 92.1089L52.3796 94.3465L50.1419 92.1089L47.9043 89.8713L50.1419 87.6336L52.3796 85.396Z" fill="#FF6213"/>
<path fill-rule="evenodd" clip-rule="evenodd" d="M52.3785 87.3574L53.6413 88.6147L54.8986 89.872L53.6413 91.1348L52.3785 92.3921L51.1212 91.1348L49.8584 89.872L51.1212 88.6147L52.3785 87.3574Z" fill="#FCFE73"/>
<path fill-rule="evenodd" clip-rule="evenodd" d="M52.319 95.4722L54.5566 97.7098L56.7943 99.9474L54.5566 102.185L52.319 104.423L50.0814 102.185L47.8438 99.9474L50.0814 97.7098L52.319 95.4722Z" fill="#FF6213"/>
<path fill-rule="evenodd" clip-rule="evenodd" d="M52.3189 97.4272L53.5762 98.6845L54.839 99.9473L53.5762 101.205L52.3189 102.467L51.0616 101.205L49.7988 99.9473L51.0616 98.6845L52.3189 97.4272Z" fill="#FCFE73"/>
<path fill-rule="evenodd" clip-rule="evenodd" d="M52.2575 105.541L54.4951 107.779L56.7328 110.016L54.4951 112.254L52.2575 114.492L50.0199 112.254L47.7822 110.016L50.0199 107.779L52.2575 105.541Z" fill="#FF6213"/>
<path fill-rule="evenodd" clip-rule="evenodd" d="M52.2574 107.501L53.5147 108.759L54.7775 110.016L53.5147 111.279L52.2574 112.536L51.0001 111.279L49.7373 110.016L51.0001 108.759L52.2574 107.501Z" fill="#FCFE73"/>
<path fill-rule="evenodd" clip-rule="evenodd" d="M52.1969 115.616L54.4346 117.854L56.6722 120.091L54.4346 122.329L52.1969 124.567L49.9593 122.329L47.7217 120.091L49.9593 117.854L52.1969 115.616Z" fill="#FF6213"/>
<path fill-rule="evenodd" clip-rule="evenodd" d="M52.1969 117.571L53.4542 118.834L54.717 120.091L53.4542 121.348L52.1969 122.611L50.9396 121.348L49.6768 120.091L50.9396 118.834L52.1969 117.571Z" fill="#FCFE73"/>
</g>
<path d="M33.3701 89.9385C35.4361 89.9385 37.1143 91.6167 37.1143 93.6826V118.668C37.1143 120.734 35.4361 122.412 33.3701 122.412C31.3042 122.412 29.626 120.734 29.626 118.668V93.6826C29.626 91.6167 31.3042 89.9385 33.3701 89.9385Z" fill="#FFE400"/>
<mask id="mask3_416_8595" style="mask-type:luminance" maskUnits="userSpaceOnUse" x="29" y="89" width="9" height="34">
<path d="M33.3701 89.9385C35.4361 89.9385 37.1143 91.6167 37.1143 93.6826V118.668C37.1143 120.734 35.4361 122.412 33.3701 122.412C31.3042 122.412 29.626 120.734 29.626 118.668V93.6826C29.626 91.6167 31.3042 89.9385 33.3701 89.9385Z" fill="white"/>
</mask>
<g mask="url(#mask3_416_8595)">
<path fill-rule="evenodd" clip-rule="evenodd" d="M29.6317 99.3932C31.7862 99.3932 33.5475 97.6319 33.5475 95.4774C33.5475 93.3228 31.7918 91.5615 29.6317 91.5615C27.4716 91.5615 25.7158 93.3173 25.7158 95.4774C25.7158 97.6375 27.4771 99.3932 29.6317 99.3932Z" fill="#B53D24"/>
<path d="M29.6319 98.1637C31.1124 98.1637 32.3126 96.9635 32.3126 95.483C32.3126 94.0024 31.1124 92.8022 29.6319 92.8022C28.1514 92.8022 26.9512 94.0024 26.9512 95.483C26.9512 96.9635 28.1514 98.1637 29.6319 98.1637Z" fill="#443F67"/>
<path fill-rule="evenodd" clip-rule="evenodd" d="M29.6318 96.5468C30.2189 96.5468 30.6952 96.0704 30.6952 95.4833C30.6952 94.8962 30.2189 94.4199 29.6318 94.4199C29.0447 94.4199 28.5684 94.8962 28.5684 95.4833C28.5684 96.0704 29.0447 96.5468 29.6318 96.5468Z" fill="#FF6213"/>
<path fill-rule="evenodd" clip-rule="evenodd" d="M29.6317 108.349C31.7862 108.349 33.5475 106.588 33.5475 104.433C33.5475 102.279 31.7918 100.518 29.6317 100.518C27.4716 100.518 25.7158 102.273 25.7158 104.433C25.7158 106.594 27.4771 108.349 29.6317 108.349Z" fill="#B53D24"/>
<path fill-rule="evenodd" clip-rule="evenodd" d="M29.6319 107.114C31.1107 107.114 32.3126 105.912 32.3126 104.434C32.3126 102.955 31.1107 101.753 29.6319 101.753C28.1531 101.753 26.9512 102.955 26.9512 104.434C26.9512 105.912 28.1531 107.114 29.6319 107.114Z" fill="#443F67"/>
<path fill-rule="evenodd" clip-rule="evenodd" d="M29.6318 105.497C30.2189 105.497 30.6952 105.02 30.6952 104.433C30.6952 103.846 30.2189 103.37 29.6318 103.37C29.0447 103.37 28.5684 103.846 28.5684 104.433C28.5684 105.02 29.0447 105.497 29.6318 105.497Z" fill="#FF6213"/>
<path fill-rule="evenodd" clip-rule="evenodd" d="M29.6317 117.299C31.7862 117.299 33.5475 115.538 33.5475 113.383C33.5475 111.229 31.7918 109.467 29.6317 109.467C27.4716 109.467 25.7158 111.223 25.7158 113.383C25.7158 115.543 27.4771 117.299 29.6317 117.299Z" fill="#B53D24"/>
<path fill-rule="evenodd" clip-rule="evenodd" d="M29.6319 116.065C31.1107 116.065 32.3126 114.863 32.3126 113.384C32.3126 111.905 31.1107 110.703 29.6319 110.703C28.1531 110.703 26.9512 111.905 26.9512 113.384C26.9512 114.863 28.1531 116.065 29.6319 116.065Z" fill="#443F67"/>
<path fill-rule="evenodd" clip-rule="evenodd" d="M29.6318 114.447C30.2189 114.447 30.6952 113.971 30.6952 113.384C30.6952 112.797 30.2189 112.32 29.6318 112.32C29.0447 112.32 28.5684 112.797 28.5684 113.384C28.5684 113.971 29.0447 114.447 29.6318 114.447Z" fill="#FF6213"/>
<path fill-rule="evenodd" clip-rule="evenodd" d="M29.6317 126.25C31.7862 126.25 33.5475 124.489 33.5475 122.334C33.5475 120.18 31.7918 118.418 29.6317 118.418C27.4716 118.418 25.7158 120.174 25.7158 122.334C25.7158 124.494 27.4771 126.25 29.6317 126.25Z" fill="#B53D24"/>
<path d="M29.6319 125.015C31.1124 125.015 32.3126 123.815 32.3126 122.334C32.3126 120.854 31.1124 119.653 29.6319 119.653C28.1514 119.653 26.9512 120.854 26.9512 122.334C26.9512 123.815 28.1514 125.015 29.6319 125.015Z" fill="#443F67"/>
<path fill-rule="evenodd" clip-rule="evenodd" d="M29.6318 123.398C30.2189 123.398 30.6952 122.922 30.6952 122.334C30.6952 121.747 30.2189 121.271 29.6318 121.271C29.0447 121.271 28.5684 121.747 28.5684 122.334C28.5684 122.922 29.0447 123.398 29.6318 123.398Z" fill="#FF6213"/>
<path fill-rule="evenodd" clip-rule="evenodd" d="M37.1141 94.8454C39.2687 94.8454 41.03 93.0841 41.03 90.9295C41.03 88.775 39.2687 87.0137 37.1141 87.0137C34.9596 87.0137 33.1982 88.775 33.1982 90.9295C33.1982 93.0841 34.9596 94.8454 37.1141 94.8454Z" fill="#B53D24"/>
<path fill-rule="evenodd" clip-rule="evenodd" d="M37.1153 93.6105C38.5941 93.6105 39.796 92.4086 39.796 90.9297C39.796 89.4509 38.5941 88.249 37.1153 88.249C35.6365 88.249 34.4346 89.4509 34.4346 90.9297C34.4346 92.4086 35.6365 93.6105 37.1153 93.6105Z" fill="#443F67"/>
<path fill-rule="evenodd" clip-rule="evenodd" d="M37.1142 91.9989C37.7013 91.9989 38.1776 91.5226 38.1776 90.9355C38.1776 90.3484 37.7013 89.8721 37.1142 89.8721C36.5271 89.8721 36.0508 90.3484 36.0508 90.9355C36.0508 91.5226 36.5271 91.9989 37.1142 91.9989Z" fill="#FF6213"/>
<path fill-rule="evenodd" clip-rule="evenodd" d="M37.1141 103.802C39.2687 103.802 41.03 102.041 41.03 99.8861C41.03 97.7315 39.2687 95.9702 37.1141 95.9702C34.9596 95.9702 33.1982 97.7315 33.1982 99.8861C33.1982 102.041 34.9596 103.802 37.1141 103.802Z" fill="#B53D24"/>
<path fill-rule="evenodd" clip-rule="evenodd" d="M37.1153 102.567C38.5941 102.567 39.796 101.365 39.796 99.8858C39.796 98.407 38.5941 97.2051 37.1153 97.2051C35.6365 97.2051 34.4346 98.407 34.4346 99.8858C34.4346 101.365 35.6365 102.567 37.1153 102.567Z" fill="#443F67"/>
<path fill-rule="evenodd" clip-rule="evenodd" d="M37.1142 100.95C37.7013 100.95 38.1776 100.473 38.1776 99.8862C38.1776 99.2991 37.7013 98.8228 37.1142 98.8228C36.5271 98.8228 36.0508 99.2991 36.0508 99.8862C36.0508 100.473 36.5271 100.95 37.1142 100.95Z" fill="#FF6213"/>
<path fill-rule="evenodd" clip-rule="evenodd" d="M37.1141 112.753C39.2687 112.753 41.03 110.991 41.03 108.837C41.03 106.682 39.2687 104.921 37.1141 104.921C34.9596 104.921 33.1982 106.677 33.1982 108.837C33.1982 110.997 34.9596 112.753 37.1141 112.753Z" fill="#B53D24"/>
<path fill-rule="evenodd" clip-rule="evenodd" d="M37.1153 111.517C38.5941 111.517 39.796 110.315 39.796 108.837C39.796 107.358 38.5941 106.156 37.1153 106.156C35.6365 106.156 34.4346 107.358 34.4346 108.837C34.4346 110.315 35.6365 111.517 37.1153 111.517Z" fill="#443F67"/>
<path fill-rule="evenodd" clip-rule="evenodd" d="M37.1142 109.9C37.7013 109.9 38.1776 109.423 38.1776 108.836C38.1776 108.249 37.7013 107.773 37.1142 107.773C36.5271 107.773 36.0508 108.249 36.0508 108.836C36.0508 109.423 36.5271 109.9 37.1142 109.9Z" fill="#FF6213"/>
<path fill-rule="evenodd" clip-rule="evenodd" d="M37.1141 121.703C39.2687 121.703 41.03 119.942 41.03 117.787C41.03 115.633 39.2687 113.872 37.1141 113.872C34.9596 113.872 33.1982 115.627 33.1982 117.787C33.1982 119.948 34.9596 121.703 37.1141 121.703Z" fill="#B53D24"/>
<path fill-rule="evenodd" clip-rule="evenodd" d="M37.1153 120.468C38.5941 120.468 39.796 119.266 39.796 117.788C39.796 116.309 38.5941 115.107 37.1153 115.107C35.6365 115.107 34.4346 116.309 34.4346 117.788C34.4346 119.266 35.6365 120.468 37.1153 120.468Z" fill="#443F67"/>
<path fill-rule="evenodd" clip-rule="evenodd" d="M37.1142 118.85C37.7013 118.85 38.1776 118.374 38.1776 117.787C38.1776 117.199 37.7013 116.723 37.1142 116.723C36.5271 116.723 36.0508 117.199 36.0508 117.787C36.0508 118.374 36.5271 118.85 37.1142 118.85Z" fill="#FF6213"/>
</g>
<path fill-rule="evenodd" clip-rule="evenodd" d="M82.4475 22.1221L80.6475 27.8823C83.1288 27.7882 84.0261 22.7646 82.4475 22.1221Z" fill="#FF732D"/>
<path fill-rule="evenodd" clip-rule="evenodd" d="M82.9407 10.231L81.1406 15.9912C83.622 15.897 84.5192 10.8734 82.9407 10.231Z" fill="#FF732D"/>
<path fill-rule="evenodd" clip-rule="evenodd" d="M83.1514 0.681641L79.3906 8.87891C83.0683 10.2968 84.7355 1.32413 83.1514 0.681641Z" fill="#FF732D"/>
<path fill-rule="evenodd" clip-rule="evenodd" d="M91.0496 0.70459L94.2288 9.14556C90.457 10.3032 89.4268 1.2363 91.0496 0.70459Z" fill="#FF732D"/>
<path fill-rule="evenodd" clip-rule="evenodd" d="M90.1352 10.6636L91.9353 16.4238C89.4539 16.3297 88.5566 11.3061 90.1352 10.6636Z" fill="#FF732D"/>
<path fill-rule="evenodd" clip-rule="evenodd" d="M90.5014 22.5713L92.3015 28.3315C89.8201 28.2374 88.9229 23.2138 90.5014 22.5713Z" fill="#FF732D"/>
<path d="M135.579 91.3726C135.579 89.3047 133.904 87.6284 131.838 87.6284C129.772 87.6284 128.097 89.3047 128.097 91.3726V116.352C128.097 118.42 129.772 120.096 131.838 120.096C133.904 120.096 135.579 118.42 135.579 116.352V91.3726Z" fill="#BD2790"/>
<mask id="mask4_416_8595" style="mask-type:luminance" maskUnits="userSpaceOnUse" x="128" y="87" width="8" height="34">
<path d="M135.579 91.3726C135.579 89.3047 133.904 87.6284 131.838 87.6284C129.772 87.6284 128.097 89.3047 128.097 91.3726V116.352C128.097 118.42 129.772 120.096 131.838 120.096C133.904 120.096 135.579 118.42 135.579 116.352V91.3726Z" fill="white"/>
</mask>
<g mask="url(#mask4_416_8595)">
<path fill-rule="evenodd" clip-rule="evenodd" d="M135.874 89.0797C137.491 89.0797 138.809 88.5868 138.809 87.9886C138.809 87.3904 137.491 86.8975 135.874 86.8975C134.257 86.8975 132.938 87.3904 132.938 87.9886C132.938 88.5868 134.257 89.0797 135.874 89.0797Z" fill="#C8E317"/>
<path fill-rule="evenodd" clip-rule="evenodd" d="M135.874 92.879C137.491 92.879 138.809 92.3861 138.809 91.7879C138.809 91.1897 137.491 90.6968 135.874 90.6968C134.257 90.6968 132.938 91.1897 132.938 91.7879C132.938 92.3861 134.257 92.879 135.874 92.879Z" fill="#C8E317"/>
<path fill-rule="evenodd" clip-rule="evenodd" d="M135.874 96.6788C137.491 96.6788 138.809 96.1859 138.809 95.5877C138.809 94.9895 137.491 94.4966 135.874 94.4966C134.257 94.4966 132.938 94.9895 132.938 95.5877C132.938 96.1859 134.257 96.6788 135.874 96.6788Z" fill="#C8E317"/>
<path fill-rule="evenodd" clip-rule="evenodd" d="M135.874 100.478C137.491 100.478 138.809 99.9852 138.809 99.387C138.809 98.7888 137.491 98.2959 135.874 98.2959C134.257 98.2959 132.938 98.7888 132.938 99.387C132.938 99.9852 134.257 100.478 135.874 100.478Z" fill="#C8E317"/>
<path fill-rule="evenodd" clip-rule="evenodd" d="M135.874 104.278C137.491 104.278 138.809 103.785 138.809 103.187C138.809 102.589 137.491 102.096 135.874 102.096C134.257 102.096 132.938 102.589 132.938 103.187C132.938 103.785 134.257 104.278 135.874 104.278Z" fill="#C8E317"/>
<path fill-rule="evenodd" clip-rule="evenodd" d="M135.874 108.077C137.491 108.077 138.809 107.584 138.809 106.986C138.809 106.387 137.491 105.895 135.874 105.895C134.257 105.895 132.938 106.387 132.938 106.986C132.938 107.584 134.257 108.077 135.874 108.077Z" fill="#C8E317"/>
<path fill-rule="evenodd" clip-rule="evenodd" d="M135.874 111.877C137.491 111.877 138.809 111.384 138.809 110.785C138.809 110.187 137.491 109.694 135.874 109.694C134.257 109.694 132.938 110.187 132.938 110.785C132.938 111.384 134.257 111.877 135.874 111.877Z" fill="#C8E317"/>
<path fill-rule="evenodd" clip-rule="evenodd" d="M135.874 115.676C137.491 115.676 138.809 115.183 138.809 114.585C138.809 113.987 137.491 113.494 135.874 113.494C134.257 113.494 132.938 113.987 132.938 114.585C132.938 115.183 134.257 115.676 135.874 115.676Z" fill="#C8E317"/>
<path fill-rule="evenodd" clip-rule="evenodd" d="M135.874 119.476C137.491 119.476 138.809 118.983 138.809 118.385C138.809 117.787 137.491 117.294 135.874 117.294C134.257 117.294 132.938 117.787 132.938 118.385C132.938 118.983 134.257 119.476 135.874 119.476Z" fill="#C8E317"/>
<path fill-rule="evenodd" clip-rule="evenodd" d="M128.098 90.8634C129.715 90.8634 131.033 90.3705 131.033 89.7723C131.033 89.1741 129.715 88.6812 128.098 88.6812C126.48 88.6812 125.162 89.1741 125.162 89.7723C125.162 90.3705 126.48 90.8634 128.098 90.8634Z" fill="#C8E317"/>
<path fill-rule="evenodd" clip-rule="evenodd" d="M128.098 94.6627C129.715 94.6627 131.033 94.1698 131.033 93.5716C131.033 92.9734 129.715 92.4805 128.098 92.4805C126.48 92.4805 125.162 92.9734 125.162 93.5716C125.162 94.1698 126.48 94.6627 128.098 94.6627Z" fill="#C8E317"/>
<path fill-rule="evenodd" clip-rule="evenodd" d="M128.098 98.462C129.715 98.462 131.033 97.9691 131.033 97.3709C131.033 96.7727 129.715 96.2798 128.098 96.2798C126.48 96.2798 125.162 96.7727 125.162 97.3709C125.162 97.9691 126.48 98.462 128.098 98.462Z" fill="#C8E317"/>
<path fill-rule="evenodd" clip-rule="evenodd" d="M128.098 102.262C129.715 102.262 131.033 101.769 131.033 101.171C131.033 100.573 129.715 100.08 128.098 100.08C126.48 100.08 125.162 100.573 125.162 101.171C125.162 101.769 126.48 102.262 128.098 102.262Z" fill="#C8E317"/>
<path fill-rule="evenodd" clip-rule="evenodd" d="M128.098 106.061C129.715 106.061 131.033 105.568 131.033 104.97C131.033 104.372 129.715 103.879 128.098 103.879C126.48 103.879 125.162 104.372 125.162 104.97C125.162 105.568 126.48 106.061 128.098 106.061Z" fill="#C8E317"/>
<path fill-rule="evenodd" clip-rule="evenodd" d="M128.098 109.861C129.715 109.861 131.033 109.368 131.033 108.77C131.033 108.172 129.715 107.679 128.098 107.679C126.48 107.679 125.162 108.172 125.162 108.77C125.162 109.368 126.48 109.861 128.098 109.861Z" fill="#C8E317"/>
<path fill-rule="evenodd" clip-rule="evenodd" d="M128.098 113.66C129.715 113.66 131.033 113.167 131.033 112.569C131.033 111.971 129.715 111.478 128.098 111.478C126.48 111.478 125.162 111.971 125.162 112.569C125.162 113.167 126.48 113.66 128.098 113.66Z" fill="#C8E317"/>
<path fill-rule="evenodd" clip-rule="evenodd" d="M128.098 117.46C129.715 117.46 131.033 116.967 131.033 116.368C131.033 115.77 129.715 115.277 128.098 115.277C126.48 115.277 125.162 115.77 125.162 116.368C125.162 116.967 126.48 117.46 128.098 117.46Z" fill="#C8E317"/>
<path fill-rule="evenodd" clip-rule="evenodd" d="M128.098 121.259C129.715 121.259 131.033 120.766 131.033 120.168C131.033 119.57 129.715 119.077 128.098 119.077C126.48 119.077 125.162 119.57 125.162 120.168C125.162 120.766 126.48 121.259 128.098 121.259Z" fill="#C8E317"/>
<path fill-rule="evenodd" clip-rule="evenodd" d="M135.813 88.8463C137.431 88.8463 138.749 88.3534 138.749 87.7552C138.749 87.157 137.431 86.6641 135.813 86.6641C134.196 86.6641 132.878 87.157 132.878 87.7552C132.878 88.3534 134.196 88.8463 135.813 88.8463Z" fill="#C8E317"/>
<path fill-rule="evenodd" clip-rule="evenodd" d="M135.813 92.6466C137.431 92.6466 138.749 92.1537 138.749 91.5555C138.749 90.9573 137.431 90.4644 135.813 90.4644C134.196 90.4644 132.878 90.9573 132.878 91.5555C132.878 92.1537 134.196 92.6466 135.813 92.6466Z" fill="#C8E317"/>
<path fill-rule="evenodd" clip-rule="evenodd" d="M135.813 96.4464C137.431 96.4464 138.749 95.9534 138.749 95.3553C138.749 94.7571 137.431 94.2642 135.813 94.2642C134.196 94.2642 132.878 94.7571 132.878 95.3553C132.878 95.9534 134.196 96.4464 135.813 96.4464Z" fill="#C8E317"/>
<path fill-rule="evenodd" clip-rule="evenodd" d="M135.813 100.246C137.431 100.246 138.749 99.7528 138.749 99.1546C138.749 98.5564 137.431 98.0635 135.813 98.0635C134.196 98.0635 132.878 98.5564 132.878 99.1546C132.878 99.7528 134.196 100.246 135.813 100.246Z" fill="#C8E317"/>
<path fill-rule="evenodd" clip-rule="evenodd" d="M135.813 104.046C137.431 104.046 138.749 103.553 138.749 102.954C138.749 102.356 137.431 101.863 135.813 101.863C134.196 101.863 132.878 102.356 132.878 102.954C132.878 103.553 134.196 104.046 135.813 104.046Z" fill="#C8E317"/>
<path fill-rule="evenodd" clip-rule="evenodd" d="M135.813 107.844C137.431 107.844 138.749 107.351 138.749 106.753C138.749 106.155 137.431 105.662 135.813 105.662C134.196 105.662 132.878 106.155 132.878 106.753C132.878 107.351 134.196 107.844 135.813 107.844Z" fill="#C8E317"/>
<path fill-rule="evenodd" clip-rule="evenodd" d="M135.813 111.644C137.431 111.644 138.749 111.151 138.749 110.553C138.749 109.955 137.431 109.462 135.813 109.462C134.196 109.462 132.878 109.955 132.878 110.553C132.878 111.151 134.196 111.644 135.813 111.644Z" fill="#C8E317"/>
<path fill-rule="evenodd" clip-rule="evenodd" d="M135.813 115.443C137.431 115.443 138.749 114.951 138.749 114.352C138.749 113.754 137.431 113.261 135.813 113.261C134.196 113.261 132.878 113.754 132.878 114.352C132.878 114.951 134.196 115.443 135.813 115.443Z" fill="#C8E317"/>
<path fill-rule="evenodd" clip-rule="evenodd" d="M135.813 119.244C137.431 119.244 138.749 118.751 138.749 118.153C138.749 117.554 137.431 117.062 135.813 117.062C134.196 117.062 132.878 117.554 132.878 118.153C132.878 118.751 134.196 119.244 135.813 119.244Z" fill="#C8E317"/>
<path fill-rule="evenodd" clip-rule="evenodd" d="M131.941 91.2673C132.251 91.2673 132.501 91.0402 132.501 90.7633C132.501 90.4864 132.246 90.2593 131.941 90.2593C131.637 90.2593 131.382 90.4864 131.382 90.7633C131.382 91.0402 131.637 91.2673 131.941 91.2673Z" fill="#FF6200"/>
<path fill-rule="evenodd" clip-rule="evenodd" d="M131.87 94.9338C132.18 94.9338 132.429 94.7067 132.429 94.4298C132.429 94.1529 132.175 93.9258 131.87 93.9258C131.565 93.9258 131.311 94.1529 131.311 94.4298C131.311 94.7067 131.565 94.9338 131.87 94.9338Z" fill="#FF6200"/>
<path fill-rule="evenodd" clip-rule="evenodd" d="M131.986 98.7942C132.296 98.7942 132.546 98.5671 132.546 98.2902C132.546 98.0132 132.291 97.7861 131.986 97.7861C131.682 97.7861 131.427 98.0132 131.427 98.2902C131.427 98.5671 131.682 98.7942 131.986 98.7942Z" fill="#FF6200"/>
<path fill-rule="evenodd" clip-rule="evenodd" d="M131.87 102.666C132.18 102.666 132.429 102.439 132.429 102.162C132.429 101.885 132.175 101.658 131.87 101.658C131.565 101.658 131.311 101.885 131.311 102.162C131.311 102.439 131.565 102.666 131.87 102.666Z" fill="#FF6200"/>
<path fill-rule="evenodd" clip-rule="evenodd" d="M131.931 106.593C132.242 106.593 132.491 106.366 132.491 106.089C132.491 105.812 132.236 105.585 131.931 105.585C131.627 105.585 131.372 105.812 131.372 106.089C131.372 106.366 131.627 106.593 131.931 106.593Z" fill="#FF6200"/>
<path d="M131.959 110.365C132.268 110.365 132.518 110.139 132.518 109.861C132.518 109.583 132.268 109.357 131.959 109.357C131.65 109.357 131.399 109.583 131.399 109.861C131.399 110.139 131.65 110.365 131.959 110.365Z" fill="#FF6200"/>
<path fill-rule="evenodd" clip-rule="evenodd" d="M132.13 114.02C132.44 114.02 132.689 113.793 132.689 113.516C132.689 113.239 132.434 113.012 132.13 113.012C131.825 113.012 131.57 113.239 131.57 113.516C131.57 113.793 131.825 114.02 132.13 114.02Z" fill="#FF6200"/>
<path fill-rule="evenodd" clip-rule="evenodd" d="M131.87 117.82C132.18 117.82 132.429 117.592 132.429 117.316C132.429 117.039 132.175 116.812 131.87 116.812C131.565 116.812 131.311 117.039 131.311 117.316C131.311 117.592 131.565 117.82 131.87 117.82Z" fill="#FF6200"/>
</g>
<path d="M116.986 84C119.052 84 120.73 85.6782 120.73 87.7442V112.729C120.73 114.795 119.052 116.473 116.986 116.473C114.92 116.473 113.242 114.795 113.242 112.729V87.7442C113.242 85.6782 114.92 84 116.986 84Z" fill="#FF6200"/>
<mask id="mask5_416_8595" style="mask-type:luminance" maskUnits="userSpaceOnUse" x="113" y="84" width="8" height="33">
<path d="M116.986 84C119.052 84 120.73 85.6782 120.73 87.7442V112.729C120.73 114.795 119.052 116.473 116.986 116.473C114.92 116.473 113.242 114.795 113.242 112.729V87.7442C113.242 85.6782 114.92 84 116.986 84Z" fill="white"/>
</mask>
<g mask="url(#mask5_416_8595)">
<path fill-rule="evenodd" clip-rule="evenodd" d="M120.459 94.0648C122.109 94.0648 123.45 92.7189 123.45 91.0739C123.45 89.4289 122.104 88.083 120.459 88.083C118.814 88.083 117.468 89.4289 117.468 91.0739C117.468 92.7189 118.814 94.0648 120.459 94.0648Z" fill="#FF001A"/>
<path fill-rule="evenodd" clip-rule="evenodd" d="M120.459 93.5326C121.816 93.5326 122.918 92.4249 122.918 91.0734C122.918 89.722 121.811 88.6143 120.459 88.6143C119.108 88.6143 118 89.722 118 91.0734C118 92.4249 119.108 93.5326 120.459 93.5326Z" fill="#FFFA7E"/>
<path fill-rule="evenodd" clip-rule="evenodd" d="M120.459 92.9183C121.472 92.9183 122.303 92.093 122.303 91.0739C122.303 90.0548 121.478 89.2295 120.459 89.2295C119.44 89.2295 118.614 90.0548 118.614 91.0739C118.614 92.093 119.44 92.9183 120.459 92.9183Z" fill="#FF6213"/>
<path fill-rule="evenodd" clip-rule="evenodd" d="M113.032 96.8006C114.682 96.8006 116.023 95.4547 116.023 93.8097C116.023 92.1647 114.677 90.8188 113.032 90.8188C111.387 90.8188 110.041 92.1647 110.041 93.8097C110.041 95.4547 111.387 96.8006 113.032 96.8006Z" fill="#FF001A"/>
<path fill-rule="evenodd" clip-rule="evenodd" d="M113.031 96.2689C114.388 96.2689 115.491 95.1612 115.491 93.8098C115.491 92.4583 114.383 91.3506 113.031 91.3506C111.68 91.3506 110.572 92.4583 110.572 93.8098C110.572 95.1612 111.68 96.2689 113.031 96.2689Z" fill="#FFFA7E"/>
<path fill-rule="evenodd" clip-rule="evenodd" d="M113.032 95.6482C114.045 95.6482 114.876 94.823 114.876 93.8039C114.876 92.7847 114.051 91.9595 113.032 91.9595C112.013 91.9595 111.188 92.7847 111.188 93.8039C111.188 94.823 112.013 95.6482 113.032 95.6482Z" fill="#FF6213"/>
<path fill-rule="evenodd" clip-rule="evenodd" d="M120.675 101.171C122.326 101.171 123.666 99.8253 123.666 98.1803C123.666 96.5354 122.32 95.1895 120.675 95.1895C119.03 95.1895 117.685 96.5354 117.685 98.1803C117.685 99.8253 119.03 101.171 120.675 101.171Z" fill="#FF001A"/>
<path fill-rule="evenodd" clip-rule="evenodd" d="M120.675 100.633C122.032 100.633 123.134 99.5255 123.134 98.174C123.134 96.8226 122.026 95.7148 120.675 95.7148C119.324 95.7148 118.216 96.8226 118.216 98.174C118.216 99.5255 119.324 100.633 120.675 100.633Z" fill="#FFFA7E"/>
<path fill-rule="evenodd" clip-rule="evenodd" d="M120.675 100.019C121.689 100.019 122.52 99.1936 122.52 98.1745C122.52 97.1554 121.695 96.3301 120.675 96.3301C119.656 96.3301 118.831 97.1554 118.831 98.1745C118.831 99.1936 119.656 100.019 120.675 100.019Z" fill="#FF6213"/>
<path fill-rule="evenodd" clip-rule="evenodd" d="M113.249 103.901C114.899 103.901 116.24 102.555 116.24 100.91C116.24 99.2653 114.894 97.9194 113.249 97.9194C111.604 97.9194 110.258 99.2653 110.258 100.91C110.258 102.555 111.604 103.901 113.249 103.901Z" fill="#FF001A"/>
<path fill-rule="evenodd" clip-rule="evenodd" d="M113.248 103.37C114.605 103.37 115.707 102.262 115.707 100.91C115.707 99.5589 114.6 98.4512 113.248 98.4512C111.897 98.4512 110.789 99.5589 110.789 100.91C110.789 102.262 111.897 103.37 113.248 103.37Z" fill="#FFFA7E"/>
<path fill-rule="evenodd" clip-rule="evenodd" d="M113.249 102.749C114.262 102.749 115.093 101.924 115.093 100.905C115.093 99.8858 114.268 99.0605 113.249 99.0605C112.23 99.0605 111.404 99.8858 111.404 100.905C111.404 101.924 112.23 102.749 113.249 102.749Z" fill="#FF6213"/>
<path fill-rule="evenodd" clip-rule="evenodd" d="M120.891 108.271C122.542 108.271 123.882 106.925 123.882 105.28C123.882 103.635 122.536 102.289 120.891 102.289C119.246 102.289 117.9 103.635 117.9 105.28C117.9 106.925 119.246 108.271 120.891 108.271Z" fill="#FF001A"/>
<path fill-rule="evenodd" clip-rule="evenodd" d="M120.892 107.74C122.249 107.74 123.351 106.632 123.351 105.28C123.351 103.929 122.243 102.821 120.892 102.821C119.54 102.821 118.433 103.929 118.433 105.28C118.433 106.632 119.54 107.74 120.892 107.74Z" fill="#FFFA7E"/>
<path fill-rule="evenodd" clip-rule="evenodd" d="M120.891 107.119C121.905 107.119 122.736 106.294 122.736 105.275C122.736 104.256 121.91 103.431 120.891 103.431C119.872 103.431 119.047 104.256 119.047 105.275C119.047 106.294 119.872 107.119 120.891 107.119Z" fill="#FF6213"/>
<path fill-rule="evenodd" clip-rule="evenodd" d="M113.465 111.008C115.115 111.008 116.455 109.662 116.455 108.017C116.455 106.372 115.11 105.026 113.465 105.026C111.82 105.026 110.474 106.372 110.474 108.017C110.474 109.662 111.82 111.008 113.465 111.008Z" fill="#FF001A"/>
<path fill-rule="evenodd" clip-rule="evenodd" d="M113.464 110.47C114.821 110.47 115.923 109.362 115.923 108.011C115.923 106.659 114.816 105.552 113.464 105.552C112.113 105.552 111.005 106.659 111.005 108.011C111.005 109.362 112.113 110.47 113.464 110.47Z" fill="#FFFA7E"/>
<path fill-rule="evenodd" clip-rule="evenodd" d="M113.464 109.855C114.477 109.855 115.308 109.03 115.308 108.011C115.308 106.992 114.483 106.167 113.464 106.167C112.444 106.167 111.619 106.992 111.619 108.011C111.619 109.03 112.444 109.855 113.464 109.855Z" fill="#FF6213"/>
<path fill-rule="evenodd" clip-rule="evenodd" d="M121.107 115.372C122.758 115.372 124.098 114.026 124.098 112.381C124.098 110.736 122.752 109.39 121.107 109.39C119.462 109.39 118.116 110.736 118.116 112.381C118.116 114.026 119.462 115.372 121.107 115.372Z" fill="#FF001A"/>
<path fill-rule="evenodd" clip-rule="evenodd" d="M121.108 114.84C122.465 114.84 123.567 113.732 123.567 112.381C123.567 111.03 122.459 109.922 121.108 109.922C119.756 109.922 118.648 111.03 118.648 112.381C118.648 113.732 119.756 114.84 121.108 114.84Z" fill="#FFFA7E"/>
<path fill-rule="evenodd" clip-rule="evenodd" d="M121.108 114.22C122.122 114.22 122.952 113.395 122.952 112.376C122.952 111.357 122.127 110.531 121.108 110.531C120.089 110.531 119.264 111.357 119.264 112.376C119.264 113.395 120.089 114.22 121.108 114.22Z" fill="#FF6213"/>
<path fill-rule="evenodd" clip-rule="evenodd" d="M113.68 118.108C115.331 118.108 116.671 116.762 116.671 115.117C116.671 113.472 115.325 112.126 113.68 112.126C112.035 112.126 110.689 113.472 110.689 115.117C110.689 116.762 112.035 118.108 113.68 118.108Z" fill="#FF001A"/>
<path fill-rule="evenodd" clip-rule="evenodd" d="M113.68 117.577C115.037 117.577 116.139 116.469 116.139 115.117C116.139 113.766 115.031 112.658 113.68 112.658C112.328 112.658 111.221 113.766 111.221 115.117C111.221 116.469 112.328 117.577 113.68 117.577Z" fill="#FFFA7E"/>
<path fill-rule="evenodd" clip-rule="evenodd" d="M113.68 116.956C114.694 116.956 115.525 116.131 115.525 115.112C115.525 114.093 114.699 113.268 113.68 113.268C112.661 113.268 111.836 114.093 111.836 115.112C111.836 116.131 112.661 116.956 113.68 116.956Z" fill="#FF6213"/>
<path fill-rule="evenodd" clip-rule="evenodd" d="M120.449 86.3768C122.099 86.3768 123.44 85.0309 123.44 83.3859C123.44 81.7409 122.094 80.395 120.449 80.395C118.804 80.395 117.458 81.7409 117.458 83.3859C117.458 85.0309 118.804 86.3768 120.449 86.3768Z" fill="#FF001A"/>
<path fill-rule="evenodd" clip-rule="evenodd" d="M120.448 85.8393C121.805 85.8393 122.908 84.7315 122.908 83.3801C122.908 82.0286 121.8 80.9209 120.448 80.9209C119.097 80.9209 117.989 82.0286 117.989 83.3801C117.989 84.7315 119.097 85.8393 120.448 85.8393Z" fill="#FFFA7E"/>
<path fill-rule="evenodd" clip-rule="evenodd" d="M120.449 85.2249C121.462 85.2249 122.293 84.3996 122.293 83.3805C122.293 82.3614 121.468 81.5361 120.449 81.5361C119.43 81.5361 118.604 82.3614 118.604 83.3805C118.604 84.3996 119.43 85.2249 120.449 85.2249Z" fill="#FF6213"/>
<path fill-rule="evenodd" clip-rule="evenodd" d="M113.021 89.1078C114.672 89.1078 116.012 87.7619 116.012 86.1169C116.012 84.4719 114.666 83.126 113.021 83.126C111.376 83.126 110.03 84.4719 110.03 86.1169C110.03 87.7619 111.376 89.1078 113.021 89.1078Z" fill="#FF001A"/>
<path fill-rule="evenodd" clip-rule="evenodd" d="M113.021 88.5761C114.378 88.5761 115.48 87.4683 115.48 86.1169C115.48 84.7655 114.372 83.6577 113.021 83.6577C111.669 83.6577 110.562 84.7655 110.562 86.1169C110.562 87.4683 111.669 88.5761 113.021 88.5761Z" fill="#FFFA7E"/>
<path fill-rule="evenodd" clip-rule="evenodd" d="M113.021 87.9559C114.035 87.9559 114.866 87.1306 114.866 86.1115C114.866 85.0924 114.04 84.2671 113.021 84.2671C112.002 84.2671 111.177 85.0924 111.177 86.1115C111.177 87.1306 112.002 87.9559 113.021 87.9559Z" fill="#FF6213"/>
</g>
<path d="M124.358 85.9009C126.424 85.9009 128.103 87.5791 128.103 89.645V114.63C128.103 116.696 126.424 118.374 124.358 118.374C122.292 118.374 120.614 116.696 120.614 114.63V89.645C120.614 87.5791 122.292 85.9009 124.358 85.9009Z" fill="#00A828"/>
<mask id="mask6_416_8595" style="mask-type:luminance" maskUnits="userSpaceOnUse" x="120" y="85" width="9" height="34">
<path d="M124.358 85.9009C126.424 85.9009 128.103 87.5791 128.103 89.645V114.63C128.103 116.696 126.424 118.374 124.358 118.374C122.292 118.374 120.614 116.696 120.614 114.63V89.645C120.614 87.5791 122.292 85.9009 124.358 85.9009Z" fill="white"/>
</mask>
<g mask="url(#mask6_416_8595)">
<path fill-rule="evenodd" clip-rule="evenodd" d="M127.974 79.7026L125.737 81.9403L123.499 84.1779L125.737 86.4155L127.974 88.6532L130.212 86.4155L132.45 84.1779L130.212 81.9403L127.974 79.7026Z" fill="#FF6213"/>
<path fill-rule="evenodd" clip-rule="evenodd" d="M127.975 81.6582L126.718 82.9155L125.455 84.1783L126.718 85.4356L127.975 86.6929L129.238 85.4356L130.495 84.1783L129.238 82.9155L127.975 81.6582Z" fill="#FCFE73"/>
<path fill-rule="evenodd" clip-rule="evenodd" d="M128.036 89.7725L125.798 92.0101L123.561 94.2477L125.798 96.4854L128.036 98.723L130.273 96.4854L132.511 94.2477L130.273 92.0101L128.036 89.7725Z" fill="#FF6213"/>
<path fill-rule="evenodd" clip-rule="evenodd" d="M128.035 91.7329L126.778 92.9902L125.521 94.2475L126.778 95.5103L128.035 96.7676L129.298 95.5103L130.555 94.2475L129.298 92.9902L128.035 91.7329Z" fill="#FCFE73"/>
<path fill-rule="evenodd" clip-rule="evenodd" d="M128.096 99.8472L125.859 102.085L123.621 104.322L125.859 106.56L128.096 108.798L130.334 106.56L132.572 104.322L130.334 102.085L128.096 99.8472Z" fill="#FF6213"/>
<path fill-rule="evenodd" clip-rule="evenodd" d="M128.097 101.802L126.839 103.06L125.582 104.322L126.839 105.58L128.097 106.842L129.359 105.58L130.617 104.322L129.359 103.06L128.097 101.802Z" fill="#FCFE73"/>
<path fill-rule="evenodd" clip-rule="evenodd" d="M128.158 109.917L125.92 112.154L123.683 114.392L125.92 116.629L128.158 118.867L130.396 116.629L132.639 114.392L130.396 112.154L128.158 109.917Z" fill="#FF6213"/>
<path fill-rule="evenodd" clip-rule="evenodd" d="M128.158 111.877L126.901 113.134L125.644 114.392L126.901 115.654L128.158 116.912L129.421 115.654L130.678 114.392L129.421 113.134L128.158 111.877Z" fill="#FCFE73"/>
<path fill-rule="evenodd" clip-rule="evenodd" d="M120.553 85.396L118.316 87.6336L116.078 89.8713L118.316 92.1089L120.553 94.3465L122.791 92.1089L125.029 89.8713L122.791 87.6336L120.553 85.396Z" fill="#FF6213"/>
<path fill-rule="evenodd" clip-rule="evenodd" d="M120.553 87.3574L119.296 88.6147L118.033 89.872L119.296 91.1348L120.553 92.3921L121.816 91.1348L123.073 89.872L121.816 88.6147L120.553 87.3574Z" fill="#FCFE73"/>
<path fill-rule="evenodd" clip-rule="evenodd" d="M120.613 95.4722L118.375 97.7098L116.138 99.9474L118.375 102.185L120.613 104.423L122.851 102.185L125.088 99.9474L122.851 97.7098L120.613 95.4722Z" fill="#FF6213"/>
<path fill-rule="evenodd" clip-rule="evenodd" d="M120.615 97.4272L119.358 98.6845L118.095 99.9473L119.358 101.205L120.615 102.467L121.878 101.205L123.135 99.9473L121.878 98.6845L120.615 97.4272Z" fill="#FCFE73"/>
<path fill-rule="evenodd" clip-rule="evenodd" d="M120.674 105.541L118.437 107.779L116.199 110.016L118.437 112.254L120.674 114.492L122.912 112.254L125.15 110.016L122.912 107.779L120.674 105.541Z" fill="#FF6213"/>
<path fill-rule="evenodd" clip-rule="evenodd" d="M120.675 107.501L119.417 108.759L118.16 110.016L119.417 111.279L120.675 112.536L121.938 111.279L123.195 110.016L121.938 108.759L120.675 107.501Z" fill="#FCFE73"/>
<path fill-rule="evenodd" clip-rule="evenodd" d="M120.736 115.616L118.498 117.854L116.261 120.091L118.498 122.329L120.736 124.567L122.974 122.329L125.217 120.091L122.974 117.854L120.736 115.616Z" fill="#FF6213"/>
<path fill-rule="evenodd" clip-rule="evenodd" d="M120.735 117.571L119.478 118.834L118.221 120.091L119.478 121.348L120.735 122.611L121.998 121.348L123.255 120.091L121.998 118.834L120.735 117.571Z" fill="#FCFE73"/>
</g>
<path d="M139.563 89.9385C141.628 89.9385 143.307 91.6167 143.307 93.6826V118.668C143.307 120.734 141.628 122.412 139.563 122.412C137.497 122.412 135.818 120.734 135.818 118.668V93.6826C135.818 91.6167 137.497 89.9385 139.563 89.9385Z" fill="#FFE400"/>
<mask id="mask7_416_8595" style="mask-type:luminance" maskUnits="userSpaceOnUse" x="135" y="89" width="9" height="34">
<path d="M139.563 89.9385C141.628 89.9385 143.307 91.6167 143.307 93.6826V118.668C143.307 120.734 141.628 122.412 139.563 122.412C137.497 122.412 135.818 120.734 135.818 118.668V93.6826C135.818 91.6167 137.497 89.9385 139.563 89.9385Z" fill="white"/>
</mask>
<g mask="url(#mask7_416_8595)">
<path fill-rule="evenodd" clip-rule="evenodd" d="M143.307 99.3932C145.462 99.3932 147.223 97.6319 147.223 95.4774C147.223 93.3228 145.462 91.5615 143.307 91.5615C141.153 91.5615 139.392 93.3173 139.392 95.4774C139.392 97.6375 141.147 99.3932 143.307 99.3932Z" fill="#B53D24"/>
<path fill-rule="evenodd" clip-rule="evenodd" d="M143.307 98.1637C144.786 98.1637 145.987 96.9618 145.987 95.483C145.987 94.0041 144.786 92.8022 143.307 92.8022C141.828 92.8022 140.626 94.0041 140.626 95.483C140.626 96.9618 141.828 98.1637 143.307 98.1637Z" fill="#443F67"/>
<path fill-rule="evenodd" clip-rule="evenodd" d="M143.308 96.5468C143.895 96.5468 144.371 96.0704 144.371 95.4833C144.371 94.8962 143.895 94.4199 143.308 94.4199C142.72 94.4199 142.244 94.8962 142.244 95.4833C142.244 96.0704 142.72 96.5468 143.308 96.5468Z" fill="#FF6213"/>
<path fill-rule="evenodd" clip-rule="evenodd" d="M143.307 108.349C145.462 108.349 147.223 106.588 147.223 104.433C147.223 102.279 145.462 100.518 143.307 100.518C141.153 100.518 139.392 102.273 139.392 104.433C139.392 106.594 141.147 108.349 143.307 108.349Z" fill="#B53D24"/>
<path fill-rule="evenodd" clip-rule="evenodd" d="M143.307 107.114C144.786 107.114 145.987 105.912 145.987 104.434C145.987 102.955 144.786 101.753 143.307 101.753C141.828 101.753 140.626 102.955 140.626 104.434C140.626 105.912 141.828 107.114 143.307 107.114Z" fill="#443F67"/>
<path fill-rule="evenodd" clip-rule="evenodd" d="M143.308 105.497C143.895 105.497 144.371 105.02 144.371 104.433C144.371 103.846 143.895 103.37 143.308 103.37C142.72 103.37 142.244 103.846 142.244 104.433C142.244 105.02 142.72 105.497 143.308 105.497Z" fill="#FF6213"/>
<path fill-rule="evenodd" clip-rule="evenodd" d="M143.307 117.299C145.462 117.299 147.223 115.538 147.223 113.383C147.223 111.229 145.462 109.467 143.307 109.467C141.153 109.467 139.392 111.223 139.392 113.383C139.392 115.543 141.147 117.299 143.307 117.299Z" fill="#B53D24"/>
<path fill-rule="evenodd" clip-rule="evenodd" d="M143.307 116.065C144.786 116.065 145.987 114.863 145.987 113.384C145.987 111.905 144.786 110.703 143.307 110.703C141.828 110.703 140.626 111.905 140.626 113.384C140.626 114.863 141.828 116.065 143.307 116.065Z" fill="#443F67"/>
<path fill-rule="evenodd" clip-rule="evenodd" d="M143.308 114.447C143.895 114.447 144.371 113.971 144.371 113.384C144.371 112.797 143.895 112.32 143.308 112.32C142.72 112.32 142.244 112.797 142.244 113.384C142.244 113.971 142.72 114.447 143.308 114.447Z" fill="#FF6213"/>
<path fill-rule="evenodd" clip-rule="evenodd" d="M143.307 126.25C145.462 126.25 147.223 124.489 147.223 122.334C147.223 120.18 145.462 118.418 143.307 118.418C141.153 118.418 139.392 120.174 139.392 122.334C139.392 124.494 141.147 126.25 143.307 126.25Z" fill="#B53D24"/>
<path fill-rule="evenodd" clip-rule="evenodd" d="M143.307 125.015C144.786 125.015 145.987 123.813 145.987 122.334C145.987 120.855 144.786 119.653 143.307 119.653C141.828 119.653 140.626 120.855 140.626 122.334C140.626 123.813 141.828 125.015 143.307 125.015Z" fill="#443F67"/>
<path fill-rule="evenodd" clip-rule="evenodd" d="M143.308 123.398C143.895 123.398 144.371 122.922 144.371 122.334C144.371 121.747 143.895 121.271 143.308 121.271C142.72 121.271 142.244 121.747 142.244 122.334C142.244 122.922 142.72 123.398 143.308 123.398Z" fill="#FF6213"/>
<path fill-rule="evenodd" clip-rule="evenodd" d="M135.824 94.8454C137.979 94.8454 139.74 93.0841 139.74 90.9295C139.74 88.775 137.979 87.0137 135.824 87.0137C133.67 87.0137 131.908 88.775 131.908 90.9295C131.908 93.0841 133.664 94.8454 135.824 94.8454Z" fill="#B53D24"/>
<path fill-rule="evenodd" clip-rule="evenodd" d="M135.824 93.6105C137.303 93.6105 138.505 92.4086 138.505 90.9297C138.505 89.4509 137.303 88.249 135.824 88.249C134.345 88.249 133.144 89.4509 133.144 90.9297C133.144 92.4086 134.345 93.6105 135.824 93.6105Z" fill="#443F67"/>
<path fill-rule="evenodd" clip-rule="evenodd" d="M135.824 91.9989C136.411 91.9989 136.888 91.5226 136.888 90.9355C136.888 90.3484 136.411 89.8721 135.824 89.8721C135.237 89.8721 134.761 90.3484 134.761 90.9355C134.761 91.5226 135.237 91.9989 135.824 91.9989Z" fill="#FF6213"/>
<path fill-rule="evenodd" clip-rule="evenodd" d="M135.824 103.802C137.979 103.802 139.74 102.041 139.74 99.8861C139.74 97.7315 137.979 95.9702 135.824 95.9702C133.67 95.9702 131.908 97.7315 131.908 99.8861C131.908 102.041 133.664 103.802 135.824 103.802Z" fill="#B53D24"/>
<path fill-rule="evenodd" clip-rule="evenodd" d="M135.824 102.567C137.303 102.567 138.505 101.365 138.505 99.8858C138.505 98.407 137.303 97.2051 135.824 97.2051C134.345 97.2051 133.144 98.407 133.144 99.8858C133.144 101.365 134.345 102.567 135.824 102.567Z" fill="#443F67"/>
<path fill-rule="evenodd" clip-rule="evenodd" d="M135.824 100.95C136.411 100.95 136.888 100.473 136.888 99.8862C136.888 99.2991 136.411 98.8228 135.824 98.8228C135.237 98.8228 134.761 99.2991 134.761 99.8862C134.761 100.473 135.237 100.95 135.824 100.95Z" fill="#FF6213"/>
<path fill-rule="evenodd" clip-rule="evenodd" d="M135.824 112.753C137.979 112.753 139.74 110.991 139.74 108.837C139.74 106.682 137.979 104.921 135.824 104.921C133.67 104.921 131.908 106.677 131.908 108.837C131.908 110.997 133.664 112.753 135.824 112.753Z" fill="#B53D24"/>
<path d="M135.824 111.517C137.305 111.517 138.505 110.317 138.505 108.837C138.505 107.356 137.305 106.156 135.824 106.156C134.344 106.156 133.144 107.356 133.144 108.837C133.144 110.317 134.344 111.517 135.824 111.517Z" fill="#443F67"/>
<path fill-rule="evenodd" clip-rule="evenodd" d="M135.824 109.9C136.411 109.9 136.888 109.423 136.888 108.836C136.888 108.249 136.411 107.773 135.824 107.773C135.237 107.773 134.761 108.249 134.761 108.836C134.761 109.423 135.237 109.9 135.824 109.9Z" fill="#FF6213"/>
<path fill-rule="evenodd" clip-rule="evenodd" d="M135.824 121.703C137.979 121.703 139.74 119.942 139.74 117.787C139.74 115.633 137.979 113.872 135.824 113.872C133.67 113.872 131.908 115.627 131.908 117.787C131.908 119.948 133.664 121.703 135.824 121.703Z" fill="#B53D24"/>
<path fill-rule="evenodd" clip-rule="evenodd" d="M135.824 120.468C137.303 120.468 138.505 119.266 138.505 117.788C138.505 116.309 137.303 115.107 135.824 115.107C134.345 115.107 133.144 116.309 133.144 117.788C133.144 119.266 134.345 120.468 135.824 120.468Z" fill="#443F67"/>
<path fill-rule="evenodd" clip-rule="evenodd" d="M135.824 118.85C136.411 118.85 136.888 118.374 136.888 117.787C136.888 117.199 136.411 116.723 135.824 116.723C135.237 116.723 134.761 117.199 134.761 117.787C134.761 118.374 135.237 118.85 135.824 118.85Z" fill="#FF6213"/>
</g>
</svg>
