<svg width="25" height="24" viewBox="0 0 25 24" fill="none" xmlns="http://www.w3.org/2000/svg">
<path d="M24.965 12C24.965 5.37188 19.5931 0 12.965 0C6.33684 0 0.964966 5.37188 0.964966 12C0.964966 18.6281 6.33684 24 12.965 24C13.0353 24 13.1056 24 13.1759 23.9953V14.6578H10.5978V11.6531H13.1759V9.44062C13.1759 6.87656 14.7415 5.47969 17.029 5.47969C18.1259 5.47969 19.0681 5.55938 19.34 5.59688V8.27813H17.765C16.5228 8.27813 16.279 8.86875 16.279 9.73594V11.6484H19.2556L18.8665 14.6531H16.279V23.5359C21.2947 22.0969 24.965 17.4797 24.965 12Z" fill="#13151E"/>
</svg>
