<svg width="25" height="24" viewBox="0 0 25 24" fill="none" xmlns="http://www.w3.org/2000/svg">
<path d="M12.965 0C6.33856 0 0.964966 5.3736 0.964966 12C0.964966 18.6264 6.33856 24 12.965 24C19.5914 24 24.965 18.6264 24.965 12C24.965 5.3736 19.5914 0 12.965 0ZM9.47791 18.1406H6.55536V9.34808H9.47791V18.1406ZM8.01672 8.14746H7.99768C7.01697 8.14746 6.38269 7.47235 6.38269 6.6286C6.38269 5.76581 7.03638 5.10938 8.03613 5.10938C9.03589 5.10938 9.65112 5.76581 9.67017 6.6286C9.67017 7.47235 9.03589 8.14746 8.01672 8.14746ZM20.016 18.1406H17.0938V13.4368C17.0938 12.2547 16.6707 11.4485 15.6132 11.4485C14.8059 11.4485 14.3251 11.9923 14.1138 12.5173C14.0365 12.7051 14.0176 12.9677 14.0176 13.2305V18.1406H11.0953C11.0953 18.1406 11.1335 10.173 11.0953 9.34808H14.0176V10.593C14.406 9.9939 15.1009 9.14172 16.6514 9.14172C18.5742 9.14172 20.016 10.3984 20.016 13.099V18.1406Z" fill="#13151E"/>
</svg>
