<?xml version="1.0" encoding="UTF-8"?>
<svg id="Capa_1" data-name="Capa 1" xmlns="http://www.w3.org/2000/svg" xmlns:xlink="http://www.w3.org/1999/xlink" viewBox="0 0 125.67 120.8">
  <defs>
    <style>
      .cls-1 {
        fill: url(#linear-gradient-5);
      }

      .cls-1, .cls-2, .cls-3, .cls-4, .cls-5 {
        stroke: #fff;
        stroke-miterlimit: 10;
      }

      .cls-2 {
        fill: url(#linear-gradient-3);
      }

      .cls-3 {
        fill: url(#linear-gradient-4);
      }

      .cls-4 {
        fill: url(#linear-gradient-2);
      }

      .cls-6 {
        fill: url(#linear-gradient-8);
      }

      .cls-6, .cls-7, .cls-8, .cls-9 {
        stroke-width: 0px;
      }

      .cls-7 {
        fill: url(#linear-gradient-9);
      }

      .cls-8 {
        fill: url(#linear-gradient-7);
      }

      .cls-9 {
        fill: url(#linear-gradient-6);
      }

      .cls-5 {
        fill: url(#linear-gradient);
      }
    </style>
    <linearGradient id="linear-gradient" x1="63.55" y1="39.35" x2="77.16" y2="39.35" gradientUnits="userSpaceOnUse">
      <stop offset="0" stop-color="#f58c22"/>
      <stop offset="1" stop-color="#af3825"/>
    </linearGradient>
    <linearGradient id="linear-gradient-2" x1="52.28" y1="38.44" x2="65.89" y2="38.44" xlink:href="#linear-gradient"/>
    <linearGradient id="linear-gradient-3" x1="45.48" y1="44.52" x2="59.09" y2="44.52" xlink:href="#linear-gradient"/>
    <linearGradient id="linear-gradient-4" x1="58.06" y1="44.52" x2="71.66" y2="44.52" xlink:href="#linear-gradient"/>
    <linearGradient id="linear-gradient-5" x1="70.36" y1="44.7" x2="83.97" y2="44.7" xlink:href="#linear-gradient"/>
    <linearGradient id="linear-gradient-6" x1="29.08" y1="73.08" x2="102.87" y2="73.08" xlink:href="#linear-gradient"/>
    <linearGradient id="linear-gradient-7" x1="41.85" y1="60.7" x2="87.6" y2="60.7" xlink:href="#linear-gradient"/>
    <linearGradient id="linear-gradient-8" x1="39.59" y1="49.7" x2="89.72" y2="49.7" xlink:href="#linear-gradient"/>
    <linearGradient id="linear-gradient-9" x1="37.07" y1="59.47" x2="44.5" y2="59.47" xlink:href="#linear-gradient"/>
  </defs>
  <circle class="cls-5" cx="70.36" cy="39.35" r="6.8"/>
  <circle class="cls-4" cx="59.09" cy="38.44" r="6.8"/>
  <circle class="cls-2" cx="52.28" cy="44.52" r="6.8"/>
  <circle class="cls-3" cx="64.86" cy="44.52" r="6.8"/>
  <circle class="cls-1" cx="77.16" cy="44.7" r="6.8"/>
  <path class="cls-9" d="m65.4,75.38c2.26-.08,5.33-.18,8.39-.29.58-.02,1.16-.11,1.75-.18.35-.04.61-.34.6-.67,0-.33-.31-.64-.67-.63-.45.02-.89.08-1.33.11-4.31.34-8.62.32-12.94.27-2-.02-4.01-.02-6.01-.18-1.7-.13-2.96-1.05-3.57-2.69-.64-1.73.41-3.55,2.24-3.88.77-.14,1.55-.2,2.33-.2,2.72,0,5.44-.06,8.15-.27,1.11-.09,2.21-.19,3.32-.31,1.49-.17,2.94-.57,4.35-1.05,2.1-.71,4.24-1.25,6.44-1.5,2.34-.27,4.62,0,6.87.69,2.43.75,4.48,2.06,6.15,3.95,1.53,1.73,3.36,3.07,5.35,4.21,1.94,1.1,3.89,2.18,5.84,3.25.23.13.25.22.12.44-2.51,4.44-5.01,8.89-7.5,13.34-.12.21-.21.24-.41.12-3.02-1.74-6.05-3.46-9.07-5.21-1.1-.64-2.23-1.14-3.51-1.29-1-.11-1.98.05-2.96.2-1.52.24-3.03.49-4.55.74-1.51.25-3.01.53-4.52.74-2.07.29-4.14.62-6.22.77-2.51.17-4.85-.48-6.99-1.82-4.18-2.6-8.25-5.38-12.19-8.34-3.28-2.47-6.46-5.07-9.45-7.88-1.75-1.65-3.42-3.37-4.98-5.2-.51-.59-.98-1.19-1.21-1.95-.63-2.08.78-4.22,2.94-4.47,1.27-.15,2.37.19,3.35.98,4.83,3.89,9.65,7.77,14.48,11.66.17.13.21.26.18.47-.32,2.2.82,4.23,2.94,5.28.77.38,1.58.58,2.43.6,3.01.07,6.03.11,9.85.18Z"/>
  <path class="cls-8" d="m41.85,54.13h45.75c-.21.53-.4,1.03-.61,1.52-.99,2.37-2.11,4.68-3.54,6.82-.14.21-.28.27-.51.23-2.14-.35-4.27-.21-6.39.17-2.08.37-4.09,1.02-6.1,1.65-1.27.4-2.58.63-3.9.75-2.82.27-5.64.41-8.47.44-1.09.01-2.18,0-3.27.05-1.31.07-2.52.42-3.46,1.42-.15.16-.28.08-.43.02-.98-.45-1.81-1.09-2.57-1.85-1.75-1.76-3.07-3.84-4.18-6.04-.8-1.59-1.49-3.24-2.23-4.86-.04-.09-.06-.18-.1-.31Z"/>
  <path class="cls-6" d="m64.68,46.62c8.06,0,16.11,0,24.17,0,.3,0,.61.01.76.3.09.18.16.43.1.61-.5,1.68-1.02,3.35-1.54,5.02-.03.09-.17.15-.27.21-.05.03-.12,0-.18,0-15.34,0-30.68,0-46.01,0-.29,0-.43-.08-.52-.37-.49-1.57-1.01-3.13-1.52-4.69-.22-.68.14-1.11.82-1.11,8.07.01,16.13,0,24.2,0h0Z"/>
  <path class="cls-7" d="m44.47,62.7c-2.46-1.98-4.92-3.96-7.41-5.97.63-.39,1.26-.56,1.94-.49,1.2.12,2.05.85,2.77,1.73.4.49.71,1.07,1.03,1.63.58,1.01,1.13,2.04,1.69,3.06,0,.01-.02.02-.02.04Z"/>
</svg>