<?xml version="1.0" encoding="UTF-8"?>
<svg id="Capa_1" data-name="Capa 1" xmlns="http://www.w3.org/2000/svg" xmlns:xlink="http://www.w3.org/1999/xlink" viewBox="0 0 125.67 120.8">
  <defs>
    <style>
      .cls-1 {
        fill: url(#linear-gradient);
      }

      .cls-1, .cls-2, .cls-3 {
        stroke-width: 0px;
      }

      .cls-2 {
        fill: #c45f44;
      }

      .cls-3 {
        fill: #fff;
      }
    </style>
    <linearGradient id="linear-gradient" x1="32.06" y1="59.19" x2="96.33" y2="59.19" gradientUnits="userSpaceOnUse">
      <stop offset="0" stop-color="#f58c22"/>
      <stop offset="1" stop-color="#af3825"/>
    </linearGradient>
  </defs>
  <rect class="cls-1" x="32.06" y="36.81" width="64.27" height="44.75" rx="5.13" ry="5.13"/>
  <rect class="cls-3" x="40.15" y="45.79" width="41.49" height="2.71"/>
  <rect class="cls-3" x="40.15" y="52.1" width="30.74" height="2.71"/>
  <rect class="cls-3" x="40.15" y="57.83" width="30.74" height="2.71"/>
  <rect class="cls-3" x="40.15" y="64.68" width="25.14" height="2.71"/>
  <circle class="cls-3" cx="87.76" cy="74.1" r="16.87" transform="translate(-11.5 16.3) rotate(-9.96)"/>
  <path class="cls-2" d="m82.85,83.36l-1.2-17.67c-.05-.7.65-1.2,1.3-.93l17.28,7.11c.68.28.79,1.2.19,1.63l-5.15,3.73c-.42.3-.51.89-.22,1.31l4.6,6.47c.3.42.2,1.01-.22,1.31l-2.77,1.97c-.44.31-1.05.19-1.34-.26l-4.54-7.04c-.28-.44-.87-.56-1.3-.28l-5.18,3.38c-.6.39-1.4,0-1.45-.72Z"/>
</svg>