<?xml version="1.0" encoding="UTF-8"?>
<svg id="Capa_1" data-name="Capa 1" xmlns="http://www.w3.org/2000/svg" xmlns:xlink="http://www.w3.org/1999/xlink" viewBox="0 0 125.67 120.8">
  <defs>
    <style>
      .cls-1 {
        stroke: url(#linear-gradient);
        stroke-width: 6px;
      }

      .cls-1, .cls-2 {
        stroke-miterlimit: 10;
      }

      .cls-1, .cls-3 {
        fill: #fff;
      }

      .cls-2 {
        fill: url(#linear-gradient-6);
        stroke: #fff;
        stroke-width: .75px;
      }

      .cls-4 {
        fill: url(#linear-gradient-4);
      }

      .cls-4, .cls-5, .cls-6, .cls-7, .cls-8, .cls-9, .cls-3 {
        stroke-width: 0px;
      }

      .cls-5 {
        fill: url(#linear-gradient-2);
      }

      .cls-6 {
        fill: url(#linear-gradient-3);
      }

      .cls-7 {
        fill: url(#linear-gradient-8);
      }

      .cls-8 {
        fill: url(#linear-gradient-7);
      }

      .cls-9 {
        fill: url(#linear-gradient-5);
      }
    </style>
    <linearGradient id="linear-gradient" x1="43.84" y1="62.73" x2="77.93" y2="58.23" gradientTransform="translate(8.45 -7.45) rotate(7.53)" gradientUnits="userSpaceOnUse">
      <stop offset="0" stop-color="#f58c22"/>
      <stop offset="1" stop-color="#af3825"/>
    </linearGradient>
    <linearGradient id="linear-gradient-2" x1="60.97" y1="56.11" x2="70.45" y2="56.11" gradientTransform="translate(-21.45 -7.7) scale(1.23 1)" xlink:href="#linear-gradient"/>
    <linearGradient id="linear-gradient-3" x1="84.98" y1="16.46" x2="94.46" y2="16.46" gradientTransform="translate(-18.95 41.18) scale(.87 .77)" xlink:href="#linear-gradient"/>
    <linearGradient id="linear-gradient-4" x1="84.98" y1="21.76" x2="94.46" y2="21.76" gradientTransform="translate(-18.42 41.14) scale(.87 .77)" xlink:href="#linear-gradient"/>
    <linearGradient id="linear-gradient-5" x1="59.65" y1="151.52" x2="69.13" y2="151.52" gradientTransform="translate(-19.62 -207.11) scale(1.27 1.79)" xlink:href="#linear-gradient"/>
    <linearGradient id="linear-gradient-6" x1="62.66" y1="76.32" x2="87" y2="73.1" gradientTransform="matrix(1,0,0,1,0,0)" xlink:href="#linear-gradient"/>
    <linearGradient id="linear-gradient-7" x1="50.59" y1="42.06" x2="79.86" y2="42.06" gradientTransform="translate(-27.7 8.92) rotate(-10.03)" xlink:href="#linear-gradient"/>
    <linearGradient id="linear-gradient-8" x1="70.13" y1="53.41" x2="76" y2="53.41" gradientTransform="translate(-27.7 8.92) rotate(-10.03)" xlink:href="#linear-gradient"/>
  </defs>
  <rect class="cls-1" x="46.7" y="34.82" width="28.39" height="51.32" rx="5.8" ry="5.8" transform="translate(-7.4 8.5) rotate(-7.53)"/>
  <rect class="cls-5" x="53.47" y="47.29" width="11.66" height="2.26" transform="translate(-5.83 8.18) rotate(-7.53)"/>
  <rect class="cls-6" x="54.77" y="52.94" width="8.23" height="1.73" transform="translate(-6.54 8.18) rotate(-7.53)"/>
  <rect class="cls-4" x="55.3" y="56.98" width="8.23" height="1.73" transform="translate(-7.06 8.28) rotate(-7.53)"/>
  <rect class="cls-9" x="56.25" y="62.61" width="12.07" height="4.05" transform="translate(-7.93 8.72) rotate(-7.53)"/>
  <path class="cls-2" d="m79.17,90.06c-2.39-.23-4.43-4.06-4.99-6.91-.52-2.63.45-3.19,0-6.53-.27-2.02-.71-5.33-3.07-7.11-2.01-1.51-3.13-.21-6.15-1.92-2.16-1.23-4.36-3.47-4.03-5.19.09-.48.58-1.92.58-1.92h0s11.52,1.73,11.52,1.73h0s2.67,2.14,2.88,2.3c7,5.61,10.5,8.41,11.33,11.14,1.86,6.11-4.25,14.78-8.07,14.41Z"/>
  <g>
    <path class="cls-8" d="m53.7,27.73l-22.95,4.06c-1.62.29-2.7,1.83-2.42,3.45l2.22,12.55c.29,1.62,1.83,2.7,3.45,2.42l22.95-4.06c1.62-.29,2.7-1.83,2.42-3.45l-2.22-12.55c-.29-1.62-1.83-2.7-3.45-2.42Z"/>
    <path class="cls-7" d="m55.98,50.8l-5.77-4.03,5.82-.83.77,4.34c.04.21-.05.42-.24.54-.06.04-.13.06-.19.08-.14.02-.28,0-.39-.09Z"/>
    <circle class="cls-3" cx="38.79" cy="39.86" r="1.61"/>
    <circle class="cls-3" cx="43.85" cy="38.97" r="1.61"/>
    <circle class="cls-3" cx="48.92" cy="38.07" r="1.61"/>
  </g>
</svg>