<?xml version="1.0" encoding="UTF-8"?>
<svg id="Capa_1" data-name="Capa 1" xmlns="http://www.w3.org/2000/svg" xmlns:xlink="http://www.w3.org/1999/xlink" viewBox="0 0 125.67 120.8">
  <defs>
    <style>
      .cls-1 {
        fill: url(#linear-gradient);
      }

      .cls-1, .cls-2, .cls-3, .cls-4, .cls-5 {
        stroke-width: 0px;
      }

      .cls-2 {
        fill: url(#linear-gradient-4);
      }

      .cls-3 {
        fill: url(#linear-gradient-2);
      }

      .cls-4 {
        fill: url(#linear-gradient-3);
      }

      .cls-5 {
        fill: url(#linear-gradient-5);
      }
    </style>
    <linearGradient id="linear-gradient" x1="34.8" y1="86.04" x2="56.3" y2="86.04" gradientUnits="userSpaceOnUse">
      <stop offset="0" stop-color="#f58c22"/>
      <stop offset="1" stop-color="#af3825"/>
    </linearGradient>
    <linearGradient id="linear-gradient-2" x1="45.07" y1="80.27" x2="61.56" y2="80.27" xlink:href="#linear-gradient"/>
    <linearGradient id="linear-gradient-3" x1="77.46" x2="98.96" xlink:href="#linear-gradient"/>
    <linearGradient id="linear-gradient-4" x1="72.2" y1="80.27" x2="87.96" y2="80.27" xlink:href="#linear-gradient"/>
    <linearGradient id="linear-gradient-5" x1="51.51" y1="59.27" x2="82.29" y2="59.27" xlink:href="#linear-gradient"/>
  </defs>
  <path class="cls-1" d="m46.64,84.51c-3.28-3.9-3.77-10.34-3.77-10.6v-.77c-1.1.88-4.59,1.59-7.32,1.72-.57.02-.75.48-.75,1.05-.19,13.92,9.25,22.41,9.65,22.77.19.17.45.27.71.27.13,0,.27-.03.4-.08,2.31-.93,6.85-3.75,10.74-6.92l-.62-.32c-.28-.16-5.89-3.37-9.04-7.12Z"/>
  <path class="cls-3" d="m49.68,70.79l-.25-.72c-.16.11-.36.22-.57.35-.01,0-.04,0-.05,0-.74.46-1.84,1.05-3.1,1.66-.04.02-.2.04-.24.06-.05.02-.39.05-.39.08v1.65s.45,5.94,3.24,9.26c2.92,3.47,8.37,6.6,8.42,6.64l1.33.7c.57-.5,1.1-1,1.58-1.49.02-.02.03-.03.05-.05.62-.62,1.15-1.23,1.61-1.8.06-.08.12-.14.17-.21.03-.03.05-.08.09-.11l-.72-.29c-4.85-1.28-10.08-11.71-11.15-15.73Z"/>
  <path class="cls-4" d="m97.83,74.86c-2.73-.13-5.49-.84-7.68-1.72v.77c0,.27-.12,6.7-3.4,10.6-3.15,3.75-8.39,6.96-8.67,7.12l-.62.32c3.89,3.16,8.43,5.99,10.74,6.92.13.04.27.08.4.08.26,0,.51-.1.71-.27.41-.35,9.84-8.85,9.65-22.77,0-.57-.56-1.03-1.12-1.05Z"/>
  <path class="cls-2" d="m85.08,83.13c2.79-3.31,2.87-9.22,2.87-9.26v-1.65s.03-.05-.02-.08c-.04-.02-.02-.04-.06-.06-1.26-.61-2.27-1.2-3.01-1.66-.01,0,0,0,0,0-.21-.13-.39-.25-.55-.35l-.24.72c-1.07,4.02-6.29,14.45-11.15,15.73l-.71.29s.05.07.09.11c.05.08.11.14.17.21.46.57.99,1.18,1.61,1.8.02.02.03.03.05.05.48.48,1.02.98,1.58,1.49l1.33-.7c.05-.03,5.13-3.16,8.05-6.64Z"/>
  <path class="cls-5" d="m82.07,70.17l.22-.72c-2.58-3.25-3.37-7.96-3.89-11.2-.33-1.98-.54-3.28-1.05-4.02-.94-1.37-2.07-3.73-2.62-5.49-.28-.87-.66-3.31-1.01-5.47-.37-2.37-.73-4.61-1.04-5.63-.51-1.69-2.27-3.03-3.8-2.8-.12.02-.5.08-.87.35-1.94,1.39-1.07,6.4-.82,6.4.24,0,1.05-4.4-.88-6.13-.14-.13-.59-.52-1.25-.62-1.53-.22-3.47,1.11-3.98,2.8-.31,1.03-.66,3.26-1.04,5.63-.34,2.16-.73,4.61-1,5.47-.56,1.76-1.68,4.13-2.62,5.49-.51.74-.71,2.04-1.04,4.02-.52,3.24-1.29,7.95-3.87,11.2l.27.72c1.02,3.78,5.03,11.15,8.31,13.56,6.35-2.79,6.97-14.3,6.97-18,0,3.7.44,15.21,6.79,18,3.28-2.42,7.2-9.78,8.22-13.56Z"/>
</svg>