<svg width="72" height="68" viewBox="0 0 72 68" fill="none" xmlns="http://www.w3.org/2000/svg">
<g id="Group">
<path id="Vector" opacity="0.17" d="M8.64001 49.8664L34 62.6105C37.27 64.248 40.73 65.4583 44.32 66.1296C49.83 67.1568 57.78 67.6348 64.18 65.6007C83.66 59.4168 57.73 46.1642 57.73 46.1642L38.22 35.668L8.64001 49.8664Z" fill="#7C7C7C"/>
<g id="Group_2">
<path id="Vector_2" d="M41.27 18.1859C40.73 17.5146 40.07 17.0366 39.32 16.7721L34.85 13.5276C34.85 10.0797 33.83 7.51667 32.17 6.12327V6.09276L24.82 0.834446C23.08 -0.243661 20.77 -0.213153 18.24 1.21076C12.8 4.27218 8.39 12.5716 8.39 19.7623C8.39 21.0947 8.54 22.2949 8.82 23.3425C8.65 23.4238 8.47 23.5052 8.3 23.5967C3.71 26.1801 0 33.1776 0 39.2395C0 41.8228 0.679999 43.8163 1.81 45.0572L1.76 45.1487L9.47 50.6715C10.95 51.6174 12.91 51.597 15.07 50.3867L34.58 39.4124C39.17 36.829 42.88 29.8315 42.88 23.7696C42.88 21.3388 42.28 19.4369 41.27 18.1859Z" fill="#78FFCE"/>
<path id="Vector_3" d="M34.57 17.4762C34.52 17.5067 34.47 17.5373 34.42 17.5678C34.7 16.2049 34.85 14.8522 34.85 13.53C34.85 6.34935 30.44 3.00316 25 6.06457C19.56 9.12599 15.15 17.4254 15.15 24.6161C15.15 25.9485 15.3 27.1487 15.58 28.1963C15.41 28.2777 15.23 28.359 15.06 28.4506C10.47 31.0339 6.76001 38.0315 6.76001 44.0933C6.76001 50.1551 10.48 52.9724 15.06 50.389L34.57 39.4147C39.16 36.8313 42.87 29.8338 42.87 23.772C42.87 17.7102 39.15 14.8928 34.57 17.4762Z" fill="url(#paint0_linear_150_35713)"/>
</g>
</g>
<defs>
<linearGradient id="paint0_linear_150_35713" x1="-258.173" y1="-169.767" x2="-221.736" y2="-144.551" gradientUnits="userSpaceOnUse">
<stop stop-color="#00DA93"/>
<stop offset="1" stop-color="#00ACAB"/>
</linearGradient>
</defs>
</svg>
