<svg width="19" height="20" viewBox="0 0 19 20" fill="none" xmlns="http://www.w3.org/2000/svg">
<g id="fi_1827379">
<g id="Vector">
<path d="M9.09509 2.2041C4.79633 2.2041 1.29932 5.70111 1.29932 9.99988C1.29932 14.2986 4.79633 17.7957 9.09509 17.7957C13.3939 17.7957 16.8909 14.2986 16.8909 9.99988C16.8909 5.70111 13.3939 2.2041 9.09509 2.2041ZM12.8027 14.0322C12.676 14.1589 12.5097 14.2226 12.3434 14.2226C12.1771 14.2226 12.0107 14.1589 11.8841 14.0322L8.63581 10.784C8.51364 10.6626 8.44548 10.4975 8.44548 10.3247V6.10199C8.44548 5.74275 8.73644 5.45238 9.09509 5.45238C9.45374 5.45238 9.7447 5.74275 9.7447 6.10199V10.0558L12.8027 13.1136C13.0566 13.3677 13.0566 13.7782 12.8027 14.0322Z" fill="black"/>
<path d="M9.09509 2.2041C4.79633 2.2041 1.29932 5.70111 1.29932 9.99988C1.29932 14.2986 4.79633 17.7957 9.09509 17.7957C13.3939 17.7957 16.8909 14.2986 16.8909 9.99988C16.8909 5.70111 13.3939 2.2041 9.09509 2.2041ZM12.8027 14.0322C12.676 14.1589 12.5097 14.2226 12.3434 14.2226C12.1771 14.2226 12.0107 14.1589 11.8841 14.0322L8.63581 10.784C8.51364 10.6626 8.44548 10.4975 8.44548 10.3247V6.10199C8.44548 5.74275 8.73644 5.45238 9.09509 5.45238C9.45374 5.45238 9.7447 5.74275 9.7447 6.10199V10.0558L12.8027 13.1136C13.0566 13.3677 13.0566 13.7782 12.8027 14.0322Z" fill="url(#paint0_linear_366_26153)"/>
</g>
</g>
<defs>
<linearGradient id="paint0_linear_366_26153" x1="16.4096" y1="29.0396" x2="-2.33897" y2="26.9781" gradientUnits="userSpaceOnUse">
<stop stop-color="#A92902"/>
<stop offset="0.494792" stop-color="#E25704"/>
<stop offset="1" stop-color="#F49004"/>
</linearGradient>
</defs>
</svg>
