<svg width="19" height="19" viewBox="0 0 19 19" fill="none" xmlns="http://www.w3.org/2000/svg">
<g id="fi_3857838">
<path id="Vector" d="M1.70557 6.94646V6.0938C1.70639 5.41563 1.97616 4.76548 2.4557 4.28594C2.93523 3.8064 3.58539 3.53664 4.26356 3.53581H5.11622V4.38847C5.11622 4.68999 5.236 4.97916 5.4492 5.19237C5.66241 5.40558 5.95158 5.52536 6.2531 5.52536C6.55462 5.52536 6.84379 5.40558 7.057 5.19237C7.27021 4.97916 7.38999 4.68999 7.38999 4.38847V3.53581H10.8006V4.38847C10.8006 4.68999 10.9204 4.97916 11.1336 5.19237C11.3468 5.40558 11.636 5.52536 11.9375 5.52536C12.239 5.52536 12.5282 5.40558 12.7414 5.19237C12.9546 4.97916 13.0744 4.68999 13.0744 4.38847V3.53581H13.9271C14.6052 3.53664 15.2554 3.8064 15.7349 4.28594C16.2145 4.76548 16.4842 5.41563 16.4851 6.0938V6.94646H1.70557ZM5.68466 4.38847C5.68466 4.53923 5.74455 4.68382 5.85115 4.79042C5.95776 4.89703 6.10234 4.95691 6.2531 4.95691C6.40386 4.95691 6.54845 4.89703 6.65505 4.79042C6.76165 4.68382 6.82154 4.53923 6.82154 4.38847V2.96737C6.82154 2.81661 6.76165 2.67202 6.65505 2.56542C6.54845 2.45882 6.40386 2.39893 6.2531 2.39893C6.10234 2.39893 5.95776 2.45882 5.85115 2.56542C5.74455 2.67202 5.68466 2.81661 5.68466 2.96737V4.38847ZM11.3691 2.96737V4.38847C11.3691 4.53923 11.429 4.68382 11.5356 4.79042C11.6422 4.89703 11.7868 4.95691 11.9375 4.95691C12.0883 4.95691 12.2329 4.89703 12.3395 4.79042C12.4461 4.68382 12.506 4.53923 12.506 4.38847V2.96737C12.506 2.81661 12.4461 2.67202 12.3395 2.56542C12.2329 2.45882 12.0883 2.39893 11.9375 2.39893C11.7868 2.39893 11.6422 2.45882 11.5356 2.56542C11.429 2.67202 11.3691 2.81661 11.3691 2.96737ZM16.4851 7.5149V13.4835C16.4842 14.1617 16.2145 14.8119 15.7349 15.2914C15.2554 15.7709 14.6052 16.0407 13.9271 16.0415H4.26356C3.58539 16.0407 2.93523 15.7709 2.4557 15.2914C1.97616 14.8119 1.70639 14.1617 1.70557 13.4835V7.5149H16.4851ZM11.1721 10.7292H9.99857L9.63533 9.61302C9.59795 9.4993 9.52562 9.40027 9.42865 9.33007C9.33168 9.25987 9.21502 9.22208 9.09531 9.22208C8.9756 9.22208 8.85894 9.25987 8.76197 9.33007C8.665 9.40027 8.59267 9.4993 8.55529 9.61302L8.19263 10.7292H7.01851C6.89846 10.7291 6.78148 10.7671 6.68435 10.8377C6.58721 10.9082 6.51491 11.0077 6.4778 11.1219C6.44069 11.2361 6.44068 11.359 6.47777 11.4732C6.51486 11.5874 6.58714 11.6869 6.68427 11.7575L7.63385 12.4473L7.27118 13.5634C7.23407 13.6776 7.23406 13.8006 7.27116 13.9148C7.30826 14.029 7.38055 14.1285 7.47769 14.199C7.57482 14.2696 7.69181 14.3076 7.81187 14.3076C7.93193 14.3076 8.0489 14.2695 8.14601 14.1989L9.09531 13.5091L10.0446 14.1989C10.1417 14.2695 10.2587 14.3076 10.3788 14.3076C10.4988 14.3076 10.6158 14.2696 10.7129 14.199C10.8101 14.1285 10.8824 14.029 10.9195 13.9148C10.9566 13.8006 10.9566 13.6776 10.9194 13.5634L10.5568 12.4473L11.5064 11.7575C11.6035 11.6869 11.6758 11.5874 11.7129 11.4732C11.7499 11.359 11.7499 11.2361 11.7128 11.1219C11.6757 11.0077 11.6034 10.9082 11.5063 10.8377C11.4091 10.7671 11.2922 10.7291 11.1721 10.7292Z" fill="url(#paint0_linear_366_26166)"/>
</g>
<defs>
<linearGradient id="paint0_linear_366_26166" x1="16.0289" y1="25.88" x2="-1.70644" y2="23.7674" gradientUnits="userSpaceOnUse">
<stop stop-color="#A92902"/>
<stop offset="0.494792" stop-color="#E25704"/>
<stop offset="1" stop-color="#F49004"/>
</linearGradient>
</defs>
</svg>
