<svg width="36" height="36" viewBox="0 0 36 36" fill="none" xmlns="http://www.w3.org/2000/svg">
<g id="fi_4138124">
<g id="Group">
<path id="Vector" d="M18.5 35C28.165 35 36 27.165 36 17.5C36 7.83502 28.165 0 18.5 0C8.83502 0 1 7.83502 1 17.5C1 27.165 8.83502 35 18.5 35Z" fill="url(#paint0_linear_366_26136)"/>
<g id="Group_2">
<path id="Vector_2" d="M22.2174 7.77771H14.7896C11.4763 7.77771 8.78516 10.4688 8.78516 13.7822V21.2099C8.78516 24.5233 11.4763 27.2144 14.7896 27.2144H22.2174C25.5307 27.2144 28.2218 24.5233 28.2218 21.2099V13.7822C28.2218 10.4688 25.5307 7.77771 22.2174 7.77771ZM26.0518 21.2177C26.0518 23.3333 24.3329 25.0599 22.2096 25.0599H14.7818C12.6663 25.0599 10.9396 23.341 10.9396 21.2177V13.7899C10.9396 11.6744 12.6585 9.94771 14.7818 9.94771H22.2096C24.3252 9.94771 26.0518 11.6666 26.0518 13.7899V21.2177Z" fill="white"/>
<path id="Vector_3" d="M18.4993 12.5299C15.7615 12.5299 13.5293 14.7621 13.5293 17.4999C13.5293 20.2377 15.7615 22.4699 18.4993 22.4699C21.2371 22.4699 23.4693 20.2377 23.4693 17.4999C23.4693 14.7621 21.2371 12.5299 18.4993 12.5299ZM18.4993 20.5177C16.8349 20.5177 15.4815 19.1644 15.4815 17.4999C15.4815 15.8355 16.8349 14.4821 18.4993 14.4821C20.1637 14.4821 21.5171 15.8355 21.5171 17.4999C21.5171 19.1644 20.1637 20.5177 18.4993 20.5177Z" fill="white"/>
<path id="Vector_4" d="M23.8479 13.0748C24.3058 13.0006 24.6168 12.5692 24.5426 12.1113C24.4683 11.6534 24.037 11.3424 23.5791 11.4166C23.1212 11.4909 22.8102 11.9222 22.8844 12.3801C22.9586 12.838 23.39 13.149 23.8479 13.0748Z" fill="white"/>
</g>
</g>
</g>
<defs>
<linearGradient id="paint0_linear_366_26136" x1="5.17503" y1="30.825" x2="30.0445" y2="5.95552" gradientUnits="userSpaceOnUse">
<stop stop-color="#FEE411"/>
<stop offset="0.0518459" stop-color="#FEDB16"/>
<stop offset="0.1381" stop-color="#FEC125"/>
<stop offset="0.2481" stop-color="#FE983D"/>
<stop offset="0.3762" stop-color="#FE5F5E"/>
<stop offset="0.5" stop-color="#FE2181"/>
<stop offset="1" stop-color="#9000DC"/>
</linearGradient>
</defs>
</svg>
