<svg width="19" height="19" viewBox="0 0 19 19" fill="none" xmlns="http://www.w3.org/2000/svg">
<g id="fi_3177361" clip-path="url(#clip0_366_26159)">
<g id="Pin">
<g id="Vector">
<path d="M9.09523 0.299316C7.28684 0.301715 5.55321 1.02116 4.27449 2.29988C2.99577 3.5786 2.27632 5.31223 2.27393 7.12062C2.27393 12.0177 8.62911 18.1512 8.89912 18.4099C8.95164 18.4609 9.02199 18.4895 9.09523 18.4895C9.16847 18.4895 9.23882 18.4609 9.29134 18.4099C9.56135 18.1512 15.9165 12.0177 15.9165 7.12062C15.9141 5.31223 15.1947 3.5786 13.916 2.29988C12.6372 1.02116 10.9036 0.301715 9.09523 0.299316ZM9.09523 10.2471C8.47688 10.2471 7.87242 10.0637 7.35828 9.72015C6.84414 9.37661 6.44342 8.88833 6.20678 8.31705C5.97015 7.74577 5.90824 7.11715 6.02887 6.51068C6.14951 5.90421 6.44727 5.34714 6.88451 4.9099C7.32175 4.47266 7.87882 4.1749 8.48529 4.05426C9.09176 3.93363 9.72038 3.99554 10.2917 4.23217C10.8629 4.46881 11.3512 4.86953 11.6948 5.38367C12.0383 5.89781 12.2217 6.50227 12.2217 7.12062C12.2212 7.94965 11.8916 8.74458 11.3054 9.33079C10.7192 9.917 9.92426 10.2466 9.09523 10.2471Z" fill="#FF5B00"/>
<path d="M9.09523 0.299316C7.28684 0.301715 5.55321 1.02116 4.27449 2.29988C2.99577 3.5786 2.27632 5.31223 2.27393 7.12062C2.27393 12.0177 8.62911 18.1512 8.89912 18.4099C8.95164 18.4609 9.02199 18.4895 9.09523 18.4895C9.16847 18.4895 9.23882 18.4609 9.29134 18.4099C9.56135 18.1512 15.9165 12.0177 15.9165 7.12062C15.9141 5.31223 15.1947 3.5786 13.916 2.29988C12.6372 1.02116 10.9036 0.301715 9.09523 0.299316ZM9.09523 10.2471C8.47688 10.2471 7.87242 10.0637 7.35828 9.72015C6.84414 9.37661 6.44342 8.88833 6.20678 8.31705C5.97015 7.74577 5.90824 7.11715 6.02887 6.51068C6.14951 5.90421 6.44727 5.34714 6.88451 4.9099C7.32175 4.47266 7.87882 4.1749 8.48529 4.05426C9.09176 3.93363 9.72038 3.99554 10.2917 4.23217C10.8629 4.46881 11.3512 4.86953 11.6948 5.38367C12.0383 5.89781 12.2217 6.50227 12.2217 7.12062C12.2212 7.94965 11.8916 8.74458 11.3054 9.33079C10.7192 9.917 9.92426 10.2466 9.09523 10.2471Z" fill="url(#paint0_linear_366_26159)"/>
</g>
</g>
</g>
<defs>
<linearGradient id="paint0_linear_366_26159" x1="15.4955" y1="31.6074" x2="-0.995755" y2="30.2474" gradientUnits="userSpaceOnUse">
<stop stop-color="#A92902"/>
<stop offset="0.494792" stop-color="#E25704"/>
<stop offset="1" stop-color="#F49004"/>
</linearGradient>
<clipPath id="clip0_366_26159">
<rect width="18.1901" height="18.1901" fill="white" transform="translate(0 0.299316)"/>
</clipPath>
</defs>
</svg>
