<svg width="24" height="24" viewBox="0 0 24 24" fill="none" xmlns="http://www.w3.org/2000/svg">
<g id="fi_3114845" opacity="0.6" clip-path="url(#clip0_366_26125)">
<path id="Vector" d="M16.9999 16C16.3708 16.0015 15.7509 16.1517 15.1909 16.4385C14.631 16.7253 14.1468 17.1404 13.7779 17.65L8.76288 14.307C9.07892 13.4643 9.07892 12.5357 8.76288 11.693L13.7779 8.35002C14.3408 9.11315 15.1574 9.65054 16.0809 9.86564C17.0045 10.0807 17.9745 9.95946 18.8166 9.52357C19.6588 9.08769 20.3179 8.36577 20.6755 7.48754C21.0332 6.6093 21.066 5.6323 20.7679 4.73208C20.4699 3.83186 19.8606 3.06742 19.0495 2.57611C18.2385 2.08479 17.2788 1.89881 16.3429 2.05157C15.407 2.20433 14.5563 2.68582 13.9435 3.40953C13.3308 4.13325 12.9962 5.05175 12.9999 6.00002C13.0064 6.14573 13.0211 6.29096 13.0439 6.43502L7.65288 10.029C7.07837 9.51111 6.36602 9.17088 5.60209 9.04954C4.83817 8.9282 4.05546 9.03095 3.34874 9.34536C2.64202 9.65976 2.04162 10.1723 1.62025 10.821C1.19888 11.4696 0.974609 12.2265 0.974609 13C0.974609 13.7735 1.19888 14.5304 1.62025 15.1791C2.04162 15.8277 2.64202 16.3403 3.34874 16.6547C4.05546 16.9691 4.83817 17.0718 5.60209 16.9505C6.36602 16.8292 7.07837 16.4889 7.65288 15.971L13.0439 19.565C13.0211 19.7091 13.0064 19.8543 12.9999 20C12.9999 20.7911 13.2345 21.5645 13.674 22.2223C14.1135 22.8801 14.7382 23.3928 15.4692 23.6955C16.2001 23.9983 17.0043 24.0775 17.7802 23.9232C18.5562 23.7688 19.2689 23.3879 19.8283 22.8284C20.3877 22.269 20.7687 21.5563 20.923 20.7804C21.0774 20.0045 20.9982 19.2002 20.6954 18.4693C20.3927 17.7384 19.88 17.1137 19.2222 16.6741C18.5644 16.2346 17.791 16 16.9999 16ZM16.9999 4.00002C17.3954 4.00002 17.7821 4.11731 18.111 4.33708C18.4399 4.55684 18.6963 4.8692 18.8476 5.23465C18.999 5.6001 19.0386 6.00223 18.9615 6.3902C18.8843 6.77816 18.6938 7.13452 18.4141 7.41423C18.1344 7.69393 17.778 7.88442 17.3901 7.96159C17.0021 8.03876 16.6 7.99915 16.2345 7.84778C15.8691 7.6964 15.5567 7.44005 15.3369 7.11116C15.1172 6.78226 14.9999 6.39558 14.9999 6.00002C14.9999 5.46958 15.2106 4.96088 15.5857 4.5858C15.9607 4.21073 16.4695 4.00002 16.9999 4.00002ZM4.99988 15C4.60432 15 4.21764 14.8827 3.88874 14.663C3.55985 14.4432 3.3035 14.1308 3.15213 13.7654C3.00075 13.3999 2.96114 12.9978 3.03831 12.6098C3.11548 12.2219 3.30597 11.8655 3.58567 11.5858C3.86538 11.3061 4.22174 11.1156 4.6097 11.0384C4.99767 10.9613 5.3998 11.0009 5.76525 11.1523C6.1307 11.3036 6.44306 11.56 6.66282 11.8889C6.88259 12.2178 6.99988 12.6045 6.99988 13C6.99988 13.5304 6.78917 14.0392 6.4141 14.4142C6.03903 14.7893 5.53032 15 4.99988 15ZM16.9999 22C16.6043 22 16.2176 21.8827 15.8887 21.663C15.5598 21.4432 15.3035 21.1308 15.1521 20.7654C15.0008 20.3999 14.9611 19.9978 15.0383 19.6098C15.1155 19.2219 15.306 18.8655 15.5857 18.5858C15.8654 18.3061 16.2217 18.1156 16.6097 18.0384C16.9977 17.9613 17.3998 18.0009 17.7653 18.1523C18.1307 18.3036 18.4431 18.56 18.6628 18.8889C18.8826 19.2178 18.9999 19.6045 18.9999 20C18.9999 20.5304 18.7892 21.0392 18.4141 21.4142C18.039 21.7893 17.5303 22 16.9999 22Z" fill="#FF5B00"/>
</g>
<defs>
<clipPath id="clip0_366_26125">
<rect width="24" height="24" fill="white"/>
</clipPath>
</defs>
</svg>
