<svg width="24" height="24" viewBox="0 0 24 24" fill="none" xmlns="http://www.w3.org/2000/svg">
<g id="fi_11488500">
<g id="Icon">
<g id="_28">
<path id="Vector" d="M12.283 1.49994C8.26194 1.49994 5 4.76188 5 8.78292C5 11.4723 8.25327 17.0592 10.4134 20.4687C11.281 21.8437 13.2893 21.8437 14.1569 20.4687C16.317 17.0592 19.5703 11.4679 19.5703 8.78292C19.566 4.76188 16.3084 1.49994 12.283 1.49994ZM12.283 13.2204C9.83652 13.2204 7.84986 11.2337 7.84986 8.78726C7.84986 6.3408 9.83652 4.3498 12.283 4.3498C14.7294 4.3498 16.7161 6.33646 16.7161 8.78292C16.7161 11.2294 14.7338 13.2204 12.283 13.2204ZM14.4995 8.78726C14.4995 10.0105 13.5062 11.0038 12.283 11.0038C11.0598 11.0038 10.0664 10.0105 10.0664 8.78726C10.0664 7.56403 11.0598 6.5707 12.283 6.5707C13.5062 6.5707 14.4995 7.55969 14.4995 8.78726Z" fill="#686868"/>
</g>
</g>
</g>
</svg>
