<svg width="24" height="24" viewBox="0 0 24 24" fill="none" xmlns="http://www.w3.org/2000/svg">
<g id="fi_7446797">
<g id="Glyph">
<path id="Bill, Receipt" d="M17.3499 2.5H7.84998C7.09412 2.5 6.36921 2.80026 5.83474 3.33474C5.30026 3.86921 5 4.59412 5 5.34998V20.5499C4.99997 20.7219 5.04664 20.8906 5.13502 21.0382C5.2234 21.1857 5.35017 21.3065 5.50182 21.3876C5.65347 21.4688 5.8243 21.5072 5.99608 21.4989C6.16787 21.4905 6.33417 21.4357 6.47724 21.3403L8.67932 19.8716L10.0283 21.2215C10.2065 21.3996 10.4481 21.4997 10.7 21.4997C10.9519 21.4997 11.1935 21.3996 11.3716 21.2215L12.5999 19.9932L13.8283 21.2215C14.0064 21.3996 14.248 21.4997 14.4999 21.4997C14.7518 21.4997 14.9934 21.3996 15.1716 21.2215L16.5206 19.8716L18.7226 21.3403C18.8657 21.4357 19.032 21.4905 19.2038 21.4989C19.3756 21.5072 19.5464 21.4688 19.6981 21.3876C19.8497 21.3065 19.9765 21.1857 20.0649 21.0382C20.1532 20.8906 20.1999 20.7219 20.1999 20.5499V5.34998C20.1999 4.59412 19.8996 3.86921 19.3651 3.33474C18.8307 2.80026 18.1058 2.5 17.3499 2.5ZM13.5499 15.7999H9.74996C9.49801 15.7999 9.25638 15.6998 9.07822 15.5217C8.90006 15.3435 8.79997 15.1019 8.79997 14.8499C8.79997 14.598 8.90006 14.3563 9.07822 14.1782C9.25638 14 9.49801 13.8999 9.74996 13.8999H13.5499C13.8019 13.8999 14.0435 14 14.2217 14.1782C14.3998 14.3563 14.4999 14.598 14.4999 14.8499C14.4999 15.1019 14.3998 15.3435 14.2217 15.5217C14.0435 15.6998 13.8019 15.7999 13.5499 15.7999ZM15.4499 11.9999H9.74996C9.49801 11.9999 9.25638 11.8998 9.07822 11.7217C8.90006 11.5435 8.79997 11.3019 8.79997 11.0499C8.79997 10.798 8.90006 10.5563 9.07822 10.3782C9.25638 10.2 9.49801 10.0999 9.74996 10.0999H15.4499C15.7019 10.0999 15.9435 10.2 16.1217 10.3782C16.2998 10.5563 16.3999 10.798 16.3999 11.0499C16.3999 11.3019 16.2998 11.5435 16.1217 11.7217C15.9435 11.8998 15.7019 11.9999 15.4499 11.9999ZM15.4499 8.19996H9.74996C9.49801 8.19996 9.25638 8.09987 9.07822 7.92171C8.90006 7.74355 8.79997 7.50192 8.79997 7.24996C8.79997 6.99801 8.90006 6.75638 9.07822 6.57822C9.25638 6.40006 9.49801 6.29997 9.74996 6.29997H15.4499C15.7019 6.29997 15.9435 6.40006 16.1217 6.57822C16.2998 6.75638 16.3999 6.99801 16.3999 7.24996C16.3999 7.50192 16.2998 7.74355 16.1217 7.92171C15.9435 8.09987 15.7019 8.19996 15.4499 8.19996Z" fill="#686868"/>
</g>
</g>
</svg>
